<svg xmlns="http://www.w3.org/2000/svg" width="32" height="32" viewBox="0 0 1024 1024"><path d="M457.882 954.266c-243.866 0-442.266-198.4-442.266-442.266s198.4-442.266 442.266-442.266c243.865 0 442.265 198.4 442.265 442.266s-198.41 442.266-442.265 442.266m0-742.257C292.465 212.009 157.89 346.583 157.89 512s134.563 299.991 299.99 299.991S757.874 677.417 757.874 512 623.299 212.009 457.882 212.009" transform="translate(66.081 66.081)scale(.87093)" fill="currentColor"/><path d="M866.109 849.111a71.137 71.137 0 1 0 142.275 0 71.137 71.137 0 1 0-142.275 0" transform="translate(66.081 66.081)scale(.87093)" fill="currentColor"/></svg>