<svg xmlns="http://www.w3.org/2000/svg" width="32" height="32" viewBox="0 0 1024 1024"><path d="M512 277.333c-140.885 0-256 115.115-256 256v341.334a42.667 42.667 0 0 0 42.667 42.666h426.666A42.667 42.667 0 0 0 768 874.667V533.333c0-140.885-115.115-256-256-256m0 85.334c94.763 0 170.667 75.904 170.667 170.666V832H341.333V533.333c0-94.762 75.904-170.666 170.667-170.666" fill="currentColor"/><path d="M512 64a42.667 42.667 0 0 0-42.667 42.667v64A42.667 42.667 0 0 0 512 213.333a42.667 42.667 0 0 0 42.667-42.666v-64A42.667 42.667 0 0 0 512 64m249.963 92.501a42.67 42.67 0 0 0-28.971 15.083l-41.11 49.045a42.667 42.667 0 0 0 5.249 60.075 42.667 42.667 0 0 0 60.117-5.248l41.13-49.045a42.667 42.667 0 0 0-5.247-60.075 42.67 42.67 0 0 0-31.168-9.835m131.285 234.283-63.04 11.093a42.667 42.667 0 0 0-34.581 49.451 42.667 42.667 0 0 0 49.408 34.581l63.04-11.093a42.667 42.667 0 0 0 34.581-49.45 42.667 42.667 0 0 0-49.408-34.56zm-762.496 0a42.667 42.667 0 0 0-49.408 34.581 42.667 42.667 0 0 0 34.56 49.472l63.061 11.094a42.667 42.667 0 0 0 49.408-34.603 42.667 42.667 0 0 0-34.624-49.45zm100.117-224.448a42.667 42.667 0 0 0-5.248 60.075l41.174 49.066a42.667 42.667 0 0 0 60.074 5.227 42.667 42.667 0 0 0 5.248-60.117l-41.109-49.003a42.667 42.667 0 0 0-60.139-5.248M128 832a42.667 42.667 0 0 0-42.667 42.667A42.667 42.667 0 0 0 128 917.333h789.333A42.667 42.667 0 0 0 960 874.667 42.667 42.667 0 0 0 917.333 832z" fill="currentColor"/></svg>