<svg xmlns="http://www.w3.org/2000/svg" width="32" height="32" viewBox="0 0 1024 1024"><path d="M896 938.667H128c-25.6 0-42.667-17.067-42.667-42.667V341.333c0-25.6 17.067-42.666 42.667-42.666s42.667 17.066 42.667 42.666v512h682.666v-512c0-25.6 17.067-42.666 42.667-42.666s42.667 17.066 42.667 42.666V896c0 25.6-17.067 42.667-42.667 42.667" fill="currentColor"/><path d="M981.333 384H42.667C17.067 384 0 366.933 0 341.333V128c0-25.6 17.067-42.667 42.667-42.667h938.666c25.6 0 42.667 17.067 42.667 42.667v213.333c0 25.6-17.067 42.667-42.667 42.667m-896-85.333h853.334v-128H85.333zm512 256H426.667C401.067 554.667 384 537.6 384 512s17.067-42.667 42.667-42.667h170.666C622.933 469.333 640 486.4 640 512s-17.067 42.667-42.667 42.667" fill="currentColor"/></svg>