<svg xmlns="http://www.w3.org/2000/svg" width="32" height="32" viewBox="0 0 1024 1024"><path d="M512 42.688a468.42 468.42 0 0 0-331.883 137.43A468.42 468.42 0 0 0 42.688 512a468.42 468.42 0 0 0 137.43 331.883A468.42 468.42 0 0 0 512 981.312a468.42 468.42 0 0 0 331.883-137.43A468.42 468.42 0 0 0 981.312 512a468.42 468.42 0 0 0-137.43-331.883A468.42 468.42 0 0 0 512 42.688m0 170.624A42.667 42.667 0 0 1 554.688 256v341.312A42.667 42.667 0 0 1 512 640a42.667 42.667 0 0 1-42.688-42.688V256A42.667 42.667 0 0 1 512 213.312m0 469.376a53.29 53.29 0 1 1 .021 106.603A53.29 53.29 0 0 1 512 682.667z" fill="currentColor"/></svg>