<svg xmlns="http://www.w3.org/2000/svg" width="32" height="32" viewBox="0 0 1024 1024"><path d="m223.334 502.548 19.989-31.764a330 330 0 0 0-19.989 31.764M788.44 473.58l15.616 24.8a333 333 0 0 0-15.616-24.8" fill="currentColor"/><path d="M844.012 157.01H192.42c-56.556 0-102.4 45.855-102.4 102.4v576.85c0 56.545 45.844 102.4 102.4 102.4h651.592c56.545 0 102.4-45.855 102.4-102.4V259.41c0-56.545-45.855-102.4-102.4-102.4m30.72 679.25c0 16.937-13.784 30.72-30.72 30.72H192.42c-16.937 0-30.72-13.783-30.72-30.72V259.41c0-16.937 13.783-30.72 30.72-30.72h651.592c16.936 0 30.72 13.783 30.72 30.72z" fill="currentColor"/><path d="M825.416 415.519a35.84 35.84 0 0 1-35.84 35.84h-542.72a35.84 35.84 0 0 1-35.84-35.84c0-19.804 16.036-35.84 35.84-35.84h542.72a35.84 35.84 0 0 1 35.84 35.84m-500.48-163.01a35.84 35.84 0 1 1-71.68 0v-133.12a35.84 35.84 0 1 1 71.68 0zm458.24 0a35.84 35.84 0 1 1-71.68 0v-133.12a35.84 35.84 0 1 1 71.68 0z" fill="currentColor"/></svg>