<svg xmlns="http://www.w3.org/2000/svg" width="32" height="32" viewBox="0 0 48 48"><path d="M24 2A21.96 21.96 0 0 0 8.443 8.443 21.96 21.96 0 0 0 2 24a21.96 21.96 0 0 0 6.443 15.557A21.96 21.96 0 0 0 24 46a21.96 21.96 0 0 0 15.557-6.443A21.96 21.96 0 0 0 46 24a21.96 21.96 0 0 0-6.443-15.557A21.96 21.96 0 0 0 24 2m0 4c4.982 0 9.469 2.012 12.729 5.271A17.92 17.92 0 0 1 42 24c0 4.982-2.012 9.469-5.271 12.729A17.92 17.92 0 0 1 24 42a17.92 17.92 0 0 1-12.729-5.271A17.92 17.92 0 0 1 6 24c0-4.982 2.012-9.469 5.271-12.729A17.92 17.92 0 0 1 24 6" fill="currentColor"/><path d="M32.586 16.586 22 27.172l-4.586-4.586a2 2 0 0 0-2.828 0 2 2 0 0 0 0 2.828l6 6a2 2 0 0 0 2.828 0l12-12a2 2 0 0 0 0-2.828 2 2 0 0 0-2.828 0" fill="currentColor"/></svg>