<svg xmlns="http://www.w3.org/2000/svg" width="32" height="32" viewBox="0 0 1024 1024"><path d="M512 42.667a468.44 468.44 0 0 0-331.883 137.45A468.44 468.44 0 0 0 42.667 512a468.44 468.44 0 0 0 137.45 331.883A468.44 468.44 0 0 0 512 981.333a468.44 468.44 0 0 0 331.883-137.45A468.44 468.44 0 0 0 981.333 512a468.44 468.44 0 0 0-137.45-331.883A468.44 468.44 0 0 0 512 42.667M512 128c106.283 0 202.005 42.923 271.552 112.448A382.25 382.25 0 0 1 896 512c0 106.283-42.923 202.005-112.448 271.552A382.25 382.25 0 0 1 512 896a382.25 382.25 0 0 1-271.552-112.448A382.25 382.25 0 0 1 128 512c0-106.283 42.923-202.005 112.448-271.552A382.27 382.27 0 0 1 512 128" fill="currentColor"/><path d="M695.168 353.835 469.333 579.669 371.5 481.835a42.667 42.667 0 0 0-60.331 0 42.667 42.667 0 0 0 0 60.33l128 128a42.667 42.667 0 0 0 60.33 0l256-256a42.667 42.667 0 0 0 0-60.33 42.667 42.667 0 0 0-60.33 0" fill="currentColor"/></svg>