<svg xmlns="http://www.w3.org/2000/svg" width="32" height="32" viewBox="0 0 1024 1024"><path d="M512 42.688a468.42 468.42 0 0 0-331.883 137.43A468.42 468.42 0 0 0 42.688 512a468.42 468.42 0 0 0 137.43 331.883A468.42 468.42 0 0 0 512 981.312a468.42 468.42 0 0 0 331.883-137.43A468.42 468.42 0 0 0 981.312 512a468.42 468.42 0 0 0-137.43-331.883A468.42 468.42 0 0 0 512 42.688m206.677 299.179a42.67 42.67 0 0 1 36.822 11.946 42.667 42.667 0 0 1 0 60.374l-256 256a42.667 42.667 0 0 1-60.31 0l-128-128a42.667 42.667 0 0 1 0-60.374 42.667 42.667 0 0 1 60.31 0l97.834 97.878 225.878-225.878a42.67 42.67 0 0 1 23.488-11.946z" fill="currentColor"/></svg>