<svg xmlns="http://www.w3.org/2000/svg" width="32" height="32" viewBox="0 0 48 48"><path d="M24 2.001A21.96 21.96 0 0 0 8.443 8.443 21.96 21.96 0 0 0 2.001 24a21.96 21.96 0 0 0 6.442 15.557A21.96 21.96 0 0 0 24 45.999a21.96 21.96 0 0 0 15.557-6.442A21.96 21.96 0 0 0 45.999 24a21.96 21.96 0 0 0-6.442-15.557A21.96 21.96 0 0 0 24 2.001m9.688 14.024a2 2 0 0 1 1.726.56 2 2 0 0 1 0 2.83l-12 12a2 2 0 0 1-2.827 0l-6-6a2 2 0 0 1 0-2.83 2 2 0 0 1 2.827 0L22 27.173l10.588-10.588a2 2 0 0 1 1.101-.56" fill="currentColor"/></svg>