<svg xmlns="http://www.w3.org/2000/svg" width="32" height="32" viewBox="0 0 48 48"><path d="M24 2.001C11.873 2.001 2.001 11.873 2.001 24S11.873 45.999 24 45.999 45.999 36.127 45.999 24 36.127 2.001 24 2.001m-5.657 14.344a2 2 0 0 1 1.415.586L24 21.173l4.242-4.242a2 2 0 0 1 1.415-.586 2 2 0 0 1 1.412.586 2 2 0 0 1 0 2.827L26.827 24l4.242 4.242a2 2 0 0 1 0 2.827 2 2 0 0 1-2.827 0L24 26.827l-4.242 4.242a2 2 0 0 1-2.827 0 2 2 0 0 1 0-2.827L21.173 24l-4.242-4.242a2 2 0 0 1 0-2.827 2 2 0 0 1 1.412-.586" fill="currentColor"/></svg>