<svg xmlns="http://www.w3.org/2000/svg" width="32" height="32" viewBox="0 0 1024 1024"><path d="M512 42.667C253.29 42.667 42.667 253.29 42.667 512S253.29 981.333 512 981.333 981.333 770.71 981.333 512 770.71 42.667 512 42.667M512 128c212.587 0 384 171.413 384 384S724.587 896 512 896 128 724.587 128 512s171.413-384 384-384" fill="currentColor"/><path d="M632.661 348.672a42.67 42.67 0 0 0-30.165 12.501L361.173 602.496a42.667 42.667 0 0 0 0 60.33 42.667 42.667 0 0 0 60.331 0l241.323-241.322a42.667 42.667 0 0 0 0-60.33 42.67 42.67 0 0 0-30.166-12.502" fill="currentColor"/><path d="M391.339 348.672a42.67 42.67 0 0 0-30.166 12.501 42.667 42.667 0 0 0 0 60.331l241.323 241.323a42.667 42.667 0 0 0 60.33 0 42.667 42.667 0 0 0 0-60.331L421.505 361.173a42.67 42.67 0 0 0-30.165-12.501" fill="currentColor"/></svg>