<svg xmlns="http://www.w3.org/2000/svg" width="32" height="32" viewBox="0 0 48 48"><path d="M24 2C11.873 2 2 11.873 2 24s9.873 22 22 22 22-9.873 22-22S36.127 2 24 2m0 4c9.965 0 18 8.035 18 18s-8.035 18-18 18S6 33.965 6 24 14.035 6 24 6" fill="currentColor"/><path d="M29.656 16.344a2 2 0 0 0-1.414.586L16.93 28.242a2 2 0 0 0 0 2.828 2 2 0 0 0 2.828 0L31.07 19.758a2 2 0 0 0 0-2.828 2 2 0 0 0-1.414-.586" fill="currentColor"/><path d="M18.344 16.344a2 2 0 0 0-1.414.586 2 2 0 0 0 0 2.828L28.242 31.07a2 2 0 0 0 2.828 0 2 2 0 0 0 0-2.828L19.758 16.93a2 2 0 0 0-1.414-.586" fill="currentColor"/></svg>