<svg xmlns="http://www.w3.org/2000/svg" width="32" height="32" viewBox="0 0 1024 1024"><path d="M170.667 128a42.67 42.67 0 0 0-30.166 12.501 42.667 42.667 0 0 0 0 60.331l682.667 682.667a42.667 42.667 0 0 0 60.33 0 42.667 42.667 0 0 0 0-60.331L200.833 140.501A42.67 42.67 0 0 0 170.667 128" fill="currentColor"/><path d="M823.168 140.501 140.501 823.168a42.667 42.667 0 0 0 0 60.33 42.667 42.667 0 0 0 60.331 0l682.667-682.666a42.667 42.667 0 0 0 0-60.33 42.667 42.667 0 0 0-60.331 0" fill="currentColor"/></svg>