<svg xmlns="http://www.w3.org/2000/svg" width="32" height="32" viewBox="0 0 1024 1024"><path d="M512 42.688C253.29 42.688 42.688 253.291 42.688 512S253.291 981.312 512 981.312 981.312 770.709 981.312 512 770.709 42.688 512 42.688M391.317 348.693a42.67 42.67 0 0 1 30.187 12.502L512 451.69l90.496-90.496a42.67 42.67 0 0 1 30.187-12.502 42.67 42.67 0 0 1 30.122 12.502 42.667 42.667 0 0 1 0 60.309L572.31 512l90.496 90.496a42.667 42.667 0 0 1 0 60.31 42.667 42.667 0 0 1-60.309 0L512 572.308l-90.496 90.496a42.667 42.667 0 0 1-60.31 0 42.667 42.667 0 0 1 0-60.309L451.692 512l-90.496-90.496a42.667 42.667 0 0 1 0-60.31 42.67 42.67 0 0 1 30.122-12.5" fill="currentColor"/></svg>