<svg xmlns="http://www.w3.org/2000/svg" width="32" height="32" viewBox="0 0 1024 1024"><path d="M298.667 256a42.67 42.67 0 0 0-30.166 12.501 42.667 42.667 0 0 0 0 60.331l426.667 426.667a42.667 42.667 0 0 0 60.33 0 42.667 42.667 0 0 0 0-60.331L328.833 268.501A42.67 42.67 0 0 0 298.667 256" fill="currentColor"/><path d="M695.168 268.501 268.501 695.168a42.667 42.667 0 0 0 0 60.33 42.667 42.667 0 0 0 60.331 0l426.667-426.666a42.667 42.667 0 0 0 0-60.33 42.667 42.667 0 0 0-60.331 0" fill="currentColor"/></svg>