<svg xmlns="http://www.w3.org/2000/svg" width="32" height="32" viewBox="0 0 1024 1024"><path d="M994.074 388.637c-6.946-26.062-29.53-45.156-55.57-48.634L690.152 296.58 578.99 70.822c-10.414-24.317-36.465-39.944-62.527-39.944-26.051 0-50.358 15.627-62.516 39.944L342.797 296.58 94.453 341.747c-27.796 3.468-48.634 22.573-57.315 48.624-6.935 24.307 0 53.836 19.105 72.941l178.89 166.732-46.9 243.14c-5.202 26.051 6.946 53.847 27.796 69.462 20.838 15.638 50.368 17.371 72.93 5.223l227.514-112.906 225.79 112.906c10.425 5.202 22.573 8.68 32.998 8.68 15.626 0 29.519-5.201 39.933-13.903 20.839-15.615 32.997-41.688 27.796-69.462l-45.156-243.14 178.88-168.466c19.093-19.105 26.05-46.89 17.36-72.94M716.695 603.532l50.732 273.162-250.846-125.428L263.84 876.694l52.702-273.173L113.645 414.41l279.69-50.86 123.128-250.098 123.288 250.386 279.574 48.88z" fill="currentColor"/></svg>