<svg xmlns="http://www.w3.org/2000/svg" width="32" height="32" viewBox="0 0 1024 1024"><path d="M272 405.36c-33.137 0-60 27.284-60 60.957 0 33.677 26.863 60.964 60 60.964 33.134 0 59.997-27.287 59.997-60.964 0-33.673-26.863-60.959-59.996-60.959zm240.003 0c-33.138 0-60.002 27.284-60.002 60.957 0 33.677 26.869 60.964 60.002 60.964 33.132 0 59.996-27.287 59.996-60.964 0-33.673-26.864-60.959-59.996-60.959zm240 0c-33.137 0-60 27.284-60 60.957 0 33.677 26.863 60.964 60 60.964 33.134 0 59.997-27.287 59.997-60.964 0-33.673-26.863-60.959-59.996-60.959zM151.999 100.57C85.732 100.573 32 155.165 32 222.494v457.179c0 67.335 54.932 129.396 122.725 129.396h182.87c31.876 33.258 150.323 151.63 150.323 151.63 13.3 13.307 34.389 13 47.295-.814 0 0 83.98-91.047 146.915-150.816h187.147c67.793 0 122.725-62.067 122.725-129.396V222.494c0-67.33-53.726-121.922-119.998-121.922H151.998zm717.277 648.085H685.23c-22.294 0-42.335 22.453-42.335 22.453L536.01 881.268c-13.259 13.664-34.88 13.24-47.399 0L384.473 771.108s-24.61-22.453-45.705-22.453H154.725c-33.898 0-62.723-35.322-62.723-68.984V222.494c0-33.672 26.863-60.965 59.996-60.965h720.004c33.133 0 60 27.293 60 60.965v457.178c0 33.662-28.83 68.984-62.727 68.984z" fill="currentColor"/></svg>