<svg xmlns="http://www.w3.org/2000/svg" width="32" height="32" viewBox="0 0 1024 1024"><path d="M656.959 83.951a47.45 45.862 0 0 1 32.519 12.46l203.005 184.672a47.45 45.862 0 0 1 14.931 33.388v411.553a94.9 91.725 0 0 1-94.9 91.725v30.575a94.9 91.725 0 0 1-94.899 91.725h-506.13a94.9 91.725 0 0 1-94.9-91.725V282.688a94.9 91.725 0 0 1 94.9-91.725h31.633v-15.287a94.9 91.725 0 0 1 94.9-91.725zm-413.84 168.162h-15.817a47.45 45.862 0 0 0-47.37 43.172l-.08 2.69v535.062a47.45 45.862 0 0 0 44.666 45.786l2.784.076h474.497a47.45 45.862 0 0 0 47.37-43.172l.08-2.69v-15.288H338.018a94.9 91.725 0 0 1-94.9-91.725zm363.78-107.012H353.834a47.45 45.862 0 0 0-47.37 43.172l-.08 2.69v519.774a47.45 45.862 0 0 0 44.667 45.786l2.783.076h442.864a47.45 45.862 0 0 0 47.37-43.171l.08-2.691V359.125h-142.35a94.9 91.725 0 0 1-94.899-91.724zm94.9 412.761a31.633 30.575 0 0 1 0 61.15H448.734a31.633 30.575 0 0 1 0-61.15zm0-122.3a31.633 30.575 0 0 1 0 61.15H448.734a31.633 30.575 0 0 1 0-61.15zm-31.633-273.095v89.646a47.45 45.862 0 0 0 44.666 45.786l2.783.076h97.715z" fill="currentColor"/></svg>