<svg xmlns="http://www.w3.org/2000/svg" width="32" height="32" viewBox="0 0 1141 1024"><path d="M1021.817 138.119 998.96 310.832c-99.723-15.754-198.9-30.339-298.63-21.879-91.276 7.75-179.773 25.44-244.375 97.227C337.36 517.96 401.889 699.598 581.06 732.012c111.557 20.179 224.45 9.316 336.333-6.422-4.31 88.888-4.558 75.34-8.44 162.242-.848 19.018 3.382 11.552-127.789 25.23-139.138 7.118-278.175 8.845-411.515-41.81-126.36-48-225.865-124.336-246.022-265.325-20.753-145.139 38.58-262.297 152.192-352.681 170.5-135.648 468.876-183.371 745.997-115.127Z" fill="currentColor"/></svg>