<svg xmlns="http://www.w3.org/2000/svg" width="32" height="32" viewBox="0 0 1024 1024"><path d="M602.667 80a409.2 409.2 0 0 1 54.4 204.8C657.067 512 473.6 696 246.933 696c-30.933 0-60.8-3.733-90.133-10.133C224 837.867 375.467 944 552 944c238.933 0 432-194.133 432-433.6C985.067 288.533 817.6 105.067 602.667 80" fill="currentColor"/><path d="m345.6 562.133-24.533-73.066L248 464.533 321.067 440l24.533-73.067L370.133 440l73.067 24.533-73.067 24.534zM166.933 347.2l-31.466-94.933L40 220.8l94.933-31.467 32-95.466L198.4 188.8l94.933 31.467-94.933 31.466z" fill="currentColor"/></svg>