<svg xmlns="http://www.w3.org/2000/svg" width="32" height="32" viewBox="0 0 1024 1024"><path d="M192 170.667a42.667 42.667 0 0 0-42.667 42.666v725.334A42.667 42.667 0 0 0 192 981.333h640a42.667 42.667 0 0 0 42.667-42.666V213.333A42.667 42.667 0 0 0 832 170.667zM234.667 256h554.666v640H234.667z" fill="currentColor"/><path d="M426.667 384A42.667 42.667 0 0 0 384 426.667V704a42.667 42.667 0 0 0 42.667 42.667A42.667 42.667 0 0 0 469.333 704V426.667A42.667 42.667 0 0 0 426.667 384m170.666 0a42.667 42.667 0 0 0-42.666 42.667V704a42.667 42.667 0 0 0 42.666 42.667A42.667 42.667 0 0 0 640 704V426.667A42.667 42.667 0 0 0 597.333 384m-512-213.333a42.667 42.667 0 0 0-42.666 42.666A42.667 42.667 0 0 0 85.333 256h853.334a42.667 42.667 0 0 0 42.666-42.667 42.667 42.667 0 0 0-42.666-42.666z" fill="currentColor"/><path d="M411.52 42.667a42.67 42.67 0 0 0-37.44 22.186l-70.165 128A42.667 42.667 0 0 0 341.333 256h341.334a42.667 42.667 0 0 0 37.589-62.87l-68.757-128a42.67 42.67 0 0 0-37.59-22.463zM436.757 128h151.659l22.912 42.667H413.376z" fill="currentColor"/></svg>