<svg xmlns="http://www.w3.org/2000/svg" width="32" height="32" viewBox="0 0 1024 1024"><path d="M234.667 42.667c-46.614 0-85.334 38.72-85.334 85.333v768c0 46.613 38.72 85.333 85.334 85.333H832c46.613 0 85.333-38.72 85.333-85.333V128c0-46.613-38.72-85.333-85.333-85.333zm0 85.333H832v768H234.667z" fill="currentColor"/><path d="M362.667 597.333A42.667 42.667 0 0 0 320 640a42.667 42.667 0 0 0 42.667 42.667h298.666A42.667 42.667 0 0 0 704 640a42.667 42.667 0 0 0-42.667-42.667zm0 128A42.667 42.667 0 0 0 320 768a42.667 42.667 0 0 0 42.667 42.667H512A42.667 42.667 0 0 0 554.667 768 42.667 42.667 0 0 0 512 725.333zm0-512A42.667 42.667 0 0 0 320 256v213.333A42.667 42.667 0 0 0 362.667 512h298.666A42.667 42.667 0 0 0 704 469.333V256a42.667 42.667 0 0 0-42.667-42.667zm42.666 85.334h213.334v128H405.333z" fill="currentColor"/></svg>