<svg xmlns="http://www.w3.org/2000/svg" width="32" height="32" viewBox="0 0 1024 1024"><path d="M115.086 921.927a58 58 0 0 1-15.516-40.76l2.588-159.93a58.04 58.04 0 0 1 15.517-40.775 49.85 49.85 0 0 1 37.802-16.725l204.8-.455 74.994 83.186a101.817 101.817 0 0 0 151.197 0l75.605-82.731h208.81a50.33 50.33 0 0 1 37.817 16.725 57.59 57.59 0 0 1 15.816 40.775l-2.589 159.488a58.55 58.55 0 0 1-15.516 40.775 49.78 49.78 0 0 1-37.803 16.726l-715.676.455a49.86 49.86 0 0 1-37.846-16.754m719.502-83.74a24.263 24.263 0 1 0 24.178-23.453 23.893 23.893 0 0 0-24.178 23.453m-91.235 0a24.249 24.249 0 1 0 24.178-23.453 23.88 23.88 0 0 0-24.178 23.453M485.93 722.56 234.88 467.228a32.06 32.06 0 0 1-7.893-38.997 33.48 33.48 0 0 1 33.095-21.774h147.584V121.003a36.21 36.21 0 0 1 35.826-35.67h137.642a36.21 36.21 0 0 1 35.826 35.67v285.326h145.067a33.69 33.69 0 0 1 33.251 21.76 31.86 31.86 0 0 1-7.907 38.997L536.334 722.56a35.27 35.27 0 0 1-50.39 0z" fill="currentColor"/></svg>