<svg xmlns="http://www.w3.org/2000/svg" width="32" height="32" viewBox="0 0 1024 1024"><path d="M896 469.333A42.667 42.667 0 0 0 853.333 512v341.333H170.667V512.171A42.667 42.667 0 0 0 128 469.504a42.667 42.667 0 0 0-42.667 42.667V896A42.667 42.667 0 0 0 128 938.667h768A42.667 42.667 0 0 0 938.667 896V512A42.667 42.667 0 0 0 896 469.333" fill="currentColor"/><path d="M320 448a42.67 42.67 0 0 0-30.165 12.501 42.667 42.667 0 0 0 0 60.331l192 192a42.667 42.667 0 0 0 60.33 0l192-192a42.667 42.667 0 0 0 0-60.33 42.667 42.667 0 0 0-60.33 0L512 622.335 350.165 460.501A42.67 42.67 0 0 0 320 448" fill="currentColor"/><path d="M511.83 85.333A42.667 42.667 0 0 0 469.162 128v554.667a42.667 42.667 0 0 0 42.666 42.666 42.667 42.667 0 0 0 42.667-42.666V128a42.667 42.667 0 0 0-42.667-42.667" fill="currentColor"/></svg>