<svg xmlns="http://www.w3.org/2000/svg" width="32" height="32" viewBox="0 0 48 48"><path d="M42 22a2 2 0 0 0-2 2v16H8V24.008a2 2 0 0 0-2-2 2 2 0 0 0-2 2V42a2 2 0 0 0 2 2h36a2 2 0 0 0 2-2V24a2 2 0 0 0-2-2" fill="currentColor"/><path d="M15 21a2 2 0 0 0-1.414.586 2 2 0 0 0 0 2.828l9 9a2 2 0 0 0 2.828 0l9-9a2 2 0 0 0 0-2.828 2 2 0 0 0-2.828 0L24 29.172l-7.586-7.586A2 2 0 0 0 15 21" fill="currentColor"/><path d="M23.992 4a2 2 0 0 0-2 2v26a2 2 0 0 0 2 2 2 2 0 0 0 2-2V6a2 2 0 0 0-2-2" fill="currentColor"/></svg>