<svg xmlns="http://www.w3.org/2000/svg" width="32" height="32" viewBox="0 0 1024 1024"><path d="M149.333 853.333A42.667 42.667 0 0 0 106.667 896a42.667 42.667 0 0 0 42.666 42.667h768A42.667 42.667 0 0 0 960 896a42.667 42.667 0 0 0-42.667-42.667zM676.16 85.333a42.67 42.67 0 0 0-30.208 12.502L204.459 539.86A42.67 42.67 0 0 0 192 570.07v155.264A42.667 42.667 0 0 0 234.667 768H390.74a42.67 42.67 0 0 0 30.208-12.501L862.165 314.09a42.667 42.667 0 0 0 0-60.331L706.325 97.813a42.67 42.67 0 0 0-30.165-12.48m0 103.04 95.51 95.552-398.593 398.742h-95.744v-94.955z" fill="currentColor"/></svg>