<svg xmlns="http://www.w3.org/2000/svg" width="32" height="32" viewBox="0 0 1024 1024"><path d="M213.333 42.667C166.72 42.667 128 81.387 128 128v768c0 46.613 38.72 85.333 85.333 85.333h597.334C857.28 981.333 896 942.613 896 896V298.667A42.667 42.667 0 0 0 853.333 256H682.667V85.333A42.667 42.667 0 0 0 640 42.667zm0 85.333h384v170.667A42.667 42.667 0 0 0 640 341.333h170.667V896H213.333z" fill="currentColor"/><path d="M640 42.667a42.67 42.67 0 0 0-30.165 12.501 42.667 42.667 0 0 0 0 60.33l213.333 213.334a42.667 42.667 0 0 0 60.33 0 42.667 42.667 0 0 0 0-60.33L670.166 55.167A42.67 42.67 0 0 0 640 42.667m-94.165 375.168L332.5 631.168A42.67 42.67 0 0 0 320 661.333v85.334a42.667 42.667 0 0 0 42.667 42.666H448a42.67 42.67 0 0 0 30.165-12.501L691.5 563.499a42.667 42.667 0 0 0 0-60.331l-85.334-85.333a42.667 42.667 0 0 0-60.33 0M576 508.33l25.003 25.002L430.336 704h-25.003v-25.003z" fill="currentColor"/></svg>