<svg xmlns="http://www.w3.org/2000/svg" width="32" height="32" viewBox="0 0 1024 1024"><path d="M834.125 432.5H189.969c-11.906 0-22.875 6.469-28.688 16.875L36.125 673.906C33.406 678.781 32 684.313 32 689.938v269.156C32 977.28 46.719 992 64.906 992h894.282c18.187 0 32.906-14.719 32.906-32.906V689.937c0-5.625-1.407-11.062-4.125-16.03L862.812 449.374C857 438.969 846.033 432.5 834.126 432.5M663.313 684.125c-15.47 0-28.875 10.781-32.157 25.969C619.25 764.937 570.406 806 511.906 806s-107.343-41.062-119.25-95.906C389.375 695 375.97 684.125 360.5 684.125H143.563c-24.75 0-40.594-26.25-29.157-48.187L191 489.875c5.719-10.875 16.875-17.625 29.156-17.625h583.5a32.95 32.95 0 0 1 29.157 17.625l76.593 146.063c11.438 21.937-4.406 48.187-29.156 48.187zm137.343-455.719a146 146 0 0 0-3-5.156c-9.187-15.562-29.156-20.812-44.812-11.812l-112.875 65.25c-15.938 9.187-21.282 29.625-11.813 45.375.844 1.312 1.594 2.718 2.344 4.125 8.906 15.937 29.25 21.375 45 12.187l113.063-65.156c15.656-9.094 21-29.063 12.093-44.813m-416.718 48.375-112.875-65.156c-15.657-9-35.625-3.75-44.813 11.813-1.031 1.687-1.969 3.375-3 5.156-8.906 15.75-3.562 35.719 12.094 44.812l112.875 65.156c15.844 9.094 36.187 3.75 45-12.28.75-1.407 1.594-2.72 2.344-4.126 9.562-15.75 4.218-36.187-11.625-45.375M512 256.344h2.344c18.281.281 33.281-14.531 33.281-32.906V93.125c0-18.094-14.625-32.719-32.625-32.906h-6c-18 .187-32.625 14.906-32.625 32.906v130.313c0 18.28 14.906 33.187 33.281 32.906z" fill="currentColor"/></svg>