<svg xmlns="http://www.w3.org/2000/svg" width="32" height="32" viewBox="0 0 1117 1024"><path d="M1108.945 470.11c-9.309-16.292-193.163-377.02-549.236-377.02S19.782 453.819 10.473 470.11c-13.964 25.6-13.964 58.18 0 83.78 9.309 16.292 193.163 377.02 549.236 377.02s539.927-360.728 549.236-377.02c11.637-25.6 11.637-58.18 0-83.78M559.71 837.817C257.164 837.818 94.255 512 94.255 512s162.909-325.818 465.454-325.818S1025.164 512 1025.164 512s-162.91 325.818-465.455 325.818" fill="currentColor"/><path d="M559.71 325.818c-102.4 0-186.183 83.782-186.183 186.182S457.31 698.182 559.71 698.182 745.891 614.4 745.891 512s-83.782-186.182-186.182-186.182m0 279.273c-51.2 0-93.092-41.891-93.092-93.091s41.891-93.09 93.091-93.09S652.8 460.8 652.8 512s-41.89 93.09-93.09 93.09" fill="currentColor"/></svg>