<svg xmlns="http://www.w3.org/2000/svg" width="32" height="32" viewBox="0 0 48 48"><path d="M10 2C7.815 2 6 3.815 6 6v36c0 2.185 1.815 4 4 4h28c2.185 0 4-1.815 4-4V14a2 2 0 0 0-2-2h-8V4a2 2 0 0 0-2-2Zm0 4h18v8a2 2 0 0 0 2 2h8v26H10Z" fill="currentColor"/><path d="M30 2a2 2 0 0 0-1.414.586 2 2 0 0 0 0 2.828l10 10a2 2 0 0 0 2.828 0 2 2 0 0 0 0-2.828l-10-10A2 2 0 0 0 30 2m-4.414 17.586-10 10A2 2 0 0 0 15 31v4a2 2 0 0 0 2 2h4a2 2 0 0 0 1.414-.586l10-10a2 2 0 0 0 0-2.828l-4-4a2 2 0 0 0-2.828 0M27 23.828 28.172 25l-8 8H19v-1.172z" fill="currentColor"/></svg>