<svg xmlns="http://www.w3.org/2000/svg" width="32" height="32" viewBox="0 0 1024 1024"><path d="M897.919 513.777H614.053c.375 3.532.567 7.085.567 10.703 0 56.437-45.733 102.181-102.16 102.181a102.17 102.17 0 0 1-101.614-112.884H127.002a53.515 53.515 0 0 0-53.515 53.515v318.414a53.515 53.515 0 0 0 53.515 53.515h770.906a53.515 53.515 0 0 0 53.515-53.515V567.292a53.515 53.515 0 0 0-53.504-53.515M876.512 864.3H148.408V588.698H347.42c25.751 66.016 90.012 112.884 165.04 112.884 75.007 0 139.268-46.868 165.04-112.884h199.012zM220.803 513.488V168.316h583.314v345.172h74.921V146.91a53.515 53.515 0 0 0-53.515-53.516H199.397a53.515 53.515 0 0 0-53.515 53.516v366.578z" fill="currentColor"/><path d="M662.302 314.636a37.46 37.46 0 0 1-37.46 37.461H400.079a37.46 37.46 0 0 1 0-74.921h224.763c20.678 0 37.46 16.793 37.46 37.46" fill="currentColor"/></svg>