<svg xmlns="http://www.w3.org/2000/svg" width="32" height="32" viewBox="0 0 1024 1024"><path d="M390.997 46.784a42.67 42.67 0 0 0-24.362 38.55c0 57.493-20.416 155.967-39.808 192.426-25.536 48.021-24.534 41.963-58.454 79.957-31.53 35.328-50.624 51.222-80.128 99.2-35.2 57.216-38.912 123.52-38.912 170.667 0 201.664 165.547 353.75 362.667 353.75 198.208 0 362.667-158.934 362.667-360.577 0-45.312-2.944-99.925-28.758-177.472-24.512-73.664-32.512-89.962-58.325-135.274a42.667 42.667 0 0 0-79.424 16.064 149.1 149.1 0 0 1-21.547 62.592c-1.92-5.803-2.858-9.878-5.034-16.043-16.342-46.4-39.232-101.483-69.974-146.496-58.154-85.227-135.594-139.392-175.317-171.84a42.67 42.67 0 0 0-45.29-5.504m52.374 121.877c33.856 28.566 68.693 61.014 97.749 103.595 23.19 33.941 45.056 84.373 59.947 126.72 7.466 21.141 13.333 40.384 17.216 54.613 1.941 7.104 3.413 13.014 4.266 16.918s.619 9.685.619.576a42.667 42.667 0 0 0 68.672 33.834c4.245-3.264 29.184-20.309 51.2-48 3.37-4.245 6.123-10.88 9.408-15.744 3.883 10.944 6.656 11.52 12.501 29.078 22.827 68.629 24.384 108.074 24.384 150.506C789.333 776.47 665.131 896 512 896c-154.24 0-277.333-112.704-277.333-268.416 0-40.597 6.336-93.59 26.24-125.952 25.6-41.6 36.778-48.597 71.125-87.083 32-35.84 42.923-45.525 70.144-96.725 21.803-41.003 33.707-95.232 41.195-149.163" fill="currentColor"/></svg>