<svg xmlns="http://www.w3.org/2000/svg" width="32" height="32" viewBox="0 0 1024 1024"><path d="M149.333 85.333C102.72 85.333 64 124.053 64 170.667v682.666c0 46.614 38.72 85.334 85.333 85.334h725.334c46.613 0 85.333-38.72 85.333-85.334V298.667c0-46.614-38.72-85.334-85.333-85.334H531.989l-93.866-112.661a42.67 42.67 0 0 0-32.79-15.339zm0 85.334h236.011l93.867 112.661A42.67 42.67 0 0 0 512 298.667h362.667v554.666H149.333z" fill="currentColor"/><path d="M106.667 426.667V512h810.666v-85.333z" fill="currentColor"/><path d="M106.667 298.667A42.667 42.667 0 0 0 64 341.333v256A42.667 42.667 0 0 0 106.667 640a42.667 42.667 0 0 0 42.666-42.667v-256a42.667 42.667 0 0 0-42.666-42.666m810.666 0a42.667 42.667 0 0 0-42.666 42.666v256A42.667 42.667 0 0 0 917.333 640 42.667 42.667 0 0 0 960 597.333v-256a42.667 42.667 0 0 0-42.667-42.666" fill="currentColor"/></svg>