<svg xmlns="http://www.w3.org/2000/svg" width="32" height="32" viewBox="0 0 1024 1024"><path d="M128 106.667c-46.613 0-85.333 38.72-85.333 85.333v682.667a42.667 42.667 0 0 0 84.053 10.325l98.581-394.325h617.366A42.667 42.667 0 0 0 885.333 448V320c0-46.613-38.72-85.333-85.333-85.333H531.99l-93.867-112.662a42.67 42.67 0 0 0-32.79-15.338zM128 192h257.344l93.867 112.661A42.67 42.67 0 0 0 512 320h288v85.333H192a42.67 42.67 0 0 0-41.387 32.342L128 528.17z" fill="currentColor"/><path d="M188.01 405.333a42.67 42.67 0 0 0-41.514 32.662L43.84 864.66a42.667 42.667 0 0 0 41.493 52.672h768a42.67 42.67 0 0 0 41.814-34.282l85.333-426.667a42.667 42.667 0 0 0-41.813-51.05zm33.622 85.334h664.981L818.347 832H139.52z" fill="currentColor"/></svg>