<svg xmlns="http://www.w3.org/2000/svg" width="32" height="32" viewBox="0 0 1024 1024"><path d="M149.333 85.333C102.72 85.333 64 124.053 64 170.667v682.666c0 46.614 38.72 85.334 85.333 85.334h725.334c46.613 0 85.333-38.72 85.333-85.334V298.667c0-46.614-38.72-85.334-85.333-85.334H531.989l-93.866-112.661a42.67 42.67 0 0 0-32.79-15.339zm0 85.334h236.011l93.867 112.661A42.67 42.67 0 0 0 512 298.667h362.667v554.666H149.333z" fill="currentColor"/><path d="M384 533.333A42.667 42.667 0 0 0 341.333 576 42.667 42.667 0 0 0 384 618.667h256A42.667 42.667 0 0 0 682.667 576 42.667 42.667 0 0 0 640 533.333z" fill="currentColor"/><path d="M512 405.333A42.667 42.667 0 0 0 469.333 448v256A42.667 42.667 0 0 0 512 746.667 42.667 42.667 0 0 0 554.667 704V448A42.667 42.667 0 0 0 512 405.333" fill="currentColor"/></svg>