<svg xmlns="http://www.w3.org/2000/svg" width="32" height="32" viewBox="0 0 48 48"><path d="M7 4C4.815 4 3 5.815 3 8v32c0 2.185 1.815 4 4 4h34c2.185 0 4-1.815 4-4V14c0-2.185-1.815-4-4-4H24.938l-4.4-5.281A2 2 0 0 0 19 4Zm0 4h11.063l4.4 5.281A2 2 0 0 0 24 14h17v26H7Z" fill="currentColor"/><path d="M5 20v4h38v-4z" fill="currentColor"/><path d="M5 14a2 2 0 0 0-2 2v12a2 2 0 0 0 2 2 2 2 0 0 0 2-2V16a2 2 0 0 0-2-2m38 0a2 2 0 0 0-2 2v12a2 2 0 0 0 2 2 2 2 0 0 0 2-2V16a2 2 0 0 0-2-2" fill="currentColor"/></svg>