<svg xmlns="http://www.w3.org/2000/svg" width="32" height="32" viewBox="0 0 1024 1024"><path d="M704 85.333A42.667 42.667 0 0 0 661.333 128 42.667 42.667 0 0 0 704 170.667h149.333V320A42.667 42.667 0 0 0 896 362.667 42.667 42.667 0 0 0 938.667 320V128A42.667 42.667 0 0 0 896 85.333zm192 576A42.667 42.667 0 0 0 853.333 704v149.333H704A42.667 42.667 0 0 0 661.333 896 42.667 42.667 0 0 0 704 938.667h192A42.667 42.667 0 0 0 938.667 896V704A42.667 42.667 0 0 0 896 661.333m-768 0A42.667 42.667 0 0 0 85.333 704v192A42.667 42.667 0 0 0 128 938.667h192A42.667 42.667 0 0 0 362.667 896 42.667 42.667 0 0 0 320 853.333H170.667V704A42.667 42.667 0 0 0 128 661.333m0-576A42.667 42.667 0 0 0 85.333 128v192A42.667 42.667 0 0 0 128 362.667 42.667 42.667 0 0 0 170.667 320V170.667H320A42.667 42.667 0 0 0 362.667 128 42.667 42.667 0 0 0 320 85.333z" fill="currentColor"/></svg>