<svg xmlns="http://www.w3.org/2000/svg" width="32" height="32" viewBox="0 0 8.467 8.467"><path d="M4.144.363a.5.5 0 0 0-.169.06L1.064 2.106a.52.52 0 0 0-.259.447v3.363a.52.52 0 0 0 .259.446l2.911 1.682a.52.52 0 0 0 .516 0L7.403 6.36a.52.52 0 0 0 .259-.446V2.552a.52.52 0 0 0-.259-.447L4.491.424a.52.52 0 0 0-.347-.061m-1.565 1.87h.73a2.5 2.5 0 0 0-.034.513v.936l.217-.056a17 17 0 0 0 1.067-.331q.247-.09.44-.168.133-.054.262-.119.133-.064.276-.148l.267.622-.578.238q-.217.084-.499.177-.281.094-.588.188-.3.09-.602.173l-.262.068v.914q0 .158.074.218.08.06.247.094.109.015.257.025a9 9 0 0 0 1.21-.04 6 6 0 0 0 .825-.128v.726a9 9 0 0 1-.544.049q-.305.024-.626.035-.317.015-.593.015-.237 0-.455-.015a4 4 0 0 1-.375-.04.9.9 0 0 1-.499-.242q-.177-.183-.178-.499V2.746a3 3 0 0 0-.02-.355 3 3 0 0 0-.02-.158" fill="currentColor"/></svg>