<svg xmlns="http://www.w3.org/2000/svg" width="32" height="32" viewBox="0 0 48 48"><path d="M22.645 2.797 6.386 15.804a2.17 2.17 0 0 0-.812 1.693v26.014a2.17 2.17 0 0 0 2.167 2.168H40.26a2.17 2.17 0 0 0 2.167-2.168V17.497a2.17 2.17 0 0 0-.812-1.693L25.354 2.797a2.17 2.17 0 0 0-2.709 0M24 7.266l14.09 11.273v22.804H9.91V18.541Z" fill="currentColor"/><path d="M18.58 27.252a2.17 2.17 0 0 0-2.167 2.168v14.091a2.17 2.17 0 0 0 2.167 2.168h10.84a2.17 2.17 0 0 0 2.167-2.168v-14.09a2.17 2.17 0 0 0-2.167-2.169zm2.168 4.336h6.504v9.755h-6.504z" fill="currentColor"/><path d="M7.741 41.343a2.17 2.17 0 0 0-2.167 2.168 2.17 2.17 0 0 0 2.167 2.168H40.26a2.17 2.17 0 0 0 2.167-2.168 2.17 2.17 0 0 0-2.167-2.168Z" fill="currentColor"/></svg>