<svg xmlns="http://www.w3.org/2000/svg" width="32" height="32" viewBox="0 0 48 48"><path d="M24 2A21.96 21.96 0 0 0 8.443 8.443 21.96 21.96 0 0 0 2 24a21.96 21.96 0 0 0 6.443 15.557A21.96 21.96 0 0 0 24 46a21.96 21.96 0 0 0 15.557-6.443A21.96 21.96 0 0 0 46 24a21.96 21.96 0 0 0-6.443-15.557A21.96 21.96 0 0 0 24 2m0 4c4.982 0 9.469 2.012 12.729 5.271A17.92 17.92 0 0 1 42 24c0 4.982-2.012 9.469-5.271 12.729A17.92 17.92 0 0 1 24 42a17.92 17.92 0 0 1-12.729-5.271A17.92 17.92 0 0 1 6 24c0-4.982 2.012-9.469 5.271-12.729A17.92 17.92 0 0 1 24 6" fill="currentColor"/><path fill-rule="evenodd" d="M24 11a2.5 2.5 0 1 1 0 5 2.5 2.5 0 0 1 0-5" clip-rule="evenodd" fill="currentColor"/><path d="M22.5 18a2 2 0 0 0-2 2 2 2 0 0 0 2 2v12a2 2 0 0 0 2 2 2 2 0 0 0 2-2V20a2 2 0 0 0-2-2h-1z" fill="currentColor"/><path d="M21 32a2 2 0 0 0-2 2 2 2 0 0 0 2 2h7a2 2 0 0 0 2-2 2 2 0 0 0-2-2z" fill="currentColor"/></svg>