<svg xmlns="http://www.w3.org/2000/svg" width="32" height="32" viewBox="0 0 1024 1024"><path d="M512 42.688a468.42 468.42 0 0 0-331.883 137.43A468.42 468.42 0 0 0 42.688 512a468.42 468.42 0 0 0 137.43 331.883A468.42 468.42 0 0 0 512 981.312a468.42 468.42 0 0 0 331.883-137.43A468.42 468.42 0 0 0 981.312 512a468.42 468.42 0 0 0-137.43-331.883A468.42 468.42 0 0 0 512 42.688m0 192a53.29 53.29 0 1 1 .021 106.603A53.29 53.29 0 0 1 512 234.667zM480 384h42.688a42.667 42.667 0 0 1 42.624 42.688v256h32A42.667 42.667 0 0 1 640 725.312 42.667 42.667 0 0 1 597.312 768H448a42.667 42.667 0 0 1-42.688-42.688A42.667 42.667 0 0 1 448 682.688h32V469.312a42.667 42.667 0 0 1-42.688-42.624A42.667 42.667 0 0 1 480 384" fill="currentColor"/></svg>