<svg xmlns="http://www.w3.org/2000/svg" width="32" height="32" viewBox="0 0 48 48"><path d="M24 2.001A21.96 21.96 0 0 0 8.443 8.443 21.96 21.96 0 0 0 2.001 24a21.96 21.96 0 0 0 6.442 15.557A21.96 21.96 0 0 0 24 45.999a21.96 21.96 0 0 0 15.557-6.442A21.96 21.96 0 0 0 45.999 24a21.96 21.96 0 0 0-6.442-15.557A21.96 21.96 0 0 0 24 2.001m0 9a2.498 2.498 0 1 1 .001 4.997A2.498 2.498 0 0 1 24 11m-1.5 7h2.001a2 2 0 0 1 1.998 2.001v12h1.5A2 2 0 0 1 30 33.999 2 2 0 0 1 27.999 36H21a2 2 0 0 1-2.001-2.001A2 2 0 0 1 21 32.001h1.5V21.999a2 2 0 0 1-2.001-1.998A2 2 0 0 1 22.5 18" fill="currentColor"/></svg>