<svg xmlns="http://www.w3.org/2000/svg" width="32" height="32" viewBox="0 0 1024 1024"><path d="M782.278 540.854c0 138.231 131.378 184.308 137.42 184.308 0 5.771-23.896 63.39-71.686 132.46-41.839 57.62-83.678 109.467-155.363 115.238-65.734 0-89.63-34.535-167.266-34.535-77.637-5.771-101.532 34.535-161.314 34.535-65.735 0-113.525-63.39-155.364-115.238-83.587-115.147-149.322-322.538-65.644-466.54 41.84-69.16 119.476-115.238 209.105-115.238 65.734 0 125.427 40.306 167.266 40.306s113.524-51.848 191.16-40.306c29.847 0 125.427 11.452 185.21 92.154-11.902 0-113.524 57.619-113.524 172.856M507.439 264.302c-5.951-51.847 17.944-109.466 53.742-144.001 35.797-40.306 95.58-69.16 143.37-69.16 5.951 51.847-17.944 109.466-53.741 149.772-29.847 34.625-89.54 69.16-143.37 63.39m0 0" fill="currentColor"/></svg>