<svg xmlns="http://www.w3.org/2000/svg" width="32" height="32" viewBox="0 0 48 48"><path d="M12.038 24a11.962 11.962 0 1 0 23.924 0 11.962 11.962 0 1 0-23.924 0M24 10.034a1.84 1.84 0 0 1-1.838-1.837v-4.41a1.838 1.838 0 0 1 3.676 0v4.428A1.84 1.84 0 0 1 24 10.035m-11.154 4.63a1.84 1.84 0 0 1-1.286-.532l-3.142-3.16a1.838 1.838 0 0 1 2.554-2.555l3.16 3.142a1.84 1.84 0 0 1 0 2.573 1.84 1.84 0 0 1-1.286.533m-4.63 11.173H3.788a1.838 1.838 0 0 1 0-3.675h4.428a1.838 1.838 0 0 1 0 3.675m1.47 14.296a1.838 1.838 0 0 1-1.268-3.105l3.142-3.16a1.838 1.838 0 0 1 2.573 2.572l-3.16 3.16a1.84 1.84 0 0 1-1.287.533M24 46.05a1.84 1.84 0 0 1-1.838-1.838v-4.428a1.838 1.838 0 0 1 3.676 0v4.428A1.84 1.84 0 0 1 24 46.05m14.314-5.917a1.84 1.84 0 0 1-1.286-.533l-3.16-3.16a1.84 1.84 0 0 1 0-2.573 1.84 1.84 0 0 1 2.572 0l3.142 3.16a1.838 1.838 0 0 1-1.268 3.106m5.898-14.296h-4.428a1.838 1.838 0 1 1 0-3.675h4.428a1.838 1.838 0 0 1 0 3.675m-9.058-11.172a1.84 1.84 0 0 1-1.287-.533 1.84 1.84 0 0 1 0-2.573l3.16-3.142a1.838 1.838 0 1 1 2.555 2.554l-3.142 3.161a1.84 1.84 0 0 1-1.286.533" fill="currentColor"/></svg>