<svg xmlns="http://www.w3.org/2000/svg" width="32" height="32" viewBox="0 0 1024 1024"><path d="M259.136 512a252.864 252.864 0 1 0 505.728 0 252.864 252.864 0 1 0-505.728 0M512 216.79a38.827 38.827 0 0 1-38.827-38.827V84.736a38.827 38.827 0 0 1 77.654 0v93.59A38.827 38.827 0 0 1 512 216.788m-235.776 97.877a38.83 38.83 0 0 1-27.2-11.264l-66.41-66.816a38.827 38.827 0 0 1 53.973-53.974l66.837 66.411a38.827 38.827 0 0 1 0 54.4 38.83 38.83 0 0 1-27.2 11.243m-97.877 236.16H84.736a38.827 38.827 0 0 1 0-77.675h93.61a38.827 38.827 0 0 1 0 77.675m31.061 302.208a38.827 38.827 0 0 1-26.795-65.643l66.411-66.816a38.827 38.827 0 0 1 54.4 54.4l-66.816 66.773a38.83 38.83 0 0 1-27.2 11.286M512 978.112a38.827 38.827 0 0 1-38.827-38.848v-93.61a38.827 38.827 0 0 1 77.654 0v93.61A38.827 38.827 0 0 1 512 978.091zm302.592-125.077a38.83 38.83 0 0 1-27.2-11.264l-66.816-66.816a38.827 38.827 0 0 1 0-54.379 38.827 38.827 0 0 1 54.4 0l66.41 66.816a38.827 38.827 0 0 1-26.794 65.643m124.672-302.208h-93.61a38.827 38.827 0 1 1 0-77.675h93.61a38.827 38.827 0 0 1 0 77.675m-191.488-236.16a38.83 38.83 0 0 1-27.2-11.264 38.827 38.827 0 0 1 0-54.379l66.837-66.41a38.827 38.827 0 1 1 53.995 53.973l-66.41 66.816a38.83 38.83 0 0 1-27.2 11.264z" fill="currentColor"/></svg>