<svg xmlns="http://www.w3.org/2000/svg" width="32" height="32" viewBox="0 0 1024 1024"><path d="M320 128C167.339 128 42.667 252.672 42.667 405.333c0 134.144 76.949 254.571 169.664 348.203 92.736 93.653 201.685 161.835 286.208 189.93a42.67 42.67 0 0 0 26.922 0c84.523-28.095 193.494-96.277 286.208-189.93s169.664-214.059 169.664-348.203C981.333 252.672 856.661 128 704 128c-74.73 0-142.016 30.592-192 78.933C462.016 158.571 394.73 128 320 128m0 85.333a191.4 191.4 0 0 1 157.12 81.622 42.667 42.667 0 0 0 69.76 0A191.4 191.4 0 0 1 704 213.333c106.539 0 192 85.462 192 192 0 100.523-61.717 204.075-145.003 288.171-78.57 79.36-173.824 137.387-238.997 162.07-65.173-24.705-160.427-82.71-238.997-162.07C189.717 609.408 128 505.856 128 405.334c0-106.54 85.461-192 192-192" fill="currentColor"/></svg>