<svg xmlns="http://www.w3.org/2000/svg" width="32" height="32" viewBox="0 0 48 48"><g><path d="M234.086 881.613V436.07c0-18.022-12.134-32.614-27.084-32.614h-57.805c-27.904 0-50.483 27.238-50.483 60.877v389.069c0 33.638 22.63 60.876 50.483 60.876h57.805c14.95 0 27.084-14.643 27.084-32.665" transform="translate(-1.843 -1.487)scale(.04998)" fill="currentColor"/><path d="M272.998 890.726V426.547c0-10.7 7.168-20.121 17.51-22.733 36.455-9.318 120.116-42.7 155.7-156.62 21.658-99.79 45.158-146.842 114.842-141.21s74.342 73.42 74.342 94.106v160s-5.632 24.473 17.869 26.368c23.552 1.894 207.104 0 207.104 0s100.71-1.69 68.71 123.392c-27.853 108.8-82.944 283.852-96.87 327.628-2.867 9.063-6.963 17.613-12.34 25.498-13.465 19.66-41.779 51.2-85.043 51.2H296.5c-13.005.102-23.5-10.445-23.5-23.45" data-spm-anchor-id="a313x.7781069.0.i5" transform="translate(-1.843 -1.487)scale(.04998)" fill="currentColor"/></g></svg>