<svg xmlns="http://www.w3.org/2000/svg" width="32" height="32" viewBox="0 0 1024 1024"><path d="M768.448 154.325a170.2 170.2 0 0 0-120.704 49.707l-377.11 377.13c-41.3 41.302-41.258 109.59.043 150.87 41.28 41.28 109.526 41.301 150.827 0l316.8-316.8a42.667 42.667 0 0 0 0-60.31 42.667 42.667 0 0 0-60.373 0l-316.758 316.8a20.715 20.715 0 0 1-30.165 0 20.715 20.715 0 0 1 0-30.186l377.11-377.11a84.693 84.693 0 0 1 120.682 0 84.693 84.693 0 0 1 0 120.662l-377.13 377.13a148.715 148.715 0 0 1-211.2 0 148.715 148.715 0 0 1 0-211.2l316.8-316.8a42.667 42.667 0 0 0 0-60.351 42.667 42.667 0 0 0-60.353 0l-316.8 316.8c-91.285 91.285-91.285 240.597 0 331.882 91.307 91.286 240.598 91.286 331.883 0l377.13-377.13c66.283-66.304 66.283-175.083 0-241.387a170.1 170.1 0 0 0-120.682-49.707" fill="currentColor"/></svg>