<svg xmlns="http://www.w3.org/2000/svg" width="32" height="32" viewBox="0 0 1024 1024"><path d="M128 85.333A42.667 42.667 0 0 0 85.333 128v768A42.667 42.667 0 0 0 128 938.667h384A42.667 42.667 0 0 0 554.667 896 42.667 42.667 0 0 0 512 853.333H170.667V170.667h341.162A42.667 42.667 0 0 0 554.496 128a42.667 42.667 0 0 0-42.667-42.667zm545.835 204.502a42.667 42.667 0 0 0 0 60.33L835.669 512 673.835 673.835a42.667 42.667 0 0 0 0 60.33 42.667 42.667 0 0 0 60.33 0l192-192a42.667 42.667 0 0 0 0-60.33l-192-192a42.667 42.667 0 0 0-60.33 0" fill="currentColor"/><path d="M341.333 469.163a42.667 42.667 0 0 0-42.666 42.666 42.667 42.667 0 0 0 42.666 42.667H896a42.667 42.667 0 0 0 42.667-42.667A42.667 42.667 0 0 0 896 469.163z" fill="currentColor"/></svg>