<svg xmlns="http://www.w3.org/2000/svg" width="32" height="32" viewBox="0 0 48 48"><path d="M24 2C11.873 2 2 11.873 2 24s9.873 22 22 22 22-9.873 22-22S36.127 2 24 2m0 4c9.965 0 18 8.035 18 18s-8.035 18-18 18S6 33.965 6 24 14.035 6 24 6" fill="currentColor"/><path d="M24 11c-3.842 0-7 3.158-7 7s3.158 7 7 7 7-3.158 7-7-3.158-7-7-7m0 4c1.68 0 3 1.32 3 3s-1.32 3-3 3-3-1.32-3-3 1.32-3 3-3" fill="currentColor"/><path d="M20 27c-6.335 0-11.563 4.957-11.975 11.201a2 2 0 0 0 1.866 2.127 2 2 0 0 0 2.127-1.865A7.976 7.976 0 0 1 20 31h8a7.976 7.976 0 0 1 7.98 7.447 2 2 0 0 0 2.133 1.86 2 2 0 0 0 1.86-2.131C39.549 31.943 34.327 27 28 27Z" fill="currentColor"/></svg>