<svg xmlns="http://www.w3.org/2000/svg" width="32" height="32" viewBox="0 0 1024 1024"><path d="M512 42.667C253.29 42.667 42.667 253.29 42.667 512S253.29 981.333 512 981.333 981.333 770.71 981.333 512 770.71 42.667 512 42.667M512 128c212.587 0 384 171.413 384 384S724.587 896 512 896 128 724.587 128 512s171.413-384 384-384" fill="currentColor"/><path d="M512 234.667c-81.963 0-149.333 67.37-149.333 149.333S430.037 533.333 512 533.333 661.333 465.963 661.333 384 593.963 234.667 512 234.667M512 320c35.84 0 64 28.16 64 64s-28.16 64-64 64-64-28.16-64-64 28.16-64 64-64M426.667 576C291.52 576 179.989 681.75 171.2 814.955a42.667 42.667 0 0 0 39.808 45.376 42.667 42.667 0 0 0 45.376-39.787 170.155 170.155 0 0 1 170.283-159.21h170.666a170.155 170.155 0 0 1 170.24 158.869 42.667 42.667 0 0 0 45.504 39.68 42.667 42.667 0 0 0 39.68-45.462C843.712 681.451 732.31 576 597.333 576z" fill="currentColor"/></svg>