<svg xmlns="http://www.w3.org/2000/svg" width="32" height="32" viewBox="0 0 1024 1024"><path d="M169.6 212.267a42.667 42.667 0 0 0-42.667 42.666A42.667 42.667 0 0 0 169.6 297.6h682.667a42.667 42.667 0 0 0 42.666-42.667 42.667 42.667 0 0 0-42.666-42.666zm0 256a42.667 42.667 0 0 0-42.667 42.666A42.667 42.667 0 0 0 169.6 553.6h682.667a42.667 42.667 0 0 0 42.666-42.667 42.667 42.667 0 0 0-42.666-42.666zm0 256a42.667 42.667 0 0 0-42.667 42.666A42.667 42.667 0 0 0 169.6 809.6h682.667a42.667 42.667 0 0 0 42.666-42.667 42.667 42.667 0 0 0-42.666-42.666z" fill="currentColor"/></svg>