<svg xmlns="http://www.w3.org/2000/svg" width="32" height="32" viewBox="0 0 1024 1024"><path d="M800 255.9H685.2L589.4 160a110 110 0 0 0-155 0l-95.7 95.7H224a96.2 96.2 0 0 0-96 96V800a96.1 96.1 0 0 0 96 96h576a96.1 96.1 0 0 0 96-96V351.9a96.2 96.2 0 0 0-96-96m-320-50a45.7 45.7 0 0 1 64.5 0l50 50.5H429.2zM832 800a32 32 0 0 1-32 32H224a32 32 0 0 1-32-32V351.9a32.1 32.1 0 0 1 32-31.9h576a32.1 32.1 0 0 1 32 32z" fill="currentColor"/><path d="M704 447.9H320a32 32 0 0 0 0 64h384a32 32 0 0 0 0-64M512 640H320a32 32 0 1 0 0 64h192a32 32 0 1 0 0-64" fill="currentColor"/></svg>