<svg xmlns="http://www.w3.org/2000/svg" width="32" height="32" viewBox="0 0 1024 1024"><path d="M704 85.333A42.667 42.667 0 0 0 661.333 128v192A42.667 42.667 0 0 0 704 362.667h192A42.667 42.667 0 0 0 938.667 320 42.667 42.667 0 0 0 896 277.333H746.667V128A42.667 42.667 0 0 0 704 85.333m-384 0A42.667 42.667 0 0 0 277.333 128v149.333H128A42.667 42.667 0 0 0 85.333 320 42.667 42.667 0 0 0 128 362.667h192A42.667 42.667 0 0 0 362.667 320V128A42.667 42.667 0 0 0 320 85.333m-192 576A42.667 42.667 0 0 0 85.333 704 42.667 42.667 0 0 0 128 746.667h149.333V896A42.667 42.667 0 0 0 320 938.667 42.667 42.667 0 0 0 362.667 896V704A42.667 42.667 0 0 0 320 661.333zm576 0A42.667 42.667 0 0 0 661.333 704v192A42.667 42.667 0 0 0 704 938.667 42.667 42.667 0 0 0 746.667 896V746.667h147.2A42.667 42.667 0 0 0 936.533 704a42.667 42.667 0 0 0-42.666-42.667z" fill="currentColor"/></svg>