<svg xmlns="http://www.w3.org/2000/svg" width="32" height="32" viewBox="0 0 1024 1024"><path d="M149.333 128C102.72 128 64 166.72 64 213.333v597.334C64 857.28 102.72 896 149.333 896h725.334C921.28 896 960 857.28 960 810.667V213.333C960 166.72 921.28 128 874.667 128zm0 85.333h725.334v597.334H149.333z" fill="currentColor"/><path d="M309.333 277.333c-40.746 0-74.666 33.92-74.666 74.667s33.92 74.667 74.666 74.667S384 392.747 384 352s-33.92-74.667-74.667-74.667m0 64c5.398 0 10.667 5.27 10.667 10.667s-5.27 10.667-10.667 10.667A11.39 11.39 0 0 1 298.667 352c0-5.397 5.269-10.667 10.666-10.667M580.587 414.123a42.667 42.667 0 0 0-58.304 6.122L421.12 538.24l-74.453-59.584a42.667 42.667 0 0 0-56.832 3.179L76.5 695.168A42.67 42.67 0 0 0 64 725.333v85.334C64 857.28 102.72 896 149.333 896h725.334C921.28 896 960 857.28 960 810.667v-85.334a42.67 42.67 0 0 0-16.747-33.877zm-19.798 92.288 313.878 240v64.256H149.333v-67.67l173.824-173.824L400 630.677a42.667 42.667 0 0 0 59.05-5.589z" fill="currentColor"/></svg>