<svg xmlns="http://www.w3.org/2000/svg" width="32" height="32" viewBox="0 0 1024 1024"><path d="M512 213.333c-32.79 0-64.555 4.374-94.933 11.926a42.667 42.667 0 0 0-31.147 51.69 42.667 42.667 0 0 0 51.712 31.147 308 308 0 0 1 74.368-9.43c170.368 0 322.176 158.251 370.624 213.782-18.987 22.528-48.32 55.04-96.17 94.72a42.667 42.667 0 0 0-5.611 60.032 42.667 42.667 0 0 0 60.074 5.632c81.323-67.413 131.968-135.339 131.968-135.339a42.67 42.67 0 0 0 0-50.986S778.54 213.333 512 213.333M214.293 341.504a42.67 42.67 0 0 0-31.21 9.664C101.76 418.581 51.115 486.507 51.115 486.507a42.67 42.67 0 0 0 0 50.986S245.46 810.667 512 810.667c33.067 0 65.13-4.48 95.701-12.118a42.667 42.667 0 0 0 30.998-51.754 42.667 42.667 0 0 0-51.734-30.998A308.2 308.2 0 0 1 512 725.333c-170.368 0-322.176-158.25-370.624-213.781 18.987-22.528 48.32-55.04 96.17-94.72a42.667 42.667 0 0 0 5.611-60.032 42.67 42.67 0 0 0-28.864-15.296" fill="currentColor"/><path d="M431.552 397.29a42.67 42.67 0 0 0-29.653 13.803A149.38 149.38 0 0 0 362.667 512c0 81.963 67.37 149.333 149.333 149.333 40.448 0 77.653-16.341 104.533-42.709a42.667 42.667 0 0 0 .598-60.33 42.667 42.667 0 0 0-60.331-.577A63.2 63.2 0 0 1 512 576c-35.84 0-64-28.16-64-64 0-16.917 6.336-31.808 16.853-43.243a42.667 42.667 0 0 0-2.645-60.309 42.67 42.67 0 0 0-30.656-11.157" fill="currentColor"/><path d="M128 85.333a42.67 42.67 0 0 0-30.165 12.502 42.667 42.667 0 0 0 0 60.33l768 768a42.667 42.667 0 0 0 60.33 0 42.667 42.667 0 0 0 0-60.33l-768-768A42.67 42.67 0 0 0 128 85.333" fill="currentColor"/></svg>