<svg xmlns="http://www.w3.org/2000/svg" width="32" height="32" viewBox="0 0 1024 1024"><path d="M140.843 300.63a42.67 42.67 0 0 0-32.555 2.88 42.667 42.667 0 0 0-18.133 57.535c16.704 32.086 41.173 60.416 71.018 84.864 83.67 68.587 209.75 108.758 350.827 108.758s267.157-40.171 350.827-108.758c29.866-24.448 54.314-52.778 70.997-84.864a42.667 42.667 0 0 0-18.133-57.536 42.667 42.667 0 0 0-57.515 18.134c-10.39 19.925-26.944 39.85-49.43 58.282-63.018 51.648-172.373 89.408-296.746 89.408s-233.728-37.76-296.747-89.408c-22.485-18.432-39.04-38.357-49.429-58.304a42.67 42.67 0 0 0-24.981-20.992" fill="currentColor"/><path d="M607.125 470.784a42.667 42.667 0 0 0-30.165 52.267l44.16 164.821a42.667 42.667 0 0 0 52.288 30.208 42.667 42.667 0 0 0 30.165-52.288l-44.16-164.843a42.667 42.667 0 0 0-52.288-30.165m159.595-45.397a42.667 42.667 0 0 0 0 60.33L887.381 606.38a42.667 42.667 0 0 0 60.331 0 42.667 42.667 0 0 0 0-60.331L827.051 425.365a42.667 42.667 0 0 0-60.352 0zm-539.392-12.502a42.67 42.67 0 0 0-30.165 12.48L76.5 546.048a42.667 42.667 0 0 0 0 60.33 42.667 42.667 0 0 0 60.331 0l120.661-120.66a42.667 42.667 0 0 0 0-60.353 42.67 42.67 0 0 0-30.165-12.48m189.013 57.899a42.667 42.667 0 0 0-52.266 30.165l-44.16 164.886A42.667 42.667 0 0 0 350.08 718.1a42.667 42.667 0 0 0 52.267-30.186l44.16-164.864a42.667 42.667 0 0 0-30.166-52.267" fill="currentColor"/></svg>