<svg xmlns="http://www.w3.org/2000/svg" width="32" height="32" viewBox="0 0 48 48"><path d="M6.602 14.092a2 2 0 0 0-1.526.135 2 2 0 0 0-.85 2.697c.783 1.504 1.93 2.832 3.329 3.978C11.477 24.117 17.387 26 24 26s12.523-1.883 16.445-5.098c1.4-1.146 2.546-2.474 3.328-3.978a2 2 0 0 0-.85-2.697 2 2 0 0 0-2.696.85c-.487.934-1.263 1.868-2.317 2.732C34.956 20.23 29.83 22 24 22s-10.956-1.77-13.91-4.191c-1.054-.864-1.83-1.798-2.317-2.733a2 2 0 0 0-1.171-.984" fill="currentColor"/><path d="M28.459 22.068a2 2 0 0 0-1.414 2.45l2.07 7.726a2 2 0 0 0 2.451 1.416 2 2 0 0 0 1.414-2.451l-2.07-7.727a2 2 0 0 0-2.451-1.414m7.481-2.128a2 2 0 0 0 0 2.828l5.656 5.656a2 2 0 0 0 2.828 0 2 2 0 0 0 0-2.828l-5.656-5.657a2 2 0 0 0-2.829 0m-25.283-.585a2 2 0 0 0-1.414.585l-5.656 5.657a2 2 0 0 0 0 2.828 2 2 0 0 0 2.828 0l5.656-5.656a2 2 0 0 0 0-2.829 2 2 0 0 0-1.414-.585m8.86 2.714a2 2 0 0 0-2.45 1.414l-2.07 7.729a2 2 0 0 0 1.414 2.45 2 2 0 0 0 2.45-1.415l2.07-7.728a2 2 0 0 0-1.414-2.45" fill="currentColor"/></svg>