<svg xmlns="http://www.w3.org/2000/svg" width="32" height="32" viewBox="0 0 48 48"><path d="M24 10a18.4 18.4 0 0 0-4.45.559 2 2 0 0 0-1.46 2.423 2 2 0 0 0 2.424 1.46A14.4 14.4 0 0 1 24 14c7.986 0 15.102 7.418 17.373 10.021-.89 1.056-2.265 2.58-4.508 4.44a2 2 0 0 0-.263 2.814 2 2 0 0 0 2.816.264c3.812-3.16 6.186-6.344 6.186-6.344a2 2 0 0 0 0-2.39S36.494 10 24 10m-13.955 6.008a2 2 0 0 0-1.463.453c-3.812 3.16-6.186 6.344-6.186 6.344a2 2 0 0 0 0 2.39S11.506 38 24 38c1.55 0 3.053-.21 4.486-.568a2 2 0 0 0 1.453-2.426 2 2 0 0 0-2.425-1.453A14.5 14.5 0 0 1 24 34c-7.986 0-15.102-7.418-17.373-10.021.89-1.056 2.265-2.58 4.508-4.44a2 2 0 0 0 .263-2.814 2 2 0 0 0-1.353-.717" fill="currentColor"/><path d="M20.229 18.623a2 2 0 0 0-1.39.647A7 7 0 0 0 17 24c0 3.842 3.158 7 7 7 1.896 0 3.64-.766 4.9-2.002a2 2 0 0 0 .028-2.828 2 2 0 0 0-2.828-.027A2.96 2.96 0 0 1 24 27c-1.68 0-3-1.32-3-3 0-.793.297-1.491.79-2.027a2 2 0 0 0-.124-2.827 2 2 0 0 0-1.437-.523" fill="currentColor"/><path d="M6 4a2 2 0 0 0-1.414.586 2 2 0 0 0 0 2.828l36 36a2 2 0 0 0 2.828 0 2 2 0 0 0 0-2.828l-36-36A2 2 0 0 0 6 4" fill="currentColor"/></svg>