<svg xmlns="http://www.w3.org/2000/svg" width="32" height="32" viewBox="0 0 1024 1024"><path d="M512 85.333C276.864 85.333 85.333 276.864 85.333 512S276.864 938.667 512 938.667c117.568 0 224.555-47.787 301.717-124.95a42.667 42.667 0 0 0 0-60.352 42.667 42.667 0 0 0-60.352 0A339.73 339.73 0 0 1 512 853.333c-189.013 0-341.333-152.32-341.333-341.333S322.987 170.667 512 170.667c94.507 0 179.563 38.144 241.365 99.968 32.619 32.597 110.72 120.362 110.72 120.362a42.667 42.667 0 0 0 60.246 3.584 42.667 42.667 0 0 0 3.584-60.245s-76.075-85.91-114.198-124.053A425.9 425.9 0 0 0 512 85.333" fill="currentColor"/><path d="M896 128a42.667 42.667 0 0 0-42.667 42.667V320H704a42.667 42.667 0 0 0-42.667 42.667A42.667 42.667 0 0 0 704 405.333h192a42.667 42.667 0 0 0 42.667-42.666v-192A42.667 42.667 0 0 0 896 128" fill="currentColor"/></svg>