<svg xmlns="http://www.w3.org/2000/svg" width="32" height="32" viewBox="0 0 48 48"><path d="M24 4C12.978 4 4 12.978 4 24s8.978 20 20 20c5.511 0 10.526-2.24 14.143-5.857a2 2 0 0 0 0-2.829 2 2 0 0 0-2.829 0A15.93 15.93 0 0 1 24 40c-8.86 0-16-7.14-16-16S15.14 8 24 8c4.43 0 8.417 1.788 11.314 4.686 1.529 1.528 5.19 5.642 5.19 5.642a2 2 0 0 0 2.824.168 2 2 0 0 0 .168-2.824s-3.566-4.027-5.353-5.815A19.96 19.96 0 0 0 24 4" fill="currentColor"/><path d="M42 6a2 2 0 0 0-2 2v7h-7a2 2 0 0 0-2 2 2 2 0 0 0 2 2h9a2 2 0 0 0 2-2V8a2 2 0 0 0-2-2" fill="currentColor"/></svg>