<svg xmlns="http://www.w3.org/2000/svg" width="32" height="32" viewBox="0 0 1024 1024"><path d="M89.292 289.11S174.915 156.983 310.4 86.084C445.882 15.19 612.8 35.6 722.27 104.346 831.739 173.096 868.592 231.1 868.592 231.1l94.294-53.707s19.514-9.667 19.514 12.89v337.301s0 30.078-22.765 19.334c-19.15-9.034-226.235-126.793-291.491-163.942-35.836-15.985-4.352-28.97-4.352-28.97l90.994-52.007s-51.904-65.002-127.87-99.427c-81.317-42.366-157.446-47.39-250.696-12.184-60.809 22.95-132.4 81.726-183.966 168.543zm845.416 445.78S849.086 867.02 713.6 937.913c-135.483 70.896-302.398 50.49-411.868-18.256-109.475-68.753-146.323-126.76-146.323-126.76L61.11 846.604s-19.51 9.672-19.51-12.891V496.415s0-30.074 22.759-19.335c19.15 9.039 226.241 126.793 291.498 163.947 35.835 15.983 4.352 28.965 4.352 28.965l-90.994 52.009S321.12 787 397.085 821.428c81.313 42.363 157.44 47.388 250.695 12.183 60.804-22.953 132.397-81.722 183.958-168.544zm0 0" fill="currentColor"/></svg>