<svg xmlns="http://www.w3.org/2000/svg" width="32" height="32" viewBox="0 0 48 48"><path d="M24.251 36.89a2.116 2.116 0 0 0 2.117-2.117v-4.228h4.263a2.122 2.122 0 1 0 0-4.246h-4.263v-2.122h4.263a2.12 2.12 0 1 0 0-4.24h-3.204l2.927-2.933a2.13 2.13 0 0 0 0-3.004 2.12 2.12 0 0 0-3 .003l-2.81 2.812-2.81-2.812a2.122 2.122 0 1 0-3.001 3l2.93 2.934H17.9a2.123 2.123 0 0 0-2.123 2.12c0 1.174.954 2.12 2.123 2.12h4.226v2.122H17.9a2.127 2.127 0 0 0-2.123 2.123c0 1.174.954 2.123 2.123 2.123h4.226v4.228a2.125 2.125 0 0 0 2.125 2.117m18.625-22.274a2.4 2.4 0 0 0-.296-.573 1 1 0 0 1-.045-.088l-.023.009a2.01 2.01 0 0 0-1.566-.748 2.04 2.04 0 0 0-2.047 2.035c0 .52.197.994.52 1.352a16.9 16.9 0 0 1 1.764 7.545c0 9.378-7.602 16.977-16.974 16.977s-16.97-7.596-16.97-16.977c0-9.371 7.598-16.97 16.97-16.97 3.664 0 7.054 1.16 9.826 3.133a2.095 2.095 0 0 0 3.771-1.256 2.1 2.1 0 0 0-.635-1.499v-.003c-.01-.009-.028-.02-.034-.028a2 2 0 0 0-.287-.22A20.97 20.97 0 0 0 24 2.928C12.362 2.928 2.93 12.362 2.93 24c0 11.636 9.434 21.07 21.07 21.07S45.07 35.637 45.07 24c.005-3.37-.788-6.56-2.194-9.385m0 0" fill="currentColor"/></svg>