<svg xmlns="http://www.w3.org/2000/svg" width="32" height="32" viewBox="0 0 1024 1024"><path d="M517.355 786.987a45.14 45.14 0 0 0 45.162-45.163v-90.197h90.944a45.27 45.27 0 1 0 0-90.582h-90.944v-45.269h90.944a45.227 45.227 0 1 0 0-90.453H585.11l62.443-62.571a45.397 45.397 0 0 0 0-64.085 45.27 45.27 0 0 0-64 .064l-59.947 59.989-59.946-59.99a45.27 45.27 0 1 0-64.022 64l62.507 62.593h-80.277a45.29 45.29 0 0 0-45.291 45.226c0 25.046 20.352 45.227 45.29 45.227h90.155v45.27h-90.154a45.376 45.376 0 0 0-45.291 45.29c0 25.045 20.352 45.29 45.29 45.29h90.155v90.198a45.333 45.333 0 0 0 45.334 45.163m397.333-475.179a50.1 50.1 0 0 0-6.315-12.224 13 13 0 0 1-.96-1.877l-.49.192a42.94 42.94 0 0 0-33.408-15.958 43.52 43.52 0 0 0-43.67 43.414c0 11.093 4.203 21.205 11.094 28.842a361 361 0 0 1 37.632 160.96c0 200.064-162.176 362.176-362.112 362.176S154.432 715.285 154.432 515.157c0-199.914 162.09-362.026 362.027-362.026 78.165 0 150.485 24.746 209.621 66.837a44.693 44.693 0 0 0 80.448-26.795 44.8 44.8 0 0 0-13.547-31.978v-.064c-.213-.192-.597-.427-.725-.598a40 40 0 0 0-6.123-4.693A447.25 447.25 0 0 0 512 62.464C263.723 62.464 62.507 263.723 62.507 512c0 248.235 201.258 449.493 449.493 449.493S961.493 760.235 961.493 512c.107-71.893-16.81-139.947-46.805-200.213zm0 0" fill="currentColor"/></svg>