<svg xmlns="http://www.w3.org/2000/svg" width="32" height="32" viewBox="0 0 1024 1024"><path d="M192 85.333c-58.347 0-106.667 48.32-106.667 106.667v640c0 58.347 48.32 106.667 106.667 106.667h640c58.347 0 106.667-48.32 106.667-106.667V192c0-58.347-48.32-106.667-106.667-106.667zm0 85.334h640c12.565 0 21.333 8.768 21.333 21.333v640c0 12.565-8.768 21.333-21.333 21.333H192c-12.565 0-21.333-8.768-21.333-21.333V192c0-12.565 8.768-21.333 21.333-21.333" fill="currentColor"/><path d="M618.667 85.333A42.667 42.667 0 0 0 576 128v768a42.667 42.667 0 0 0 42.667 42.667A42.667 42.667 0 0 0 661.333 896V128a42.667 42.667 0 0 0-42.666-42.667" fill="currentColor"/></svg>