<svg xmlns="http://www.w3.org/2000/svg" width="32" height="32" viewBox="0 0 1310.72 1310.72"><path d="M908.085 637.578c21.887-302.314-112.17-493.823-246.911-571.795l-7.523-4.788-7.524 4.105C512.07 143.07 375.961 334.58 399.9 636.892c-67.028 64.294-96.44 140.214-96.44 246.227v18.467l215.449-42.404c13.68 48.56 70.449 84.127 136.11 84.127 65.66 0 121.745-35.566 135.425-82.76l216.816 43.775v-18.467c-.684-108.067-30.095-184.67-99.175-248.28M722.73 509.675c-40.353 37.62-104.646 34.2-142.264-6.155s-34.198-104.647 6.155-141.58c40.355-37.619 104.647-34.199 142.266 6.155 37.62 40.353 34.198 103.962-6.155 141.58zm-67.712 443.21c-43.09 0-77.287 34.882-77.287 77.288 0 43.09 64.976 219.552 77.287 219.552s77.289-176.462 77.289-219.552c0-42.406-34.883-77.289-77.29-77.289" fill="currentColor"/></svg>