<svg xmlns="http://www.w3.org/2000/svg" width="32" height="32" viewBox="0 0 1024 1024"><path d="M448 42.667C224.64 42.667 42.667 224.64 42.667 448S224.64 853.333 448 853.333 853.333 671.36 853.333 448 671.36 42.667 448 42.667M448 128c177.237 0 320 142.763 320 320S625.237 768 448 768 128 625.237 128 448s142.763-320 320-320" fill="currentColor"/><path d="M448 213.333a213.2 213.2 0 0 0-150.827 62.507 42.667 42.667 0 0 0 0 60.33 42.667 42.667 0 0 0 60.331 0A127.04 127.04 0 0 1 448 298.668c35.605 0 67.285 14.293 90.496 37.504a42.667 42.667 0 0 0 60.33 0 42.667 42.667 0 0 0 0-60.331A213.2 213.2 0 0 0 448 213.333M678.55 678.55a42.667 42.667 0 0 0 0 60.374l181.034 180.992a42.667 42.667 0 0 0 60.33 0 42.667 42.667 0 0 0 0-60.331L738.924 678.549a42.667 42.667 0 0 0-60.374 0" fill="currentColor"/></svg>