<svg xmlns="http://www.w3.org/2000/svg" width="32" height="32" viewBox="0 0 48 48"><path d="M34.378 42.984a1.27 1.27 0 0 1-1.038-.347l-8.29-5.527-4.17 4.145c-.346.347-1.384.69-1.731.347a1.9 1.9 0 0 1-1.038-1.732v-7.614a1.27 1.27 0 0 1 .362-1.038L31.608 17.03a1.713 1.713 0 0 1 2.423 2.422L21.237 33.293v2.764l2.422-2.076a1.63 1.63 0 0 1 2.076-.347l7.605 4.84 5.883-28.709L10.156 23.95l6.573 4.155c.691.347 1.038 1.731.347 2.422-.347.69-1.731 1.038-2.422.69l-9-5.882c-.343-.344-.69-.678-.69-1.385 0-.706.347-1.037 1.038-1.384L40.605 5.267c.69-.347 1.384-.347 1.731 0 .7.353.7 1.038.7 1.729l-6.92 34.603c0 .69-.347 1.038-1.038 1.385z" fill="currentColor"/></svg>