<svg xmlns="http://www.w3.org/2000/svg" width="32" height="32" viewBox="0 0 1024 1024"><path d="M733.397 916.992a27.12 27.12 0 0 1-22.144-7.403L534.4 791.68l-88.96 88.427c-7.381 7.402-29.525 14.72-36.928 7.402a40.62 40.62 0 0 1-22.144-36.949V688.128a27.12 27.12 0 0 1 7.723-22.144l280.213-302.677a36.544 36.544 0 0 1 51.69 51.669L453.057 710.251v58.965l51.67-44.288a34.77 34.77 0 0 1 44.287-7.403l162.24 103.254L836.757 208.32 216.661 510.933l140.224 88.64c14.742 7.403 22.144 36.928 7.403 51.67-7.403 14.72-36.928 22.144-51.67 14.72l-192-125.483c-7.317-7.339-14.72-14.464-14.72-29.547 0-15.061 7.403-22.122 22.145-29.525L866.24 112.363c14.72-7.403 29.525-7.403 36.928 0 14.933 7.53 14.933 22.144 14.933 36.885L770.475 887.445c0 14.72-7.403 22.144-22.144 29.547z" fill="currentColor"/></svg>