<svg xmlns="http://www.w3.org/2000/svg" width="32" height="32" viewBox="0 0 1024 1024"><path d="M386.56 59.627a468.65 468.65 0 0 0-194.07 108.586 42.67 42.67 0 0 0-9.237 50.134C188.843 229.675 192 242.325 192 256c0 47.637-37.696 85.333-85.333 85.333h-1.174A42.67 42.67 0 0 0 64.171 371.2 469.3 469.3 0 0 0 42.667 512c0 32.32 3.285 63.936 9.536 94.507a42.667 42.667 0 0 0 45.973 33.92 85 85 0 0 1 8.49-.427C154.305 640 192 677.696 192 725.333c0 21.184-7.51 40.107-20.075 54.998a42.667 42.667 0 0 0 1.856 57.088 469.2 469.2 0 0 0 204.096 124.458 42.667 42.667 0 0 0 52.822-27.882A85.12 85.12 0 0 1 512 874.667a85.12 85.12 0 0 1 81.28 59.328 42.667 42.667 0 0 0 52.843 27.882A469.2 469.2 0 0 0 850.219 837.42a42.667 42.667 0 0 0 1.856-57.088A84.46 84.46 0 0 1 832 725.333C832 677.696 869.696 640 917.333 640c2.88 0 5.696.15 8.491.427a42.667 42.667 0 0 0 45.973-33.92c6.251-30.571 9.536-62.187 9.536-94.507a469.3 469.3 0 0 0-21.504-140.8 42.67 42.67 0 0 0-41.322-29.867h-1.174A84.693 84.693 0 0 1 832 256c0-13.675 3.157-26.325 8.747-37.675a42.67 42.67 0 0 0-9.238-50.133A468.65 468.65 0 0 0 637.461 59.605a42.67 42.67 0 0 0-49.386 21.76A85.04 85.04 0 0 1 512 128a85.04 85.04 0 0 1-76.075-46.635 42.67 42.67 0 0 0-49.386-21.76zm-3.904 93.248c31.424 36.757 77.568 60.458 129.344 60.458s97.941-23.701 129.344-60.458a381 381 0 0 1 114.24 64.789c-3.072 12.843-8.917 24.683-8.917 38.336 0 81.195 58.858 146.517 135.21 163.413C889.344 449.323 896 479.66 896 512c0 16.47-2.837 32.107-4.843 48-80.96 13.163-144.49 80.853-144.49 165.333 0 26.07 7.53 49.92 18.09 72.171a380.4 380.4 0 0 1-111.381 68.48c-30.677-45.952-82.347-76.65-141.376-76.65-59.008 0-110.699 30.677-141.376 76.671a380.4 380.4 0 0 1-111.36-68.501c10.517-22.25 18.07-46.101 18.07-72.17 0-84.48-63.531-152.171-144.491-165.334-2.006-15.893-4.843-31.53-4.843-48 0-32.341 6.635-62.677 14.123-92.587 76.373-16.896 135.21-82.218 135.21-163.413 0-13.675-5.845-25.493-8.917-38.336a381 381 0 0 1 114.24-64.79" fill="currentColor"/><path d="M512 320c-105.536 0-192 86.464-192 192s86.464 192 192 192 192-86.464 192-192-86.464-192-192-192m0 85.333c59.413 0 106.667 47.254 106.667 106.667S571.413 618.667 512 618.667A106.027 106.027 0 0 1 405.333 512c0-59.413 47.254-106.667 106.667-106.667" fill="currentColor"/></svg>