<svg xmlns="http://www.w3.org/2000/svg" width="32" height="32" viewBox="0 0 1024 1024"><path d="M559.262 630.173c-17.572 5.026-35.981 7.958-54.39 8.776a432.5 432.5 0 0 1-142.648-17.552 596.3 596.3 0 0 1-98.729-36.819c1.676 30.118 3.35 60.235 5.445 90.352 17.99 7.958 35.98 14.66 54.809 20.504a789.4 789.4 0 0 0 161.057 37.237 599.5 599.5 0 0 0 109.599 0 338 338 0 0 0 99.147-22.598 145.6 145.6 0 0 0 66.936-52.714 98.84 98.84 0 0 0 1.675-99.148 128.6 128.6 0 0 0-28.46-33.448 240.7 240.7 0 0 0-58.141-34.725c-43.92-17.571-89.096-31.792-135.547-41.425a291.3 291.3 0 0 1-66.936-21.741 59.8 59.8 0 0 1-24.673-20.941 23.04 23.04 0 0 1-1.675-20.904c4.607-8.776 12.565-15.04 21.76-18.409a132.6 132.6 0 0 1 52.696-7.938 607.7 607.7 0 0 1 134.29 18.828 772 772 0 0 1 105.43 33.467l-4.607-87.858a698 698 0 0 0-55.209-17.133 1157 1157 0 0 0-136.385-27.224 627 627 0 0 0-134.29-5.426c-28.442 2.095-56.046 7.958-82.813 17.99a173.9 173.9 0 0 0-61.929 40.17c-17.134 17.134-28.023 39.312-31.793 63.166a91.4 91.4 0 0 0 4.607 48.527c8.777 17.99 22.16 33.468 39.313 43.92a349.4 349.4 0 0 0 100.404 42.662c33.049 9.633 66.935 16.316 100.403 23.416 15.897 3.37 31.374 7.958 46.433 13.403a130.9 130.9 0 0 1 35.98 19.666c5.426 4.188 9.196 9.614 10.871 15.896a16.03 16.03 0 0 1-5.864 15.04c-8.376 6.7-17.133 10.889-26.766 12.983m30.974 223.805a356.92 356.92 0 0 1-329.634-95.797 327.5 327.5 0 0 1-43.52-52.715c-81.157-120.05-81.157-277.757 0-398.245a404.5 404.5 0 0 1 43.52-52.715 358.1 358.1 0 0 1 113.368-76.13 353.5 353.5 0 0 1 137.622-28.024c94.521 0 185.31 38.075 251.828 105.41 99.566 99.148 130.92 247.66 81.137 379.018a350.3 350.3 0 0 1-45.594 83.251 26.424 26.424 0 0 0 4.607 36.8l.419.418c10.47 10.052 27.185 9.633 37.237-1.256.838-.838 1.675-2.094 2.513-3.332 135.547-183.654 96.215-442.602-87.858-578.15a420.4 420.4 0 0 0-76.15-44.337c-17.134-7.939-34.705-14.221-52.696-19.228-219.616-61.948-448.447 64.822-511.613 284.02a410.8 410.8 0 0 0-15.897 112.512C99.107 733.07 283.161 917.963 510.735 918.4c44.357 0 88.696-7.12 130.521-20.942a28.233 28.233 0 0 0 17.99-35.98c-.418-1.238-.837-2.913-1.675-4.17a26.08 26.08 0 0 0-33.049-13.383 750 750 0 0 1-34.305 10.033zm216.266-52.715a412.3 412.3 0 0 1-105.411 76.569 27.566 27.566 0 0 0-11.29 37.637v.419c7.12 13.402 23.417 18.847 36.82 12.146a464.5 464.5 0 0 0 125.494-94.978c10.471-10.033 10.87-26.767.838-37.219a11.1 11.1 0 0 0-2.513-2.094l-3.77-2.932a24.69 24.69 0 0 0-33.886 2.094l-6.282 8.377z" fill="currentColor"/></svg>