<svg xmlns="http://www.w3.org/2000/svg" width="32" height="32" preserveAspectRatio="xMidYMid" viewBox="0 0 32 32"><path d="M17.449 2.521c-.038.066-1.792 1.998-2.798 3.084-2.38 2.568-3.822 3.595-6.157 4.392-.599.206-.971.394-1.284.655-.314.264-.54.553-.72.915-.3.612-.276-.111-.276 8.255 0 7.991-.007 7.609.181 8.092A2.546 2.546 0 0 0 9.64 29.38c.818-.286 1.392-.926 1.601-1.779.07-.289.073-.372.073-3.574.004-1.807.014-3.282.024-3.282s.14.07.286.153c1.214.713 3.292 1.103 5.106.964 2.979-.23 5.53-1.605 7.218-3.884.905-1.222 1.531-2.792 1.764-4.403.074-.508.101-1.907.046-2.426-.237-2.349-1.083-4.215-2.642-5.83-1.228-1.277-2.753-2.15-4.74-2.721-.477-.136-.874-.17-.926-.077m.954 1.59c1.559.495 2.735 1.209 3.758 2.27 1.194 1.243 1.9 2.757 2.155 4.619.08.588.08 1.708 0 2.297-.205 1.531-.828 3-1.761 4.152-.244.303-.867.922-1.194 1.187-2.088 1.698-5.297 2.28-8.012 1.444-.344-.104-.967-.39-1.128-.515l-.083-.063.077-.195c.1-.271.212-.438.41-.616.352-.313.543-.355 2.325-.484 2.085-.153 2.46-.208 3.098-.438a5.5 5.5 0 0 0 3.15-2.847 6 6 0 0 0 .591-2.234c.108-1.403-.237-2.774-.967-3.867a6 6 0 0 0-1.626-1.587c-.786-.508-1.716-.811-2.75-.898a10 10 0 0 1-.459-.045c-.003-.004.237-.275.536-.599.296-.327.762-.839 1.03-1.138.272-.303.498-.55.502-.55.007 0 .163.049.348.108m-1.598 3.707a4.27 4.27 0 0 1 2.245 1.125c.62.588 1.027 1.326 1.236 2.23.073.317.118.926.097 1.281-.077 1.208-.477 2.158-1.242 2.948a4.12 4.12 0 0 1-2.186 1.187c-.146.028-.797.09-1.448.14-2.628.19-2.638.19-3.247.49-.313.153-.446.24-.672.453l-.278.264.007-3.8.003-3.805.261-.163c.825-.508 1.646-1.152 2.496-1.95.414-.393.455-.42.591-.424.077-.003.317-.017.526-.031.504-.035 1.232-.01 1.611.055M9.914 19.116l-.01 8.12-.091.191c-.177.38-.435.588-.825.665-.515.097-1.002-.146-1.25-.63l-.097-.192V12.444l.094-.198c.108-.234.32-.47.547-.616.09-.06.39-.185.668-.279.275-.094.595-.212.71-.26.115-.05.22-.088.237-.091.013 0 .02 3.654.017 8.116" fill="currentColor"/></svg>