<svg xmlns="http://www.w3.org/2000/svg" width="32" height="32" viewBox="0 0 1024 1024"><path d="M170.667 128A42.667 42.667 0 0 0 128 170.667v384a42.67 42.67 0 0 0 12.501 30.165l344.96 344.576a119.467 119.467 0 0 0 169.003-.043L929.792 654.08l.085-.128c45.974-46.23 45.974-122.176 0-168.405l-.085-.086-344.96-344.96A42.67 42.67 0 0 0 554.667 128zm42.666 85.333h323.67l332.33 332.374a33.493 33.493 0 0 1 0 48.128l-275.2 275.2-.042.042a34.09 34.09 0 0 1-48.299 0l-.043-.042-332.416-332.032z" fill="currentColor"/><path d="M394.667 448a53.333 53.333 0 1 0 0-106.667 53.333 53.333 0 0 0 0 106.667" fill="currentColor"/></svg>