<svg xmlns="http://www.w3.org/2000/svg" width="32" height="32" viewBox="0 0 1024 1024"><path d="M426.667 85.333A42.667 42.667 0 0 0 384 128a42.667 42.667 0 0 0 42.667 42.667H768A42.667 42.667 0 0 0 810.667 128 42.667 42.667 0 0 0 768 85.333zM256 853.333A42.667 42.667 0 0 0 213.333 896 42.667 42.667 0 0 0 256 938.667h341.333A42.667 42.667 0 0 0 640 896a42.667 42.667 0 0 0-42.667-42.667z" fill="currentColor"/><path d="M630.08 85.867a42.667 42.667 0 0 0-52.544 29.717L364.203 884.587a42.667 42.667 0 0 0 29.717 52.544 42.667 42.667 0 0 0 52.544-29.718l213.333-769.045a42.667 42.667 0 0 0-29.717-52.48z" fill="currentColor"/></svg>