<svg xmlns="http://www.w3.org/2000/svg" width="32" height="32" viewBox="0 0 1024 1024"><path d="M192 85.333c-58.347 0-106.667 48.32-106.667 106.667v640c0 58.347 48.32 106.667 106.667 106.667h640c58.347 0 106.667-48.32 106.667-106.667V192c0-58.347-48.32-106.667-106.667-106.667zm0 85.334h640c12.565 0 21.333 8.768 21.333 21.333v640c0 12.565-8.768 21.333-21.333 21.333H192c-12.565 0-21.333-8.768-21.333-21.333V192c0-12.565 8.768-21.333 21.333-21.333" fill="currentColor"/><path d="M341.333 298.667a42.667 42.667 0 0 0-42.666 42.666v64A42.667 42.667 0 0 0 341.333 448 42.667 42.667 0 0 0 384 405.333V384h256v21.333A42.667 42.667 0 0 0 682.667 448a42.667 42.667 0 0 0 42.666-42.667v-64a42.667 42.667 0 0 0-42.666-42.666zm128 384a42.667 42.667 0 0 0-42.666 42.666A42.667 42.667 0 0 0 469.333 768h85.334a42.667 42.667 0 0 0 42.666-42.667 42.667 42.667 0 0 0-42.666-42.666z" fill="currentColor"/><path d="M512 341.333A42.667 42.667 0 0 0 469.333 384v341.333A42.667 42.667 0 0 0 512 768a42.667 42.667 0 0 0 42.667-42.667V384A42.667 42.667 0 0 0 512 341.333" fill="currentColor"/></svg>