<svg xmlns="http://www.w3.org/2000/svg" width="32" height="32" viewBox="0 0 1024 1024"><path d="m826.808 315.835-.107.01h.214z" fill="currentColor"/><path d="M512.01 43.733C253.384 43.733 43.734 253.393 43.734 512c0 258.617 209.65 468.278 468.278 468.278 258.606 0 468.267-209.661 468.267-468.278 0-258.606-209.661-468.267-468.267-468.267m0 861.624c-216.907 0-393.356-176.46-393.356-393.357s176.45-393.346 393.357-393.346c216.896 0 393.346 176.45 393.346 393.346s-176.45 393.357-393.346 393.357" fill="currentColor"/><path d="M510.213 558.761a37.46 37.46 0 0 1-37.46-37.46V275.13a37.46 37.46 0 1 1 74.92 0v246.17a37.46 37.46 0 0 1-37.46 37.46" fill="currentColor"/><path d="M710.766 731.144a37.46 37.46 0 0 1-52.97 0L483.723 557.081a37.45 37.45 0 1 1 52.969-52.97l174.074 174.075a37.46 37.46 0 0 1 0 52.958" fill="currentColor"/></svg>