<svg xmlns="http://www.w3.org/2000/svg" width="32" height="32" viewBox="0 0 1024 1024"><path d="M95.135 274.387v517.955l833.73-60.446V231.658Zm429.631 224.325h26.576l73.472-37.778-40.123-13.548 22.927-37.778 29.18 9.379c7.296 1.824 35.174 14.85 38.56 14.85l13.549-2.344 54.192-27.096 29.442-11.985v-11.724l-8.859-.782-156.064 9.9-12.245 14.59-2.866 5.993-16.153 28.66-7.556.781c-8.077 0-31.526-11.724-44.292-14.85v-8.859l2.866-2.866 44.292-67.74 2.866-2.866 2.866-5.993 2.866-8.858c31.525.781 32.828 22.406 68 17.977 18.5-2.345 70.607-3.126 88.324-3.126l38.3-2.866h58.882l-.522 66.959-51.847 27.096-43.51 19.28-.782 4.168c14.59 3.388 61.488 23.71 70.867 23.71h32.568v41.426h-47.158c-19.02 0-86.24-38.3-115.16-38.3-18.498 0-89.886 53.15-120.89 53.15l-32.568 2.866zM203.26 383.554h8.859l53.15-3.388 51.327 61.488-57.32 4.69-5.992-.782c-8.077 0-20.843-24.751-32.567-32.567l-17.457-23.45ZM271 460.413l17.717 26.575 23.709 26.575 3.387 8.598-24.23.26H247.29l-23.71-29.44-14.85-17.717-5.993-14.851zm94.576 132.615-62.008 82.591-14.851 17.196-97.442 3.648h-14.59v-38.04l67.219-3.907 15.372-23.188 35.433-47.94-120.89 6.774v-41.426l23.709.782 56.016-3.648 97.442-5.992 2.866-174.823 29.702-2.084h29.44v174.04l73.734-2.865v38.3l-50.285 2.865-64.874 5.993zm61.748 88.584L415.6 661.029l-26.575-56.016-6.774-14.33 65.656-3.908 47.158 95.097h-67.74zm159.451-5.993h-2.866l-56.277 3.127 5.993-14.85 26.575-56.017 7.035-8.077 58.1-.781zm126.883-5.731h-59.142l-3.127-85.458h-11.724l-67.74 2.866-47.159 2.866v-41.426h23.71l103.174-2.866v-23.448h58.882v17.716l129.75-5.992v41.426h-56.017l-70.867 5.992v88.324zm109.167-5.211-35.434-.782-2.866-5.992-2.866-5.993-35.954-61.487 53.671-3.387h8.859l8.858 17.716 23.71 41.426 9.9 14.07z" fill="currentColor"/></svg>