<svg xmlns="http://www.w3.org/2000/svg" width="32" height="32" viewBox="0 0 1024 1024"><path d="M925.751 82.577h-827.5c-37.614 0-68.96 31.345-68.96 68.954v551.674c0 37.608 31.345 68.955 68.96 68.955h344.793v106.572h-175.53c-18.81 0-37.614 12.54-37.614 37.62v25.07h551.674v-25.07c0-18.813-12.54-37.62-37.622-37.62H580.959V772.16h344.795c37.609 0 68.956-31.343 68.956-68.955V151.531c0-37.609-31.347-68.954-68.959-68.954M474.387 722.01c0-18.803 12.539-37.608 37.616-37.608 18.805 0 37.615 12.531 37.615 37.608 0 18.809-12.539 37.612-37.615 37.612-18.807-6.267-37.616-18.805-37.616-37.612M79.441 640.516V164.071c0-18.803 6.27-31.345 31.345-31.345h802.428c25.072 0 31.344 12.54 31.344 37.618v470.172c0 18.806-6.274 25.07-25.079 25.07H104.521c-12.54 0-25.08 0-25.08-25.07" fill="currentColor"/><path d="M542.397 458.919h-58.54c0-22.518 2.248-40.537 6.755-51.795 6.755-13.5 18.014-27.018 38.274-40.527 18.014-13.51 27.02-27.019 27.02-45.033 0-15.76-4.502-27.019-13.51-36.024-6.756-6.755-18.011-9.007-29.272-9.007-13.512 0-24.769 4.503-33.774 11.258-9.007 6.756-13.51 20.264-15.762 40.528h-63.042c0-36.024 11.258-63.043 36.024-81.055 20.264-15.76 42.78-22.514 72.054-22.514 36.025 0 65.296 9.007 85.556 27.017 20.27 15.76 29.276 40.53 29.276 69.799 0 18.014-4.502 33.774-13.51 45.033-6.756 11.257-20.264 22.512-40.527 36.033-11.258 6.745-18.017 13.507-20.269 20.262-4.5 8.999-6.753 20.263-6.753 36.025m4.503 29.27v63.041h-65.297v-63.04z" fill="currentColor"/></svg>