<svg xmlns="http://www.w3.org/2000/svg" width="32" height="32" viewBox="0 0 1024 1024"><path d="M938.667 512a42.667 42.667 0 1 0-85.334 0zM512 170.667a42.667 42.667 0 1 0 0-85.334zm320 682.666H192v85.334h640zM170.667 832V192H85.333v640zm682.666-320v320h85.334V512zM192 170.667h320V85.333H192zm0 682.666A21.333 21.333 0 0 1 170.667 832H85.333A106.667 106.667 0 0 0 192 938.667zm640 85.334A106.667 106.667 0 0 0 938.667 832h-85.334A21.333 21.333 0 0 1 832 853.333zM170.667 192A21.333 21.333 0 0 1 192 170.667V85.333A106.667 106.667 0 0 0 85.333 192z" fill="currentColor"/><path d="M383.552 483.883a85.18 85.18 0 0 0-56.256 22.25L99.157 715.2a42.667 42.667 0 0 0-2.624 60.31 42.667 42.667 0 0 0 60.31 2.623l228.117-209.13 269.952 231.381a42.667 42.667 0 0 0 60.139-4.63 42.667 42.667 0 0 0-4.63-60.138l-269.93-231.403a85.14 85.14 0 0 0-56.96-20.33z" fill="currentColor"/><path d="M723.285 504.704a85.16 85.16 0 0 0-54.293 24.619L567.168 631.168a42.667 42.667 0 0 0 0 60.33 42.667 42.667 0 0 0 60.33 0l101.825-101.823L870.42 695.467a42.667 42.667 0 0 0 59.712-8.534A42.667 42.667 0 0 0 921.6 627.2L780.544 521.408a85.23 85.23 0 0 0-57.259-16.704m66.048-419.37A42.667 42.667 0 0 0 746.667 128v256a42.667 42.667 0 0 0 42.666 42.667A42.667 42.667 0 0 0 832 384V128a42.667 42.667 0 0 0-42.667-42.667" fill="currentColor"/><path d="M759.168 97.835 652.501 204.5a42.667 42.667 0 0 0 0 60.331 42.667 42.667 0 0 0 60.331 0l76.501-76.501 76.502 76.501a42.667 42.667 0 0 0 60.33 0 42.667 42.667 0 0 0 0-60.33L819.5 97.834a42.667 42.667 0 0 0-60.331 0" fill="currentColor"/></svg>