<svg xmlns="http://www.w3.org/2000/svg" width="32" height="32" viewBox="0 0 48 48"><path d="M7 6c-2.738 0-5 2.262-5 5v26c0 2.738 2.262 5 5 5h21a2 2 0 0 0 2-2 2 2 0 0 0-2-2H7c-.576 0-1-.424-1-1V11c0-.576.424-1 1-1h34c.576 0 1 .424 1 1v12.059a2 2 0 0 0 2 2 2 2 0 0 0 2-2V11c0-2.738-2.262-5-5-5Z" fill="currentColor"/><path d="M39 27a2 2 0 0 0-2 2v12a2 2 0 0 0 2 2 2 2 0 0 0 2-2V29a2 2 0 0 0-2-2" fill="currentColor"/><path d="m37.586 27.586-5 5a2 2 0 0 0 0 2.828 2 2 0 0 0 2.828 0L39 31.828l3.586 3.586a2 2 0 0 0 2.828 0 2 2 0 0 0 0-2.828l-5-5a2 2 0 0 0-2.828 0" fill="currentColor"/><path d="M7 6c-2.738 0-5 2.262-5 5v11h44V11c0-2.738-2.262-5-5-5Zm0 4h34c.576 0 1 .424 1 1v7H6v-7c0-.576.424-1 1-1" fill="currentColor"/><circle cx="16" cy="14" r="2"/><circle cx="10" cy="14" r="2"/></svg>