<svg xmlns="http://www.w3.org/2000/svg" width="32" height="32" viewBox="0 0 48 48"><path d="M44 24a2 2 0 1 0-4 0zM24 8a2 2 0 1 0 0-4zm15 32H9v4h30zM8 39V9H4v30zm32-15v15h4V24zM9 8h15V4H9zm0 32a1 1 0 0 1-1-1H4a5 5 0 0 0 5 5zm30 4a5 5 0 0 0 5-5h-4a1 1 0 0 1-1 1zM8 9a1 1 0 0 1 1-1V4a5 5 0 0 0-5 5z" fill="currentColor"/><path d="M17.979 22.682a4 4 0 0 0-2.637 1.043l-10.694 9.8a2 2 0 0 0-.123 2.827 2 2 0 0 0 2.827.123l10.693-9.803 12.654 10.846a2 2 0 0 0 2.819-.217 2 2 0 0 0-.217-2.819L20.648 23.635a4 4 0 0 0-2.67-.953" fill="currentColor"/><path d="M33.904 23.658a4 4 0 0 0-2.545 1.154l-4.773 4.774a2 2 0 0 0 0 2.828 2 2 0 0 0 2.828 0l4.773-4.773 6.614 4.959a2 2 0 0 0 2.799-.4 2 2 0 0 0-.4-2.8l-6.612-4.959a4 4 0 0 0-2.684-.783M37 4a2 2 0 0 0-2 2v12a2 2 0 0 0 2 2 2 2 0 0 0 2-2V6a2 2 0 0 0-2-2" fill="currentColor"/><path d="m35.586 4.586-5 5a2 2 0 0 0 0 2.828 2 2 0 0 0 2.828 0L37 8.828l3.586 3.586a2 2 0 0 0 2.828 0 2 2 0 0 0 0-2.828l-5-5a2 2 0 0 0-2.828 0" fill="currentColor"/></svg>