<svg xmlns="http://www.w3.org/2000/svg" width="32" height="32" viewBox="0 0 1024 1024"><path d="M896 469.333A42.667 42.667 0 0 0 853.333 512v341.333H170.667V512.171A42.667 42.667 0 0 0 128 469.504a42.667 42.667 0 0 0-42.667 42.667V896A42.667 42.667 0 0 0 128 938.667h768A42.667 42.667 0 0 0 938.667 896V512A42.667 42.667 0 0 0 896 469.333M481.835 97.835l-192 192a42.667 42.667 0 0 0 0 60.33 42.667 42.667 0 0 0 60.33 0L512 188.331l161.835 161.834a42.667 42.667 0 0 0 60.33 0 42.667 42.667 0 0 0 0-60.33l-192-192a42.667 42.667 0 0 0-60.33 0" fill="currentColor"/><path d="M511.83 85.333A42.667 42.667 0 0 0 469.162 128v554.667a42.667 42.667 0 0 0 42.666 42.666 42.667 42.667 0 0 0 42.667-42.666V128a42.667 42.667 0 0 0-42.667-42.667" fill="currentColor"/></svg>