<svg xmlns="http://www.w3.org/2000/svg" width="32" height="32" viewBox="0 0 1024 1024"><path d="M149.333 128c-58.41 0-106.666 48.256-106.666 106.667v554.666C42.667 847.744 90.923 896 149.333 896h448A42.667 42.667 0 0 0 640 853.333a42.667 42.667 0 0 0-42.667-42.666h-448c-12.288 0-21.333-9.046-21.333-21.334V234.667c0-12.288 9.045-21.334 21.333-21.334h725.334c12.288 0 21.333 9.046 21.333 21.334v257.258a42.667 42.667 0 0 0 42.667 42.667 42.667 42.667 0 0 0 42.666-42.667V234.667c0-58.411-48.256-106.667-106.666-106.667z" fill="currentColor"/><path d="M832 576a42.667 42.667 0 0 0-42.667 42.667v256A42.667 42.667 0 0 0 832 917.333a42.667 42.667 0 0 0 42.667-42.666v-256A42.667 42.667 0 0 0 832 576" fill="currentColor"/><path d="M801.835 588.501 695.168 695.168a42.667 42.667 0 0 0 0 60.33 42.667 42.667 0 0 0 60.33 0l76.502-76.5 76.501 76.5a42.667 42.667 0 0 0 60.331 0 42.667 42.667 0 0 0 0-60.33L862.165 588.501a42.667 42.667 0 0 0-60.33 0M149.333 128c-58.41 0-106.666 48.256-106.666 106.667v234.666h938.666V234.667c0-58.411-48.256-106.667-106.666-106.667zm0 85.333h725.334c12.288 0 21.333 9.046 21.333 21.334V384H128V234.667c0-12.288 9.045-21.334 21.333-21.334" fill="currentColor"/><path d="M298.667 298.667a42.667 42.667 0 1 0 85.333 0 42.667 42.667 0 1 0-85.333 0M170.667 298.667a42.667 42.667 0 1 0 85.333 0 42.667 42.667 0 1 0-85.333 0" fill="currentColor"/></svg>