<svg xmlns="http://www.w3.org/2000/svg" width="32" height="32" viewBox="0 0 1024 1024"><path d="M210.283 908.373V433.28c0-19.221-12.928-34.773-28.864-34.773h-61.654c-29.738 0-53.824 29.013-53.824 64.896v414.89c0 35.862 24.128 64.918 53.824 64.918h61.654c15.936 0 28.864-15.616 28.864-34.838M251.776 918.08V423.104c0-11.392 7.659-21.44 18.688-24.235 38.87-9.941 128.064-45.525 166.016-166.997 23.083-106.41 48.15-156.587 122.453-150.57 74.304 5.994 79.275 78.293 79.275 100.33v170.624s-6.016 26.09 19.05 28.117c25.11 2.006 220.843 0 220.843 0s107.392-1.813 73.259 131.563c-29.696 116.01-88.448 302.677-103.296 349.355a103.5 103.5 0 0 1-13.163 27.2c-14.357 20.949-44.544 54.592-90.666 54.592H276.843a24.917 24.917 0 0 1-25.067-25.003" fill="currentColor"/></svg>