<svg xmlns="http://www.w3.org/2000/svg" width="32" height="32" viewBox="0 0 1024 1024"><path d="M812 374H674s18-60 30-168c6-54-36-108-96-114h-12c-48 0-78 30-96 72l-36 90q-45 90-72 108c-24 12-114 12-120 12H152c-36 0-60 24-60 54v450c0 30 24 54 60 54h606c90 0 114-60 126-144l48-288c6-66-6-126-120-126M272 878H152V428h120zm600-384-48 288c-12 54-12 96-72 96H332V428c42 0 66-6 84-18 30-12 60-60 102-138 24-60 36-90 42-96 6-18 18-30 42-30h6c30 0 42 30 42 48-12 96-30 156-30 156l-24 78h228c18 0 30 0 42 12s6 36 6 54" fill="currentColor"/></svg>