<svg viewBox="0 0 1024 1024" xmlns:xlink="http://www.w3.org/1999/xlink" xmlns="http://www.w3.org/2000/svg" id="图层_1"><defs><style>.cls-1{fill:url(#未命名的渐变_4);}.cls-2{fill:#eef0f2;}.cls-3{fill:#d8d9db;}.cls-4{fill:url(#未命名的渐变_17);}.cls-5{fill:url(#未命名的渐变_16);}.cls-6{fill:url(#未命名的渐变_15);}.cls-7{fill:url(#未命名的渐变_14);}.cls-8{fill:url(#未命名的渐变_13);}</style><linearGradient gradientUnits="userSpaceOnUse" gradientTransform="matrix(280, 0, 0, -80, 219572.21, 152352.4)" y2="1897.52" x2="-782.36" y1="1893.87" x1="-782.36" id="未命名的渐变_4"><stop stop-opacity="0" stop-color="#e7e9eb" offset="0"></stop><stop stop-opacity="0.1" stop-color="#e7e9eb" offset="0.32"></stop><stop stop-color="#e7e9eb" offset="1"></stop></linearGradient><linearGradient gradientUnits="userSpaceOnUse" gradientTransform="matrix(143.34, 0, 0, -124.01, 112096.21, 235557.94)" y2="1894.79" x2="-777.54" y1="1898.41" x1="-779.28" id="未命名的渐变_17"><stop stop-color="#f2f2f2" offset="0"></stop><stop stop-color="#cecfd1" offset="1"></stop></linearGradient><linearGradient gradientUnits="userSpaceOnUse" gradientTransform="matrix(130, 0, 0, -106, 101591, 201501)" y2="1894.6" x2="-777.99" y1="1898.26" x1="-777.46" id="未命名的渐变_16"><stop stop-color="#f2f2f2" offset="0"></stop><stop stop-color="#d8d9db" offset="1"></stop></linearGradient><linearGradient gradientUnits="userSpaceOnUse" gradientTransform="matrix(18, 0, 0, -18, 13543, 34931)" y2="1919.83" x2="-715.41" y1="1919.83" x1="-719.07" id="未命名的渐变_15"><stop stop-color="#fff" offset="0"></stop><stop stop-opacity="0.5" stop-color="#fff" offset="1"></stop></linearGradient><linearGradient gradientUnits="userSpaceOnUse" gradientTransform="matrix(0, -40, -54, 0, 101563.4, -30549.19)" y2="1868.47" x2="-777.19" y1="1872.13" x1="-777.19" id="未命名的渐变_14"><stop stop-color="#fff" offset="0"></stop><stop stop-opacity="0.2" stop-color="#fff" offset="1"></stop></linearGradient><linearGradient gradientUnits="userSpaceOnUse" gradientTransform="matrix(0, -56, -66, 0, 124237.83, -43142.06)" y2="1874.04" x2="-779.47" y1="1877.69" x1="-779.47" id="未命名的渐变_13"><stop stop-color="#fff" offset="0"></stop><stop stop-opacity="0.7" stop-color="#fff" offset="1"></stop></linearGradient></defs><g id="暂无图片"><g id="背景"><path d="M3.31,707.15s48.41-155,212.54-153.9c90,.56,159.77,41.13,217.25,60.08,47.27,15.54,86.22,10.24,121.2,8.72,77.54-3.41,160.92-37.72,241.84-34.88,80.93,2.66,91.71,34.5,146.36,51.37,41.6,12.89,81.5,38.85,81.5,61,0,26.61-15.32,59.69-66,68.1-74.31,12.13-308.2,96.66-561.2,74.49C166.5,821.9,0,775.18,0,721.46A51.82,51.82,0,0,1,3.31,707.15Z" class="cls-1" id="路径_16806"></path><ellipse ry="36.57" rx="201.14" cy="809.23" cx="512" class="cls-2" id="椭圆_770"></ellipse><path d="M146.28,483.08s-1.71,14,3,20.42c1.7,2.27,11.15,7,11.91,18.34.57,11.15-4,31.76-33.47,32.91-27.22,1.14-62.58-8.13-52.56-48.78,6.43-21.18,26.47-16.82,24.39-52.75-.36-24.58,12.1-49.92,20.62-48.78,7.75.94,8.32,13,13.8,22.88C137.56,434.1,147.58,442.42,146.28,483.08Z" class="cls-2" id="路径_16807"></path><path d="M117.32,588.58c0,2.65,4.91,3.41,4.91-1.89-.19-5.12-.36-20.23-1.13-28.16-.19-2.26-1.51-7.18-1.32-8.51.56-3,4.53-12.66,5.48-15.69a128.88,128.88,0,0,0,4.35-42.73c-1.32-19.67-2.65-19.67-4.73-19.47s0,11.53.37,18.72a124.46,124.46,0,0,1-6.81,51.8c-.37,1-2.65,4.35-5.49-1.13s-16.45-24.77-8.69-43.3c2.46-5.67-1.14-4.91-4,.57a29.65,29.65,0,0,0-2.65,16.82,95.58,95.58,0,0,0,12.48,30.44,37.25,37.25,0,0,1,5.48,9.46C117,561.74,117.32,588.58,117.32,588.58Z" class="cls-3" id="路径_16808"></path><path d="M935.89,536s-1.7,14,3,20.42c1.7,2.27,11.15,7,11.91,18.34.56,11.16-4,31.77-33.47,32.91-27.23,1.14-62.58-8.12-52.56-48.78,6.43-21.17,26.47-16.82,24.39-52.75-.37-24.58,12.1-49.91,20.61-48.78,7.76.94,8.32,13,13.8,22.88C927.18,487.05,937.2,495.37,935.89,536Z" class="cls-2" id="路径_16809"></path><path d="M908.83,641.52c0,2.65,4.91,3.41,4.91-1.89-.19-5.12-.37-20.23-1.13-28.16-.19-2.26-1.52-7.18-1.33-8.51.57-3,4.54-12.67,5.49-15.69a128.9,128.9,0,0,0,4.35-42.73c-1.33-19.67-2.65-19.67-4.73-19.48s0,11.54.36,18.72a124.32,124.32,0,0,1-6.8,51.81c-.37.95-2.65,4.35-5.49-1.13s-16.46-24.77-8.69-43.3c2.45-5.67-1.14-4.91-4,.57a29.72,29.72,0,0,0-2.64,16.82A95.55,95.55,0,0,0,901.62,599a36.93,36.93,0,0,1,5.49,9.45C908.27,614.68,908.83,641.52,908.83,641.52Z" class="cls-3" id="路径_16810"></path><circle r="24.39" cy="274.9" cx="134.92" class="cls-2" id="椭圆_767"></circle><circle r="18.91" cy="526.75" cx="35.26" class="cls-2" id="椭圆_768"></circle><circle r="34.03" cy="350.55" cx="871.02" class="cls-2" id="椭圆_769"></circle></g><g id="组_17016"><path d="M708.34,633.13,312,563.26a36.57,36.57,0,0,1-29.67-42.36h0l54.75-310.45c3.15-17.92,14-30.23,35.91-30.23a27.41,27.41,0,0,1,6.45.56l396.3,69.87A36.58,36.58,0,0,1,805.46,293h0L750.71,603.47a36.58,36.58,0,0,1-36,30.23A36.06,36.06,0,0,1,708.34,633.13Z" class="cls-4" id="路径_16935"></path><rect rx="36.57" height="387.64" width="475.43" y="289.93" x="248.69" class="cls-5" id="矩形_17743"></rect><circle r="32.91" cy="374.04" cx="632.69" class="cls-6" id="椭圆_808"></circle><path d="M498.9,611.74H634.49c24-.15,38.82-21.14,26.92-37.38L594.3,484.59c-5.62-7.45-14.26-19.13-27.43-19.13-12.93,0-19.43,10.87-25.82,19.28l-68.49,90.39C460.27,591.52,474.9,611.9,498.9,611.74Z" class="cls-7" id="路径_16915"></path><path d="M344.82,611.74H510.54c29.33-.22,47.45-30,32.92-53.12l-82-127.57C454,419.55,444,407,427.89,407c-15.26,0-24.36,13.29-31.56,24.32l-83.7,128.44C297.61,583,315.48,612,344.82,611.74Z" class="cls-8" id="路径_16916"></path></g></g></svg>