<svg xmlns="http://www.w3.org/2000/svg" width="32" height="32" class="icon" viewBox="0 0 1024 1024"><path fill="#dd365e" d="M227.328 975.872H92.16c-12.288 0-23.552-10.24-23.552-23.552V109.568c0-11.264 9.216-21.504 21.504-21.504h137.216c12.288 0 23.552 10.24 23.552 23.552v841.728c0 12.288-10.24 22.528-23.552 22.528"/><path fill="#fc6b79" d="M230.4 975.872c10.24 3.072 20.48-9.216 20.48-20.48V108.544c0-11.264-9.216-20.48-20.48-20.48H90.112c-11.264 0-20.48 9.216-20.48 20.48l54.272 756.736s-5.12 74.752 106.496 110.592"/><path fill="#330867" d="M206.848 100.352c17.408 0 30.72 13.312 30.72 30.72v801.792c0 17.408-13.312 30.72-30.72 30.72H112.64c-17.408 0-30.72-13.312-30.72-30.72V131.072c0-17.408 13.312-30.72 30.72-30.72zm0-30.72H112.64c-33.792 0-61.44 27.648-61.44 61.44v801.792c0 33.792 27.648 61.44 61.44 61.44h94.208c33.792 0 61.44-27.648 61.44-61.44V131.072c0-33.792-26.624-61.44-61.44-61.44"/><path fill="#f9b52b" d="M490.496 985.088H355.328c-12.288 0-23.552-10.24-23.552-23.552V118.784c0-11.264 9.216-21.504 21.504-21.504h137.216c12.288 0 23.552 10.24 23.552 23.552V962.56c-1.024 12.288-11.264 22.528-23.552 22.528"/><path fill="#ffe08a" d="M492.544 985.088c10.24 3.072 20.48-9.216 20.48-20.48V117.76c0-11.264-9.216-20.48-20.48-20.48H352.256c-11.264 0-20.48 9.216-20.48 20.48l54.272 756.736s-4.096 74.752 106.496 110.592"/><path fill="#330867" d="M470.016 109.568c17.408 0 30.72 13.312 30.72 30.72V942.08c0 17.408-13.312 30.72-30.72 30.72h-94.208c-17.408 0-30.72-13.312-30.72-30.72V140.288c0-17.408 13.312-30.72 30.72-30.72zm0-30.72h-94.208c-33.792 0-61.44 27.648-61.44 61.44V942.08c0 33.792 27.648 61.44 61.44 61.44h94.208c33.792 0 61.44-27.648 61.44-61.44V140.288c0-33.792-27.648-61.44-61.44-61.44"/><path fill="#330867" d="M314.368 328.704h217.088v27.648H314.368z"/><path fill="#66c1ff" d="m953.344 931.84-130.048 36.864c-12.288 3.072-24.576-3.072-28.672-15.36L562.176 141.312c-3.072-11.264 3.072-22.528 14.336-25.6l132.096-37.888c12.288-3.072 24.576 4.096 28.672 15.36l232.448 808.96c3.072 13.312-4.096 25.6-16.384 29.696"/><path fill="#330867" d="M714.752 89.088c4.096 0 8.192 2.048 10.24 7.168L957.44 906.24c2.048 5.12-2.048 11.264-7.168 12.288l-130.048 36.864h-3.072c-4.096 0-8.192-2.048-10.24-7.168L574.464 140.288c-1.024-3.072 0-6.144 1.024-8.192 1.024-1.024 3.072-4.096 6.144-5.12L711.68 90.112c1.024 0 2.048-1.024 3.072-1.024m0-30.72c-4.096 0-7.168 1.024-11.264 2.048L573.44 97.28c-21.504 6.144-34.816 28.672-27.648 50.176L778.24 957.44c5.12 18.432 21.504 29.696 38.912 29.696 4.096 0 7.168-1.024 11.264-2.048l130.048-36.864c21.504-6.144 34.816-28.672 27.648-50.176L754.688 88.064c-5.12-17.408-21.504-29.696-39.936-29.696"/><path fill="#330867" d="m603.546 348.027 208.69-59.843 7.63 26.573-208.692 59.853z"/><path fill="#99caff" d="M591.872 103.424 685.056 76.8l35.84 124.928-51.2-25.6c-1.024-1.024-3.072-2.048-4.096-2.048-3.072 0-7.168 2.048-9.216 5.12l-29.696 48.128z"/><path fill="#330867" d="m677.888 89.088 26.624 92.16-29.696-15.36c-3.072-1.024-6.144-2.048-9.216-2.048-7.168 0-13.312 3.072-17.408 10.24l-17.408 28.672-26.624-92.16zm14.336-25.6L578.56 96.256l39.936 139.264c1.024 4.096 4.096 6.144 8.192 6.144 3.072 0 5.12-1.024 7.168-4.096L665.6 184.32l55.296 27.648c1.024 1.024 2.048 1.024 4.096 1.024 5.12 0 9.216-5.12 8.192-10.24z"/></svg>