<svg xmlns="http://www.w3.org/2000/svg" width="32" height="32" class="icon" viewBox="0 0 1024 1024"><path fill="#59ADF8" d="M59 511a451 451 0 1 0 902 0 451 451 0 1 0-902 0"/><path fill="#FFF" d="M655 339c-11 0-21-9-21-20v-74a21 21 0 1 1 42 0v74c0 11-9 20-21 20"/><path fill="#FFF" d="M703 262v57c0 24-24 43-48 43s-48-19-48-43v-57H430v57c0 24-25 43-48 43-24 0-49-19-49-43v-57c-45 2-81 39-81 85v67h530v-67c0-45-35-81-79-85"/><path fill="#FFF" d="M382 339c-12 0-21-9-21-20v-74a21 21 0 1 1 41 0v74c0 11-9 20-20 20M252 456v223c0 47 38 85 85 85h360c47 0 85-38 85-85V456zm149 249h-76v-76h76zm0-125h-76v-76h76zm154 125h-76v-76h76zm0-125h-76v-76h76zm154 125h-76v-76h76zm0-125h-76v-76h76z"/></svg>