<svg xmlns="http://www.w3.org/2000/svg" width="32" height="32" class="icon" viewBox="0 0 1024 1024"><path fill="#ea4335" d="M165.78 214.548C377.95-32.35 771.406 16.376 918.456 304.886H564.978c-63.674 0-104.791-1.446-149.333 21.985-52.338 27.577-91.82 78.66-105.628 138.644L165.78 214.586z"/><path fill="#4285f4" d="M360.15 511.997c0 83.68 68.048 151.767 151.69 151.767 83.682 0 151.692-68.086 151.692-151.767 0-83.682-68.048-151.768-151.691-151.768-83.681 0-151.691 68.086-151.691 151.768"/><path fill="#34a853" d="M570.722 710.663c-85.165 25.295-184.783-2.776-239.366-96.994-41.689-71.89-151.768-263.672-201.786-350.852-175.236 268.54-24.192 634.57 293.911 697.026l147.203-249.18z"/><path fill="#fbbc05" d="M652.73 360.23a207.834 207.834 0 0 1 38.34 255.531c-36.172 62.38-151.69 257.358-207.68 351.766 327.763 20.197 566.749-301.025 458.8-607.336H652.73Z"/></svg>