<svg xmlns="http://www.w3.org/2000/svg" width="32" height="32" class="icon" viewBox="0 0 1024 1024"><path fill="#fc6b79" d="M943.104 881.664h-235.52c-21.504 0-39.936-17.408-39.936-39.936V147.456c0-21.504 17.408-39.936 39.936-39.936h235.52c21.504 0 39.936 17.408 39.936 39.936v694.272c0 21.504-17.408 39.936-39.936 39.936"/><path fill="#330867" d="M943.104 897.024h-235.52c-30.72 0-55.296-24.576-55.296-55.296V147.456c0-30.72 24.576-55.296 55.296-55.296h235.52c30.72 0 55.296 24.576 55.296 55.296v694.272c0 29.696-24.576 55.296-55.296 55.296M707.584 122.88c-13.312 0-24.576 11.264-24.576 24.576v694.272c0 13.312 11.264 24.576 24.576 24.576h235.52c13.312 0 24.576-11.264 24.576-24.576V147.456c0-13.312-11.264-24.576-24.576-24.576z"/><path fill="#ffe08a" d="M906.24 288.768H744.448c-18.432 0-33.792-15.36-33.792-33.792v-5.12c0-18.432 15.36-33.792 33.792-33.792H906.24c18.432 0 33.792 15.36 33.792 33.792V256c0 18.432-15.36 32.768-33.792 32.768"/><path fill="#330867" d="M906.24 304.128H744.448c-26.624 0-49.152-21.504-49.152-49.152v-5.12c0-26.624 21.504-49.152 49.152-49.152H906.24c26.624 0 49.152 21.504 49.152 49.152V256c0 26.624-21.504 48.128-49.152 48.128m-161.792-71.68a18.355 18.355 0 0 0-18.432 18.432V256a18.355 18.355 0 0 0 18.432 18.432H906.24A18.355 18.355 0 0 0 924.672 256v-5.12a18.355 18.355 0 0 0-18.432-18.432z"/><path fill="#66c1ff" d="M702.464 609.28H77.824c-22.528 0-40.96-18.432-40.96-40.96V210.944c0-22.528 18.432-40.96 40.96-40.96h624.64c22.528 0 40.96 18.432 40.96 40.96V568.32c0 22.528-18.432 40.96-40.96 40.96"/><path fill="#330867" d="M702.464 624.64H77.824c-30.72 0-56.32-25.6-56.32-56.32V210.944c0-30.72 25.6-56.32 56.32-56.32h624.64c30.72 0 56.32 25.6 56.32 56.32V568.32c0 30.72-25.6 56.32-56.32 56.32M76.8 185.344c-14.336 0-25.6 11.264-25.6 25.6V568.32c0 14.336 12.288 25.6 25.6 25.6h624.64c14.336 0 25.6-11.264 25.6-25.6V210.944c0-14.336-11.264-25.6-25.6-25.6z"/><path fill="#ffe08a" d="M702.464 718.848H77.824c-22.528 0-40.96-18.432-40.96-40.96v-102.4h706.56v102.4c0 22.528-18.432 40.96-40.96 40.96"/><path fill="#330867" d="M702.464 734.208H77.824c-30.72 0-56.32-25.6-56.32-56.32v-117.76h737.28v117.76c0 30.72-25.6 56.32-56.32 56.32M51.2 590.848v87.04c0 14.336 11.264 25.6 25.6 25.6h624.64c14.336 0 25.6-11.264 25.6-25.6v-87.04z"/><path fill="#fc6b79" d="M342.016 718.848h95.232v95.232h-95.232z"/><path fill="#330867" d="M452.608 829.44H326.656V703.488h125.952zm-95.232-30.72h64.512v-64.512h-64.512z"/><path fill="#fc6b79" d="M625.664 890.88H153.6c-11.264 0-21.504-9.216-21.504-21.504V834.56c0-11.264 9.216-21.504 21.504-21.504h473.088c11.264 0 21.504 9.216 21.504 21.504v34.816c-1.024 12.288-10.24 21.504-22.528 21.504"/><path fill="#330867" d="M625.664 906.24H153.6c-20.48 0-36.864-16.384-36.864-36.864V834.56c0-20.48 16.384-36.864 36.864-36.864h473.088c20.48 0 36.864 16.384 36.864 36.864v34.816c-1.024 20.48-17.408 36.864-37.888 36.864M153.6 829.44c-3.072 0-6.144 2.048-6.144 6.144V870.4c0 3.072 2.048 6.144 6.144 6.144h473.088c3.072 0 6.144-2.048 6.144-6.144v-34.816c0-3.072-2.048-6.144-6.144-6.144z"/><path fill="#9555b5" d="M791.552 365.568a19.456 19.456 0 1 0 38.912 0 19.456 19.456 0 1 0-38.912 0"/><path fill="#330867" d="M811.008 390.144c-13.312 0-24.576-11.264-24.576-24.576s11.264-24.576 24.576-24.576 24.576 11.264 24.576 24.576-11.264 24.576-24.576 24.576m0-38.912c-8.192 0-14.336 6.144-14.336 14.336s6.144 14.336 14.336 14.336 14.336-6.144 14.336-14.336-6.144-14.336-14.336-14.336"/><path fill="#ffe08a" d="M877.568 365.568a19.456 19.456 0 1 0 38.912 0 19.456 19.456 0 1 0-38.912 0"/><path fill="#330867" d="M897.024 390.144c-13.312 0-24.576-11.264-24.576-24.576s11.264-24.576 24.576-24.576 24.576 11.264 24.576 24.576-11.264 24.576-24.576 24.576m0-38.912c-8.192 0-14.336 6.144-14.336 14.336s6.144 14.336 14.336 14.336 14.336-6.144 14.336-14.336-6.144-14.336-14.336-14.336M916.48 471.04H748.544a9.18 9.18 0 0 1-9.216-9.216V460.8a9.18 9.18 0 0 1 9.216-9.216H916.48a9.18 9.18 0 0 1 9.216 9.216v1.024a9.18 9.18 0 0 1-9.216 9.216M921.6 570.368H753.664a9.18 9.18 0 0 1-9.216-9.216v-1.024a9.18 9.18 0 0 1 9.216-9.216H921.6a9.18 9.18 0 0 1 9.216 9.216v1.024c0 6.144-4.096 9.216-9.216 9.216"/><path fill="#ffe08a" d="M887.808 733.184c0 23.552-19.456 43.008-43.008 43.008s-43.008-19.456-43.008-43.008 19.456-43.008 43.008-43.008 43.008 19.456 43.008 43.008"/><path fill="#330867" d="M844.8 781.312c-26.624 0-48.128-21.504-48.128-48.128s21.504-48.128 48.128-48.128 48.128 21.504 48.128 48.128-21.504 48.128-48.128 48.128m0-86.016c-20.48 0-37.888 17.408-37.888 37.888s17.408 37.888 37.888 37.888 37.888-17.408 37.888-37.888-17.408-37.888-37.888-37.888"/></svg>