<svg xmlns="http://www.w3.org/2000/svg" width="32" height="32" class="icon" viewBox="0 0 1024 1024"><path fill="#f4ca1c" d="M760.934 187.085c47.207 66.713 75.06 148.121 75.06 236.083 0 225.997-183.194 409.19-409.19 409.19-92.007 0-176.897-30.361-245.249-81.612 74.138 104.704 196.096 173.107 334.131 173.107 225.997 0 409.19-183.194 409.19-409.19 0-133.991-64.409-252.929-163.942-327.578"/><path fill="#595bb3" d="M515.686 954.624c-242.585 0-439.91-197.376-439.91-439.91S273.101 74.752 515.686 74.752s439.91 197.376 439.91 439.91-197.324 439.962-439.91 439.962m0-818.432c-208.69 0-378.47 169.78-378.47 378.47s169.78 378.47 378.47 378.47c208.692 0 378.47-169.778 378.47-378.47s-169.778-378.47-378.47-378.47"/><path fill="#595bb3" d="M515.686 758.63c-65.177 0-126.412-25.395-172.492-71.475s-71.476-107.315-71.476-172.493 25.396-126.412 71.476-172.492c95.13-95.13 249.856-95.13 344.985 0 11.981 11.98 11.981 31.436 0 43.468-11.98 11.981-31.437 11.981-43.469 0-71.168-71.168-186.93-71.168-258.099 0-34.457 34.458-53.453 80.282-53.453 129.024s18.996 94.567 53.453 129.024 80.282 53.453 129.075 53.453c48.743 0 94.567-18.995 129.076-53.453a30.72 30.72 0 0 1 43.417 0 30.72 30.72 0 0 1 0 43.418c-46.08 46.131-107.366 71.526-172.493 71.526"/></svg>