<svg xmlns="http://www.w3.org/2000/svg" width="32" height="32" class="icon" viewBox="0 0 1024 1024"><path fill="#fff" d="M272 80h480q128 0 128 128v608q0 128-128 128H272q-128 0-128-128V208q0-128 128-128"/><path fill="#c4f08b" d="M304 128h448q112 0 112 112v576q0 112-112 112H304q-112 0-112-112V240q0-112 112-112"/><path fill="#333" d="M544 960H272c-79.4 0-144-64.6-144-144V208c0-79.4 64.6-144 144-144h480c79.4 0 144 64.6 144 144v208a16 16 0 0 1-32 0V208A112.12 112.12 0 0 0 752 96H272a112.12 112.12 0 0 0-112 112v608a112.12 112.12 0 0 0 112 112h272a16 16 0 0 1 0 32"/><path fill="#333" d="M624 352H336a16 16 0 0 1 0-32h288a16 16 0 0 1 0 32m-64 192H336a16 16 0 0 1 0-32h224a16 16 0 0 1 0 32m-96 224H352a32 32 0 0 1 0-64h112a32 32 0 0 1 0 64"/><path fill="#fff" d="m648.33 762.06 115.46-200a96.5 96.5 0 0 1 131.82-35.32 96.49 96.49 0 0 1 35.32 131.82L815.31 858.85a112 112 0 0 1-59.91 49.68l-99.85 35-20.18-104.18a112 112 0 0 1 12.96-77.29"/><path fill="#ff9580" d="M691.3 767.46 809 575.32a69.25 69.25 0 0 1 99.67-19.92A69.25 69.25 0 0 1 928 646.08L784.56 894.79l-70.82 21.36a32 32 0 0 1-41.24-30.61v-51.11a128 128 0 0 1 18.8-66.97"/><path fill="#333" d="M655.55 959.57a16 16 0 0 1-15.71-13l-20.18-104.18a128 128 0 0 1 14.82-88.33l115.46-200a112.5 112.5 0 0 1 194.85 112.5L829.17 866.85a128.07 128.07 0 0 1-68.47 56.78l-99.86 35a16.1 16.1 0 0 1-5.29.94m6.64-189.51a96 96 0 0 0-11.11 66.25l16.65 86 82.37-28.91a96 96 0 0 0 51.36-42.58l115.62-200.24a80.5 80.5 0 0 0-139.43-80.5z"/></svg>