<svg xmlns="http://www.w3.org/2000/svg" width="32" height="32" class="icon" viewBox="0 0 1024 1024"><path fill="#fff" d="M512 240 290 129a64 64 0 0 0-89.34 37L176 240zm0 0 222-111a64 64 0 0 1 89.34 37L848 240z"/><path fill="#ff8591" d="m448 224-148.68-49.56a52.65 52.65 0 0 0-63.74 26.4A16 16 0 0 0 249.89 224zm127.74 0 148.67-49.56a52.66 52.66 0 0 1 63.75 26.4A16 16 0 0 1 773.85 224z"/><path fill="#333" d="M579.78 256h-426l31.71-95a80 80 0 0 1 111.67-46.26zM198.2 224h246l-161.35-80.69a48 48 0 0 0-67 27.76z"/><path fill="#333" d="M870.2 256h-426l282.64-141.31A80 80 0 0 1 838.51 161zm-290.42-32h246l-17.64-52.93a48 48 0 0 0-67-27.76z"/><path fill="#fff" d="M144 400h736v352a128 128 0 0 1-128 128H272a128 128 0 0 1-128-128z"/><path fill="#ff8591" d="M304 480h448q112 0 112 112v160q0 112-112 112H304q-112 0-112-112V592q0-112 112-112"/><path fill="#333" d="M752 896H272c-79.4 0-144-64.6-144-144V384h768v368c0 79.4-64.6 144-144 144M160 416v336a112.12 112.12 0 0 0 112 112h480a112.12 112.12 0 0 0 112-112V416z"/><path fill="#fff" d="M144 240h736q64 0 64 64v64q0 64-64 64H144q-64 0-64-64v-64q0-64 64-64"/><path fill="#ffe07a" d="M176 288h704q48 0 48 48v33q0 48-48 48H176q-48 0-48-48v-33q0-48 48-48"/><path fill="#333" d="M880 448H144a80.09 80.09 0 0 1-80-80v-64a80.09 80.09 0 0 1 80-80h736a80.09 80.09 0 0 1 80 80v64a80.09 80.09 0 0 1-80 80M144 256a48.05 48.05 0 0 0-48 48v64a48.05 48.05 0 0 0 48 48h736a48.05 48.05 0 0 0 48-48v-64a48.05 48.05 0 0 0-48-48z"/><path fill="#fff" d="m608 528-96-64-96 64V240h192z"/><path fill="#a89bfa" d="m592 512-80-64-23.12 15.42A16 16 0 0 1 464 450.1V321a32 32 0 0 1 32-32h64a32 32 0 0 1 32 32z"/><path fill="#333" d="M608 544a16 16 0 0 1-8.88-2.69L512 483.23l-87.12 58.08A16 16 0 0 1 400 528V240a16 16 0 0 1 16-16h192a16 16 0 0 1 16 16v288a16 16 0 0 1-16 16m-96-96a16 16 0 0 1 8.88 2.69L592 498.1V256H432v242.1l71.12-47.41A16 16 0 0 1 512 448"/></svg>