<svg xmlns="http://www.w3.org/2000/svg" width="32" height="32" class="icon" viewBox="0 0 1024 1024"><path fill="#fff" d="M784 912H240a128 128 0 0 1-128-128V419.66a128 128 0 0 1 55.91-105.77l272-185.4a128 128 0 0 1 144.18 0l272 185.4A128 128 0 0 1 912 419.66V784a128 128 0 0 1-128 128"/><path fill="#ffe07a" d="M784 896H272a112 112 0 0 1-112-112V427.24a112 112 0 0 1 49-92.58l242.63-165.21A112 112 0 0 1 574 167l269.3 168.11a112 112 0 0 1 52.7 95V784a112 112 0 0 1-112 112"/><path fill="#333" d="M784 928H240c-79.4 0-144-64.6-144-144V419.66a143.91 143.91 0 0 1 62.89-119l272-185.4a144 144 0 0 1 162.22 0l272 185.4a143.91 143.91 0 0 1 62.89 119V784c0 79.4-64.6 144-144 144M512 122.12a111.8 111.8 0 0 0-63.08 19.59l-272 185.4A111.93 111.93 0 0 0 128 419.66V784a112.12 112.12 0 0 0 112 112h544a112.12 112.12 0 0 0 112-112V419.66a111.93 111.93 0 0 0-48.92-92.55l-272-185.4A111.8 111.8 0 0 0 512 122.12"/><path fill="#333" d="M288 449h128q32 0 32 32t-32 32H288q-32 0-32-32t32-32"/><path fill="#fff" d="M432 656h160a64 64 0 0 1 64 64v192H368V720a64 64 0 0 1 64-64"/><path fill="#ff9580" d="M464 704h128a48 48 0 0 1 48 48v144H464a48 48 0 0 1-48-48v-96a48 48 0 0 1 48-48"/><path fill="#333" d="M672 928H352V720a80.09 80.09 0 0 1 80-80h160a80.09 80.09 0 0 1 80 80zm-288-32h256V720a48.05 48.05 0 0 0-48-48H432a48.05 48.05 0 0 0-48 48z"/></svg>