<svg xmlns="http://www.w3.org/2000/svg" width="32" height="32" class="icon" viewBox="0 0 1024 1024"><path fill="#f4ca1c" d="M476.457 416.19a10.752 10.752 0 0 0-14.915 9.17 92.07 92.07 0 0 1-43.177 78.29c-54.589 36.525-84.761 85.703-90.772 136.089-20.311 170.26 184.033 191.708 185.646 191.488 8.361-1.142 273.306-47.15 142.991-312.75-3.691-7.527-17.177-.42-17.408 7.849a164.9 164.9 0 0 1-13.88 45.414c-10.752 19.692-35.502 22.344-36.04-6.681-.88-47.939-21.437-113.552-112.445-148.87"/><path fill="#595bb3" d="M525.271 967.68c-13.594 0-183.47-4.833-297.042-116.495-77.092-75.802-107.52-180.096-90.49-309.98 15.523-118.273 81.202-224.559 184.944-299.275a157.6 157.6 0 0 0 67.702-132.198 53.637 53.637 0 0 1 74.29-49.285c198.99 83.138 231.25 244.137 232.771 332.713.041 2.447.19 4.526.395 6.287a37 37 0 0 0 4.664-7.168c8.525-16.804 22.323-66.283 22.625-78.126.712-27.935 24.105-49.316 46.31-53.847a44.27 44.27 0 0 1 50.125 24.914c87.399 191.19 97.89 350.264 31.171 472.79-92.98 170.799-302.966 206.178-326.605 209.67zm-69.135-838.246a223.28 223.28 0 0 1-94.51 166.461c-88.694 63.877-144.753 154.066-157.85 253.962-13.097 99.79 6.303 180.373 57.651 239.53 86.323 99.445 239.12 111.011 257.741 112.03 24.99-4.163 200.346-37.888 275.098-175.186 50.519-92.785 46.55-214.62-11.68-362.7a362.5 362.5 0 0 1-20.653 58.823c-17.92 35.369-50.898 54.333-82.064 47.18-11.228-2.56-47.953-15.626-48.977-75.227-1.475-85.028-33.496-198.426-174.756-264.873m-17.132-7.578h.03-.04z"/></svg>