<svg xmlns="http://www.w3.org/2000/svg" width="32" height="32" class="icon" viewBox="0 0 1024 1024"><path fill="#ff5c64" d="M53.504 519.834a450.816 450.816 0 1 0 901.632 0 450.816 450.816 0 1 0-901.632 0"/><path fill="#fff" d="M780.704 433.616c-4.896-20.208-23.424-53.808-42.624-81.456-8.448-12.144-27.168-9.168-31.584 4.992-6.912 21.888-17.904 47.04-37.008 69.648-3.504 4.128-10.32 2.016-10.656-3.408-3.648-56.016-30.192-200.832-217.392-221.184-12.912-1.392-22.992 11.136-18.768 23.424 14.112 41.28 25.44 120.624-39.216 169.248-2.64 1.968-6.288 1.296-8.352-1.248-21.552-27.456-48.432-44.304-84.864-51.12-12.72-2.352-23.424 9.216-20.496 21.84 5.664 24.336 8.016 65.856-15.168 122.4-38.928 94.8-83.808 323.76 273.36 323.76s259.632-348.528 252.768-376.896m-416.976 255.84a28.387 28.387 0 0 1-40.176-1.344c-47.568-50.88-26.88-145.776-24.384-156.432 3.6-15.264 18.912-24.768 34.176-21.12a28.37 28.37 0 0 1 21.12 34.128c-4.512 19.392-12.24 80.16 10.56 104.592 10.752 11.472 10.176 29.472-1.296 40.176"/></svg>