<svg xmlns="http://www.w3.org/2000/svg" width="32" height="32" class="icon" viewBox="0 0 1024 1024"><path fill="#FF5C64" d="M54 520a451 451 0 1 0 901 0 451 451 0 1 0-901 0"/><path fill="#FFF" d="M781 434c-5-21-24-54-43-82-8-12-27-9-32 5-6 22-17 47-37 70-3 4-10 2-10-4-4-56-30-200-218-221-12-1-23 11-18 24 14 41 25 120-40 169-2 2-6 1-8-1-21-28-48-45-85-51-12-3-23 9-20 21 5 25 8 66-15 123-39 95-84 324 273 324s260-349 253-377M364 689a28 28 0 0 1-40-1c-48-51-27-146-25-156 4-16 19-25 34-21a28 28 0 0 1 21 34c-4 19-12 80 11 104 11 12 10 30-1 40"/></svg>