<svg xmlns="http://www.w3.org/2000/svg" width="32" height="32" class="icon" viewBox="0 0 1024 1024"><path fill="#fff" d="M80 208v251a128 128 0 0 0 37.49 90.51l352 352a128 128 0 0 0 181 0l251-251a128 128 0 0 0 0-181l-352-352A128 128 0 0 0 459 80H208A128 128 0 0 0 80 208"/><path fill="#f28df2" d="M128 240v193.61a112 112 0 0 0 32.8 79.19l352 352a112 112 0 0 0 158.4 0l195-195a112 112 0 0 0 1.38-157L529 162.21A112 112 0 0 0 448.45 128H240a112 112 0 0 0-112 112"/><path fill="#333" d="M560 955a143 143 0 0 1-101.82-42.2l-352-352A143 143 0 0 1 64 459V208c0-79.4 64.6-144 144-144h251a143 143 0 0 1 101.8 42.18l352 352a144 144 0 0 1 0 203.64l-251 251A143.05 143.05 0 0 1 560 955M208 96A112.12 112.12 0 0 0 96 208v251a111.3 111.3 0 0 0 32.8 79.2l352 352a112 112 0 0 0 158.4 0l251-251a112 112 0 0 0 0-158.4l-352-352A111.3 111.3 0 0 0 459 96z"/><path fill="#fff" d="M256 360a104 104 0 1 0 208 0 104 104 0 1 0-208 0"/><path fill="#82dafa" d="M304 376a72 72 0 1 0 144 0 72 72 0 1 0-144 0"/><path fill="#333" d="M360 480a120 120 0 1 1 120-120 120.13 120.13 0 0 1-120 120m0-208a88 88 0 1 0 88 88 88.1 88.1 0 0 0-88-88m248 464a32 32 0 0 1-22.63-54.63l96-96a32 32 0 0 1 45.26 45.26l-96 96A31.9 31.9 0 0 1 608 736"/></svg>