<svg xmlns="http://www.w3.org/2000/svg" width="32" height="32" class="icon" viewBox="0 0 1024 1024"><path fill="#FF5C64" d="M63 514a451 451 0 1 0 902 0 451 451 0 1 0-902 0"/><path fill="#FFF" d="M820 406c-23-102-103-166-216-143-36 8-64 27-89 53l-4-2-4-4c-33-34-73-49-119-51-56-2-103 16-138 59-62 76-64 189-6 270q45 61.5 105 108c40 33 81 64 123 95 26 20 54 21 79 3 71-51 142-102 201-167 57-63 87-135 68-221M349 547a29 29 0 0 1-40-6c-55-76-15-145-14-148a29 29 0 0 1 40-9 29 29 0 0 1 10 39c-3 4-21 40 11 84 9 13 6 31-7 40"/></svg>