<svg xmlns="http://www.w3.org/2000/svg" width="32" height="32" class="icon" viewBox="0 0 1024 1024"><path fill="#fff" d="m478.985 334.949-12.223-12.223c-.924-.924-4.046-3.405-2.89-2.655-1.712-1.171-3.481-2.262-5.357-3.153l-.197-.095-.092-.031c-1.194-.405-2.39-.811-3.615-1.113-.886-.218-4.053-.665-3.655-.689-.453-.029-.907-.061-1.361-.067-1.249-.018-2.502-.035-3.749.053-.384.027-1.059.126-1.632.217-1.949.407-3.882.905-5.75 1.6l-.161.059-.128.066c-1.143.585-2.288 1.171-3.376 1.855-.746.469-3.641 2.784-2.952 2.125-.541.488-1.074.984-1.591 1.501l-.062.062-.492.492-2.539 2.539-10.705 10.705-96.468 96.468-126.324 126.324-81.54 81.54-4.641 4.641c-.629.629-3.171 3.85-2.445 2.724-1.133 1.667-2.186 3.389-3.052 5.211l-.095.197-.031.092c-.405 1.194-.812 2.39-1.113 3.615-.217.88-.419 1.765-.596 2.654-.052.431-.096.852-.108 1.113-.071 1.664-.118 3.335 0 4.998.027.383.126 1.058.216 1.631.407 1.95.905 3.883 1.6 5.752l.059.161.066.128c.585 1.143 1.171 2.288 1.855 3.376.377.599.758 1.197 1.151 1.786.432.506 1.232 1.476 1.539 1.793 10.788 11.116 21.902 21.931 32.855 32.883l11.496 11.496c.486-.07.972-.142 1.473-.237l-5.707-5.923c-21.534-21.534-13.451-58.053 8.083-79.588l274.89-274.89c21.534-21.534 56.448-21.534 77.983 0l1.52 1.52.258-.319zm265.866-89.36c21.534-21.534 56.448-21.534 77.983 0l7.228 7.228.23-.284-48.583-48.583-1.182-1.182c-.351-.351-.701-.704-1.067-1.038-.517-.472-2.471-1.966-2.074-1.727-.493-.334-.992-.66-1.505-.963a57 57 0 0 0-3.109-1.724c-.596-.237-1.384-.549-1.753-.662-1.203-.37-2.408-.741-3.639-1.007a29 29 0 0 0-1.49-.246c-6.173.145-13.547 2.66-21.868 9.791-12.933 11.083-94.065 92.737-171.579 171.228l20.789 20.789zM546.334 402.875l20.615 20.615.289-.289-20.617-20.617z"/><path fill="#53affd" d="M397.715 589.881c-11.46-11.46-18.615-25.08-20.23-41.345-1.89-19.031 6.146-37.245 19.436-50.535l91.731-91.731c7.081-7.081 18.913-7.081 25.994 0s7.081 18.913 0 25.994l-53.048 53.048-28.381 28.381c-4.518 4.518-9.424 8.859-13.597 13.711l-.354.421c-.249.359-.508.71-.746 1.076-.686 1.091-1.373 2.184-1.961 3.332-.265.519-.825 1.9-1.012 2.331a27 27 0 0 0-.473 1.499c-.335 1.211-.67 2.425-.901 3.661l-.066.347c-.153 2.266-.206 4.545-.012 6.81.108.57.213 1.141.343 1.706.301 1.222.602 2.447 1.007 3.64.184.541.757 1.84.949 2.298.25.49.505.978.784 1.452.656 1.115 1.313 2.232 2.067 3.286l.036.051.34.368a62 62 0 0 0 1.902 2.016l10.575 10.575 46.235 46.235.669-.67 35.265 36.604 30.105 30.105 12.864 12.864a54 54 0 0 0 2.005 1.926q.877.708 1.735 1.357c.785.519 1.576 1.029 2.402 1.483q1.042.574 2.105 1.113c.581.231 1.298.513 1.646.62 1.602.493 3.216.964 4.867 1.272l.347.066c2.326.157 4.666.213 6.991 0l.298-.066c1.228-.265 2.459-.531 3.661-.901q1.08-.33 2.151-.696c.588-.264 1.347-.607 1.679-.79 1.508-.828 3.01-1.682 4.411-2.685l.051-.036.368-.34c.682-.624 1.324-1.211 1.978-1.865l.411-.411 2.379-2.379 10.42-10.42 95.793-95.793 126.395-126.395 82.358-82.358 4.962-4.962a37 37 0 0 0 1.88-1.994c.16-.186.293-.338.408-.467.71-1.058 1.42-2.119 2.034-3.237q.574-1.042 1.113-2.104c.231-.581.513-1.298.62-1.646.37-1.203.741-2.408 1.007-3.639.121-.562.296-1.858.38-2.405.128-2.054.138-4.115-.051-6.166l-.064-.293c-.265-1.228-.531-2.459-.901-3.661a74 74 0 0 0-.666-2.07c-4.339-7.491-12.895-16.134-25.636-27.945l-66.709-66.709-7.228-7.228c-21.534-21.534-56.449-21.534-77.983 0l-151.621 151.62 29.138 29.138c5.704 5.704 11.556 11.266 15.699 18.308 14.005 23.808 10.975 55.216-8.438 75.22-28.471 29.338-57.829 57.858-86.737 86.766-7.081 7.081-18.913 7.081-25.994 0-7.082-7.081-7.082-18.913 0-25.994l45.163-45.163 29.004-29.004 8.969-8.97 2.26-2.26c.919-.919 3.298-3.895 2.795-3.068 1.102-1.624 2.118-3.308 2.991-5.066.233-.586.523-1.321.632-1.675.37-1.203.741-2.408 1.007-3.639.127-.587.311-1.972.391-2.472.028-.441.059-.882.066-1.324.018-1.249.035-2.502-.053-3.749a22 22 0 0 0-.197-1.505c-.394-1.892-.883-3.765-1.521-5.589-.266-.593-.62-1.377-.806-1.716-.62-1.129-1.242-2.261-1.961-3.332-.3-.447-1.215-1.566-1.542-1.977q-.678-.751-1.395-1.471l-.147-.146-11.242-11.242-24.074-24.074-.289.289-20.615-20.615-37.211-37.211-1.52-1.52c-21.534-21.534-56.449-21.534-77.983 0l-274.89 274.89c-21.534 21.534-29.617 58.053-8.083 79.588l5.707 5.923 45.021 46.731 45.337 45.337.982.982c.094.094.194.185.289.279 2.802 2.266 5.455 4.086 8.05 5.395 1.163.395 2.329.788 3.522 1.082.88.217 1.765.419 2.655.596.431.052.852.096 1.112.107 1.84.078 3.689.096 5.529-.026.642-.112 1.585-.272 2.016-.378q.785-.192 1.566-.397c5.713-2.23 12.019-7.154 19.747-15.311l164.177-164.421-10.172-10.172z"/><path d="M264.852 825.029c-1.84.122-3.689.104-5.529.026-.26-.011-.681-.055-1.112-.107a60 60 0 0 1-2.655-.596c-1.193-.294-2.359-.687-3.522-1.082l-.07-.023c-.486-.235-.975-.463-1.452-.716-1.148-.587-2.242-1.275-3.332-1.961-.284-.179-.882-.627-1.383-1.009a42 42 0 0 1-1.813-1.687c-.095-.094-.195-.184-.289-.279l-.982-.982-45.337-45.337-46.494-46.494-11.496-11.496c-10.953-10.953-22.067-21.767-32.855-32.883-.307-.316-1.107-1.286-1.539-1.793a82 82 0 0 1-1.151-1.786c-.684-1.088-1.27-2.233-1.855-3.376l-.066-.128-.059-.161c-.695-1.868-1.193-3.802-1.6-5.752-.091-.573-.189-1.247-.216-1.631-.118-1.664-.071-3.334 0-4.998.011-.261.056-.681.108-1.113.177-.89.379-1.774.596-2.654.301-1.225.707-2.422 1.113-3.615l.031-.092.095-.197c.866-1.822 1.919-3.544 3.052-5.211-.726 1.126 1.816-2.096 2.445-2.724l4.641-4.641 81.54-81.54L319.99 432.667l96.468-96.468 10.705-10.705 2.539-2.539.492-.492.062-.062a43 43 0 0 1 1.591-1.501c-.689.659 2.206-1.656 2.952-2.125 1.088-.684 2.233-1.27 3.376-1.855l.128-.066.161-.059c1.868-.695 3.801-1.193 5.75-1.6a24 24 0 0 1 1.632-.217c1.248-.088 2.5-.071 3.749-.053.455.006.908.038 1.361.067-.398.024 2.769.471 3.655.689 1.225.301 2.421.708 3.615 1.113l.092.031.197.095c1.875.891 3.645 1.982 5.357 3.153-1.155-.75 1.967 1.731 2.89 2.655l12.223 12.223 30.396 30.396 37.239 37.239 20.617 20.617 24.074 24.074 11.242 11.242.147.146q.717.72 1.395 1.471c.327.411 1.242 1.53 1.542 1.977.719 1.071 1.341 2.203 1.961 3.332.186.339.54 1.123.806 1.716.638 1.824 1.127 3.697 1.521 5.589.085.543.171 1.15.197 1.505.088 1.248.071 2.5.053 3.749-.006.442-.038.883-.066 1.324-.079.5-.264 1.885-.391 2.472-.266 1.231-.637 2.437-1.007 3.639-.109.354-.399 1.09-.632 1.675-.873 1.759-1.888 3.442-2.991 5.066.503-.827-1.876 2.149-2.795 3.068l-2.26 2.26-8.969 8.97-29.004 29.004-45.163 45.163c-7.082 7.081-7.082 18.913 0 25.994s18.913 7.081 25.994 0c28.908-28.908 58.266-57.428 86.737-86.766 19.413-20.005 22.443-51.412 8.438-75.22-4.143-7.043-9.995-12.605-15.699-18.308l-29.138-29.138-20.789-20.789-1.215-1.215-59.773-59.773-16.775-16.775c-11.647-11.647-25.001-18.138-41.345-20.23-17.999-2.304-36.941 5.842-49.515 18.417l-6.693 6.693-33.703 33.703-116.016 116.016-118.628 118.628-36.969 36.969c-11.37 11.37-21.985 22.014-26.513 38.386-5.93 21.441.995 44.945 16.576 60.526l12.545 12.545 56.807 56.807 55.499 55.499 10.91 10.91c16.914 16.914 43.794 23.331 66.203 14.244 18.386-7.456 31.551-23.625 45.298-37.372l60.549-60.549 61.763-61.764c7.081-7.081 7.081-18.913 0-25.994-7.081-7.082-18.913-7.082-25.994 0l-93.312 93.312-47.577 47.577-4.197 4.196c-.47.47-.944.93-1.422 1.394-.317.307-1.287 1.107-1.793 1.539-.589.393-1.187.774-1.786 1.151-1.088.684-2.233 1.27-3.376 1.855l-.028.013c-.485.176-.966.36-1.457.518-.683.232-1.376.427-2.074.61q-.782.205-1.566.397c-.426.106-1.369.266-2.011.378"/><path d="M950.646 322.745c-4.242-6.322-9.561-11.409-14.886-16.733l-51.826-51.826-59.412-59.412-16.202-16.202c-12.015-12.015-26.467-18.886-43.486-20.091-17.905-1.267-35.368 6.974-47.798 19.404l-14.325 14.325-57.404 57.404-71.645 71.645c-7.082 7.082-7.082 18.913 0 25.994s18.913 7.081 25.994 0l93.444-93.444 46.955-46.955 3.881-3.881a54 54 0 0 1 1.913-1.81c.483-.388 1.44-1.165 1.844-1.436 1.071-.719 2.203-1.34 3.332-1.961.348-.191 1.161-.557 1.758-.826a57 57 0 0 1 3.285-.995 30 30 0 0 1 1.879-.446c.614-.099 1.445-.226 1.888-.258 1.713-.121 3.43-.086 5.143.023l.912.134c.547.08 1.151.173 1.49.246 1.231.266 2.437.637 3.639 1.007.369.114 1.157.425 1.753.662a57 57 0 0 1 3.109 1.724c.514.302 1.012.629 1.505.963-.398-.239 1.557 1.255 2.074 1.727.365.334.716.687 1.067 1.038l1.182 1.182 48.583 48.583 55.592 55.592c10.713 10.713 22.302 21.019 32.322 32.428.393.489 1.153 1.426 1.422 1.826.719 1.071 1.34 2.203 1.961 3.332.182.332.526 1.091.79 1.679l.029.081q.348 1.031.666 2.07c.37 1.202.636 2.433.901 3.661l.064.293c.189 2.05.179 4.112.051 6.166-.084.547-.259 1.843-.38 2.405-.266 1.231-.637 2.437-1.007 3.639-.107.348-.389 1.066-.62 1.646a69 69 0 0 1-1.113 2.104c-.614 1.118-1.324 2.179-2.034 3.237-.115.13-.248.281-.408.467a37 37 0 0 1-1.88 1.994l-4.962 4.962-82.358 82.358-126.395 126.395-95.793 95.793-10.42 10.42-2.379 2.379-.411.411c-.654.654-1.296 1.241-1.978 1.865l-.368.34-.051.036c-1.402 1.003-2.903 1.857-4.411 2.685-.332.182-1.091.525-1.679.79q-1.07.365-2.151.696c-1.202.37-2.433.636-3.661.901l-.298.066c-2.325.213-4.665.158-6.991 0l-.347-.066c-1.65-.307-3.264-.779-4.867-1.272-.348-.107-1.065-.389-1.646-.62a71 71 0 0 1-2.105-1.113c-.825-.453-1.617-.963-2.402-1.483q-.418-.274-.835-.552a43 43 0 0 0-.467-.408c-.148-.128-.288-.266-.433-.398a57 57 0 0 1-2.005-1.926l-12.864-12.864-30.105-30.105-35.934-35.934-46.235-46.235-10.575-10.575a60 60 0 0 1-1.902-2.016l-.34-.368-.036-.051c-.753-1.053-1.411-2.171-2.067-3.286a28 28 0 0 1-.784-1.452c-.192-.458-.765-1.757-.949-2.298-.405-1.193-.706-2.418-1.007-3.64-.13-.566-.235-1.136-.343-1.706-.194-2.265-.141-4.545.012-6.81l.066-.347c.23-1.237.566-2.45.901-3.661.14-.505.305-1.003.473-1.499.187-.431.747-1.813 1.012-2.331.587-1.148 1.275-2.242 1.961-3.332.238-.366.497-.718.746-1.076l.354-.421c4.173-4.852 9.08-9.193 13.597-13.711l28.381-28.381 53.048-53.048c7.081-7.082 7.081-18.913 0-25.994s-18.913-7.081-25.994 0l-91.731 91.731c-13.29 13.29-21.326 31.504-19.436 50.535 1.615 16.265 8.771 29.885 20.23 41.345l44.47 44.47 10.172 10.172 51.824 51.824 21.222 21.222c5.76 5.76 11.297 11.29 18.308 15.699 23.809 14.971 55.017 10.024 75.22-8.438 1.717-1.569 3.316-3.288 4.96-4.931l29.492-29.492 112.352-112.352 121.309-121.309 40.688-40.688c5.895-5.895 12.211-11.581 17.655-17.91 18-20.921 20.828-52.198 5.26-75.401"/></svg>