<svg xmlns="http://www.w3.org/2000/svg" xml:space="preserve" width="32" height="32" class="icon" viewBox="0 0 1024 1024"><g style="fill:none"><path fill="#202020" d="M867.367 780.036c-6.643-7.44-9.7-21.193-13.087-35.875-3.322-14.615-7.109-30.36-19.134-40.525v-.066a50.2 50.2 0 0 0-14.814-8.902c16.741-49.494 10.164-98.788-6.644-143.299-20.727-54.675-56.801-102.309-84.371-134.861-30.826-38.93-60.987-75.868-60.455-130.41.93-83.31 9.168-237.769-137.386-237.968-5.98 0-12.158.266-18.602.797-163.827 13.154-120.379 186.215-122.837 244.146-2.99 42.385-11.56 75.735-40.724 117.19-34.214 40.724-82.378 106.56-105.232 175.187-10.762 32.353-15.944 65.371-11.16 96.595a51 51 0 0 0-4.253 4.186c-10.031 10.695-17.472 23.717-25.776 32.486-7.706 7.706-18.734 10.63-30.825 14.948-12.158 4.384-25.445 10.762-33.483 26.241v.067a46.64 46.64 0 0 0-5.116 22.52c0 7.176 1.063 14.417 2.126 21.393 2.259 14.615 4.518 28.367 1.528 37.668-9.566 26.241-10.829 44.311-4.052 57.465 6.776 13.22 20.594 19 36.34 22.256 31.423 6.643 74.007 4.982 107.556 22.72l2.857-5.447-2.857 5.447c35.875 18.801 72.347 25.445 101.379 18.868a65.77 65.77 0 0 0 46.902-36.672c22.72-.133 47.634-9.7 87.56-11.958 27.106-2.126 60.987 9.633 99.851 7.507a53.6 53.6 0 0 0 4.518 12.157l.066.067c15.08 30.227 43.182 43.98 73.078 41.654 29.895-2.392 61.65-19.997 87.36-50.623l-4.65-3.986 4.65 3.986c24.582-29.762 65.24-42.053 92.212-58.33 13.486-8.17 24.447-18.335 25.245-33.15.863-14.748-7.84-31.29-27.77-53.48"/><path fill="#f8bf11" d="M882.846 832.85c-.465 9.102-7.108 15.945-19.266 23.253-24.447 14.748-67.696 27.504-95.266 60.986-24.05 28.567-53.28 44.18-79.057 46.239-25.71 1.993-47.9-8.637-61.053-34.945v-.133c-8.172-15.479-4.783-39.86 2.06-65.57 6.842-25.71 16.674-52.151 18.003-73.61v-.066c1.329-27.57 2.923-51.553 7.573-70.088 4.65-18.601 11.892-31.091 24.78-38.2a58 58 0 0 1 1.794-.93c1.462 23.85 13.287 48.165 34.147 53.414 22.787 5.979 55.672-13.553 69.557-29.564l8.105-.265c12.224-.333 22.388.398 32.885 9.5v.066c8.038 6.776 11.892 19.665 15.213 34.014 3.322 14.417 5.98 30.095 15.878 41.256 19.067 21.26 25.245 35.476 24.647 44.644m-463.644 67.432v.199c-2.259 28.899-18.602 44.644-43.581 50.357-25.046 5.713-58.994 0-92.875-17.671-37.535-19.93-82.18-17.938-110.746-23.917-14.35-2.99-23.717-7.507-27.969-15.811-4.252-8.37-4.384-22.92 4.717-47.833v-.066l.067-.133c4.517-13.885 1.195-29.098-.997-43.382-2.192-14.216-3.255-27.238 1.594-36.273l.067-.066c6.245-12.025 15.413-16.343 26.773-20.395 11.294-4.12 24.78-7.308 35.41-17.938l.066-.066h.066c9.832-10.43 17.273-23.451 25.91-32.686 7.307-7.773 14.615-12.954 25.577-13.02h.332a40.5 40.5 0 0 1 6.178.53c14.616 2.193 27.305 12.424 39.595 29.032l35.41 64.508v.066c9.433 19.665 29.297 41.323 46.171 63.379 16.875 22.122 29.896 44.245 28.235 61.186"/><path fill="#d6a312" d="M595.784 298.72c-2.857-5.58-8.636-10.895-18.602-14.948-20.594-8.836-29.496-9.434-40.99-16.874-18.601-12.025-34.08-16.21-46.902-16.21a55.4 55.4 0 0 0-18.07 3.122c-15.679 5.315-26.042 16.609-32.553 22.72-1.329 1.263-2.923 2.326-6.91 5.315-3.985 2.857-9.964 7.308-18.6 13.819-7.774 5.713-10.232 13.287-7.574 22.056s11.094 18.934 26.573 27.703h.067c9.633 5.647 16.21 13.287 23.783 19.332a53.2 53.2 0 0 0 12.556 7.773c4.784 2.06 10.364 3.455 17.273 3.853 16.476.997 28.567-3.986 39.197-10.031 10.629-6.112 19.664-13.553 30.028-16.94h.066c21.26-6.644 36.406-19.998 41.19-32.753a21.53 21.53 0 0 0-.532-17.937"/><path fill="#202020" d="M541.84 330.077c-16.941 8.835-36.672 19.531-57.732 19.531-20.993 0-37.602-9.699-49.493-19.2-5.98-4.65-10.83-9.433-14.483-12.82-6.378-4.983-5.58-12.026-2.99-11.826 4.385.531 5.05 6.311 7.773 8.902 3.72 3.455 8.37 7.972 14.018 12.423 11.294 8.969 26.374 17.672 45.175 17.672 18.867 0 40.79-11.028 54.21-18.602 7.64-4.252 17.273-11.892 25.179-17.671 5.979-4.451 5.78-9.766 10.762-9.168s1.329 5.912-5.647 11.958c-6.975 6.112-17.937 14.217-26.773 18.8"/><path fill="#fff" d="M800.866 691.08a115 115 0 0 0-6.909 0h-.664c5.846-18.402-7.042-31.888-41.256-47.367-35.476-15.612-63.777-14.084-68.56 17.605-.332 1.66-.598 3.321-.73 5.049a53 53 0 0 0-7.973 3.587c-16.741 9.102-25.843 25.644-30.892 45.973-5.049 20.262-6.51 44.776-7.905 72.413-.864 13.818-6.577 32.553-12.357 52.483-58.13 41.455-138.848 59.392-207.408 12.623-4.65-7.308-9.965-14.616-15.479-21.79a920 920 0 0 0-10.63-13.62 43.2 43.2 0 0 0 17.805-3.322 22.6 22.6 0 0 0 12.357-12.755c4.185-11.294 0-27.105-13.42-45.175-13.353-18.137-36.007-38.532-69.29-58.994-24.449-15.28-38.134-33.881-44.512-54.077-6.444-20.263-5.58-42.186-.664-63.777 9.5-41.522 33.881-81.914 49.36-107.225 4.186-3.056 1.528 5.713-15.678 37.668-15.413 29.231-44.312 96.662-4.783 149.344 1.063-37.469 9.965-75.735 25.045-111.41 21.857-49.626 67.63-135.592 71.218-204.152 1.927 1.328 8.304 5.713 11.227 7.308 8.371 4.982 14.682 12.223 22.854 18.8a56.47 56.47 0 0 0 38.2 13.287c15.944 0 28.367-5.248 38.664-11.16 11.294-6.378 20.196-13.553 28.766-16.277 17.937-5.647 32.287-15.612 40.392-27.238 13.951 55.14 46.504 134.662 67.364 173.46 11.095 20.594 33.218 64.374 42.718 117.057 6.045-.133 12.689.664 19.863 2.524 24.913-64.64-21.192-134.33-42.252-153.729-8.503-8.237-8.968-11.958-4.65-11.758 22.787 20.196 52.815 60.92 63.777 106.826 4.982 20.927 5.979 42.916.664 64.64 2.657 1.13 5.315 2.26 7.972 3.588 40.06 19.465 54.875 36.406 47.766 59.591"/><path fill="#e6e6e6" d="M515.399 516.225c-36.938.133-73.012 16.675-103.505 47.567-30.56 30.826-54.077 74.54-67.63 125.428l4.052 2.525v.265c31.225 19.798 53.48 39.728 67.232 58.33 14.549 19.664 20.993 38.797 14.815 55.406a34.08 34.08 0 0 1-17.937 18.8l-2.724.997c4.916 6.444 9.7 13.088 14.15 19.93 62.714 41.721 135.659 26.308 190.467-11.426 5.315-18.469 10.165-35.609 10.829-46.371 1.395-27.57 2.79-52.616 8.238-74.407 5.447-21.923 16.077-41.853 36.14-52.815 1.13-.664 2.259-.996 3.388-1.528a50 50 0 0 1 1.462-6.245c-16.077-41.322-39.263-75.735-67.099-99.651-27.902-23.916-59.591-36.605-91.812-36.805Zm157.449 143.166-.133.332v-.133l.066-.265z"/><path fill="#fff" d="M597.644 235.275a69.76 69.76 0 0 1-14.283 43.58 274 274 0 0 0-14.483-5.978l-8.437-2.99c1.927-2.325 5.647-4.982 7.108-8.437a44.4 44.4 0 0 0 3.322-16.143l.067-.665a44.7 44.7 0 0 0-2.326-15.678 28.8 28.8 0 0 0-7.175-12.224 14.82 14.82 0 0 0-10.363-4.65h-.465a15.15 15.15 0 0 0-10.032 3.986 28.8 28.8 0 0 0-8.105 11.626 44.9 44.9 0 0 0-3.322 16.143v.664a47.7 47.7 0 0 0 .598 9.301 117.8 117.8 0 0 0-23.517-7.972 80 80 0 0 1-.665-8.836v-.863a68.76 68.76 0 0 1 5.846-29.696 52.7 52.7 0 0 1 16.61-21.79 36.8 36.8 0 0 1 22.985-8.172h.399c8.304 0 15.413 2.391 22.72 7.706a51.8 51.8 0 0 1 17.074 21.525c4.185 9.168 6.245 18.136 6.444 28.766l.067.797Zm-125.56 10.895a69.8 69.8 0 0 0-18.403 8.305 41.4 41.4 0 0 0 .133-9.966v-.531a43.3 43.3 0 0 0-3.189-12.755 24.6 24.6 0 0 0-6.377-9.368 10.5 10.5 0 0 0-7.906-2.99c-2.79.267-5.116 1.595-7.308 4.32a24.7 24.7 0 0 0-4.65 10.363 41.6 41.6 0 0 0-.864 13.619v.531a42.1 42.1 0 0 0 3.189 12.822 24.4 24.4 0 0 0 7.706 10.364l-6.776 5.315-5.182 3.72a46.9 46.9 0 0 1-10.63-15.944c-3.52-7.972-5.447-15.945-5.978-25.312v-.066a71.2 71.2 0 0 1 2.99-25.91 44.4 44.4 0 0 1 11.094-19.398 23.85 23.85 0 0 1 17.538-7.84c5.58 0 10.497 1.86 15.612 5.98a45.2 45.2 0 0 1 13.22 18.003c3.522 7.972 5.315 15.944 5.913 25.378v.066c.2 3.987.2 7.64-.133 11.294"/><path fill="#202020" d="M499.853 268.625c.664 2.259 4.318 1.927 6.444 2.99 1.794.93 3.322 2.99 5.315 3.056s5.049-.665 5.315-2.658c.332-2.524-3.455-4.185-5.847-5.115-3.122-1.262-7.108-1.86-10.031-.2-.665.333-1.395 1.196-1.196 1.994Zm-21.392 0c-.664 2.259-4.318 1.927-6.378 2.99-1.86.93-3.321 2.99-5.38 3.056-1.994.066-5.05-.665-5.315-2.658-.333-2.524 3.454-4.185 5.846-5.115 3.122-1.262 7.175-1.86 10.098-.2.664.333 1.328 1.196 1.13 1.994z"/></g></svg>