<svg xmlns="http://www.w3.org/2000/svg" width="32" height="32" class="icon" viewBox="0 0 1024 1024"><path fill="#f4ca1c" d="M500.675 936.93 132.787 777.522a36.93 36.93 0 0 1 .41-67.988l367.887-167.26a37.15 37.15 0 0 1 28.892.076l362.68 167.281a36.93 36.93 0 0 1 .41 67.84l-362.685 159.38a37.15 37.15 0 0 1-29.706.077"/><path fill="#595bb3" d="M514.514 538.112a69.7 69.7 0 0 1-27.76-5.745L119.065 372.736a69.632 69.632 0 0 1 .23-127.908l368.23-167.695a70.08 70.08 0 0 1 54.339.138l.896.4 362.102 167.3a69.632 69.632 0 0 1 .26 127.611L542.629 532.193a69.7 69.7 0 0 1-28.114 5.919m-1.73-65.633a4.4 4.4 0 0 0 3.501 0l362.496-159.611a4.372 4.372 0 0 0-.04-8.023l-.907-.4-361.82-167.168a4.42 4.42 0 0 0-2.949 0L145.147 304.81a4.372 4.372 0 0 0-.046 8.038zm1.955 269.056a73 73 0 0 1-29.046-6.016L86.236 562.099a32.65 32.65 0 1 1 26.035-59.904L511.724 675.6a7.62 7.62 0 0 0 6.077 0l393.805-173.404a32.65 32.65 0 1 1 26.342 59.75l-393.805 173.41a72.9 72.9 0 0 1-29.404 6.164zm0 205.68a72.9 72.9 0 0 1-29.046-6.016L86.236 767.78a32.65 32.65 0 1 1 26.035-59.903l399.453 173.399a7.62 7.62 0 0 0 6.077 0L911.606 707.87a32.645 32.645 0 1 1 26.342 59.745l-393.805 173.44a73 73 0 0 1-29.404 6.144z"/></svg>