<svg xmlns="http://www.w3.org/2000/svg" width="32" height="32" class="icon" viewBox="0 0 1024 1024"><path fill="#f4ca1c" d="M737.418 413.43c0-74.931-54.784-135.68-122.368-135.68s-122.368 60.743-122.368 135.68 54.784 135.68 122.368 135.68 122.368-60.754 122.368-135.68m205.445 433.976c0-59.597-144.271-121.784-328.489-121.784s-333.557 66.81-333.557 126.407 149.335 61.66 333.583 61.66 328.463-6.691 328.463-66.288z"/><path fill="#595bb3" d="M516.66 606.08c-134.257 0-243.477-119.864-243.477-267.197S382.403 71.68 516.659 71.68s243.477 119.864 243.477 267.203S650.91 606.08 516.659 606.08m0-471.28c-99.534 0-180.512 91.55-180.512 204.083S417.126 542.96 516.66 542.96s180.51-91.546 180.51-204.078-80.977-204.084-180.51-204.084m1.049 822.64c-239.335 0-446.029 0-446.029-115.712 0-108.718 208.425-204.083 446.029-204.083 111.76 0 219.136 19.579 302.326 55.132C908.64 730.624 957.44 781.312 957.44 835.41c0 113.044-190.582 122.03-439.731 122.03m0-256.681c-233.887 0-383.058 92.56-383.058 140.964 0 17.577 34.422 32.65 94.438 41.344 71.798 10.409 173.19 11.264 288.625 11.264 104.095 0 210.637-1.73 284.728-14.29 58.491-9.917 92.032-26.179 92.032-44.62-.01-47.484-143.047-134.662-376.765-134.662"/></svg>