<svg xmlns="http://www.w3.org/2000/svg" width="32" height="32" class="icon" viewBox="0 0 1024 1024"><path fill="#ff9580" d="M273.78 80h476.44Q880 80 880 209.78v588.44Q880 928 750.22 928H273.78Q144 928 144 798.22V209.78Q144 80 273.78 80"/><path fill="#fff" d="M752 96H272a112 112 0 0 0-112 112v608a112 112 0 0 0 112 112h16a96 96 0 0 1-96-96V224a96 96 0 0 1 96-96h480a96 96 0 0 1 96 96v-16A112 112 0 0 0 752 96"/><path fill="#ffe07a" d="M368 208h288q96 0 96 96v288q0 96-96 96H368q-96 0-96-96V304q0-96 96-96"/><path fill="#fff" d="M656 224H368a80 80 0 0 0-80 80v288a80 80 0 0 0 80 80h32a80 80 0 0 1-80-80V336a80 80 0 0 1 80-80h256a80 80 0 0 1 80 80v-32a80 80 0 0 0-80-80"/><path fill="#333" d="M752 960H272c-79.4 0-144-64.6-144-144V208c0-79.4 64.6-144 144-144h480c79.4 0 144 64.6 144 144v608c0 79.4-64.6 144-144 144M272 96a112.12 112.12 0 0 0-112 112v608a112.12 112.12 0 0 0 112 112h480a112.12 112.12 0 0 0 112-112V208A112.12 112.12 0 0 0 752 96z"/><path fill="#333" d="M608 832H416a32 32 0 0 1 0-64h192a32 32 0 0 1 0 64m48-128H368a112.12 112.12 0 0 1-112-112V304a112.12 112.12 0 0 1 112-112h288a112.12 112.12 0 0 1 112 112v288a112.12 112.12 0 0 1-112 112M368 224a80.09 80.09 0 0 0-80 80v288a80.09 80.09 0 0 0 80 80h288a80.09 80.09 0 0 0 80-80V304a80.09 80.09 0 0 0-80-80z"/></svg>