<svg xmlns="http://www.w3.org/2000/svg" width="32" height="32" class="icon" viewBox="0 0 1024 1024"><path fill="#00dc82" d="M562.88 795.334h313.76c10.012 0 19.596-3.518 28.266-8.48 8.672-4.962 17.61-11.192 22.614-19.788 5.004-8.594 8.484-18.346 8.48-28.268-.004-9.924-3.468-19.672-8.48-28.262l-212-364.642c-5.004-8.594-11.118-14.826-19.786-19.788-8.67-4.96-21.084-8.48-31.094-8.48s-19.598 3.52-28.266 8.48c-8.67 4.962-14.784 11.194-19.788 19.788l-53.706 93.28L455.466 258.26c-5.008-8.592-11.114-17.646-19.786-22.606-8.672-4.962-18.254-5.654-28.266-5.654s-19.596.692-28.268 5.654c-8.67 4.96-17.604 14.014-22.612 22.606L93.654 710.536c-5.012 8.59-5.65 18.338-5.654 28.262-.004 9.922.65 19.672 5.654 28.268 5.004 8.594 13.94 14.826 22.612 19.788s18.254 8.48 28.268 8.48H342.4c78.402 0 135.468-35.17 175.254-101.76L613.76 526.8l50.88-87.626L820.106 704.88H613.76zM339.574 704.88H201.066l206.348-356.16L512 526.8l-69.278 120.768c-26.42 43.206-56.544 57.312-103.148 57.312"/></svg>