<svg xmlns="http://www.w3.org/2000/svg" width="32" height="32" class="icon" viewBox="0 0 1024 1024"><path fill="#f4ca1c" d="M678.548 630.784a186.552 186.552 0 1 0-186.552 187.684 187.12 187.12 0 0 0 186.552-187.684"/><path fill="#595bb3" d="M155.249 775.946a54.73 54.73 0 0 1-39.03-16.517 55.39 55.39 0 0 1-15.544-39.874l4.46-168.448a54.86 54.86 0 0 1 15.968-37.376L554.87 77.343a54.44 54.44 0 0 1 77.21 0l166.824 167.833a55.163 55.163 0 0 1 0 77.681L365.343 759.04a54.11 54.11 0 0 1-38.339 16.087l-171.479.824h-.276zm14.817-218.89-4.06 153.385 156.36-.748 423.106-425.681-151.997-152.94zM909.542 957.44H114.458a32.732 32.732 0 0 1 0-65.464h795.084a32.732 32.732 0 0 1 0 65.464m-7.777-142.234H571.013a32.732 32.732 0 0 1 0-65.464h330.752a32.732 32.732 0 0 1 0 65.464"/></svg>