<svg xmlns="http://www.w3.org/2000/svg" width="32" height="32" class="icon" viewBox="0 0 1024 1024"><path fill="#fff" d="M752.256 968.832H255.872c-112.64 0-204.032-91.392-204.032-204.032V268.416c0-112.64 91.392-204.032 204.032-204.032h496.384c112.64 0 204.032 91.392 204.032 204.032V764.8c0 112.64-91.392 204.032-204.032 204.032" style="fill:#f9f9f9" transform="translate(-5.687 -18.57)scale(1.02703)"/><path fill="#009cf5" d="M117.36 512a394.64 394.64 0 1 0 789.28 0 394.64 394.64 0 1 0-789.28 0"/><path fill="#ff4c3a" d="M760.59 259.204 479.53 479.66l64.809 64.81 220.326-281.06c2.366-2.761-1.315-6.31-4.076-4.207"/><path fill="#fff" d="M263.41 764.796 544.47 544.47l-64.809-64.809-220.457 280.928c-2.235 2.761 1.314 6.31 4.207 4.207m249.772-624.037c-3.286 0-6.047 2.63-6.047 6.047v54.95c0 3.287 2.63 6.047 6.047 6.047 3.418 0 6.047-2.629 6.047-6.047v-54.95c-.131-3.286-2.76-6.047-6.047-6.047m-64.546 5.521c-3.287.526-5.522 3.681-4.864 6.968l9.596 54.16c.526 3.287 3.681 5.522 6.968 4.865 3.286-.526 5.52-3.681 4.863-6.967l-9.596-54.162c-.526-3.286-3.68-5.521-6.967-4.864m-47.326 75.852c1.183 3.155 4.601 4.733 7.756 3.55s4.733-4.601 3.55-7.756l-18.799-51.664c-1.183-3.155-4.601-4.732-7.756-3.55-3.155 1.184-4.733 4.602-3.55 7.757zm-48.64 23.663c1.71 2.892 5.39 3.812 8.15 2.235 2.761-1.578 3.813-5.39 2.236-8.15l-27.475-47.589c-1.71-2.892-5.39-3.812-8.15-2.235-2.893 1.71-3.813 5.39-2.236 8.15zm-43.776 31.682c2.104 2.497 5.916 2.892 8.414.788s2.892-5.915.789-8.413l-35.363-42.067c-2.103-2.498-5.916-2.892-8.413-.789-2.498 2.104-2.892 5.916-.79 8.414zm-37.597 38.912c2.498 2.103 6.31 1.84 8.413-.79 2.104-2.497 1.84-6.31-.788-8.413l-42.067-35.362c-2.498-2.103-6.31-1.84-8.414.789-2.103 2.497-1.84 6.31.79 8.413zm-77.955 17.22 47.588 27.476a5.873 5.873 0 0 0 8.15-2.235c1.71-2.892.658-6.573-2.234-8.282l-47.589-27.344a5.873 5.873 0 0 0-8.15 2.235c-1.71 2.76-.657 6.442 2.235 8.15m-26.16 58.106 51.663 18.798c3.155 1.184 6.573-.525 7.756-3.549 1.183-3.155-.526-6.573-3.55-7.756l-51.663-18.799c-3.155-1.183-6.573.526-7.756 3.55-1.183 3.155.394 6.573 3.55 7.756m40.62 59.42-54.161-9.597c-3.286-.526-6.441 1.577-6.967 4.864s1.577 6.441 4.864 6.967l54.16 9.597c3.287.526 6.442-1.578 6.968-4.864.526-3.287-1.577-6.442-4.864-6.968m-6.047 53.635h-54.95c-3.286 0-6.047 2.629-6.047 6.047 0 3.286 2.63 6.047 6.047 6.047h54.95c3.287 0 6.047-2.63 6.047-6.047a6.03 6.03 0 0 0-6.047-6.047m3.55 54.03-54.162 9.596c-3.286.526-5.521 3.68-4.864 6.967.526 3.287 3.681 5.522 6.968 4.864l54.16-9.596c3.287-.526 5.522-3.681 4.865-6.968s-3.681-5.39-6.967-4.863m12.751 52.583-51.663 18.799c-3.155 1.183-4.733 4.601-3.55 7.756s4.601 4.733 7.756 3.55l51.664-18.8c3.155-1.182 4.732-4.6 3.55-7.755-1.184-3.155-4.602-4.733-7.757-3.55m21.69 49.429-47.587 27.475c-2.893 1.709-3.813 5.39-2.235 8.282 1.709 2.892 5.39 3.812 8.282 2.235l47.588-27.475c2.892-1.71 3.812-5.39 2.235-8.282-1.71-2.892-5.39-3.813-8.282-2.235m29.974 45.09-42.067 35.363c-2.498 2.103-2.893 5.916-.79 8.413 2.104 2.498 5.916 2.892 8.414.79l42.067-35.363c2.498-2.104 2.892-5.916.789-8.414-1.972-2.629-5.784-2.892-8.413-.789m37.334 39.044-35.363 42.067c-2.103 2.498-1.84 6.31.79 8.413 2.497 2.104 6.31 1.84 8.413-.789l35.362-42.067c2.103-2.497 1.84-6.31-.789-8.413-2.366-1.972-6.178-1.709-8.413.789m43.644 32.076-27.475 47.588a5.873 5.873 0 0 0 2.235 8.15c2.892 1.71 6.573.658 8.282-2.234l27.475-47.588a5.873 5.873 0 0 0-2.235-8.15c-2.892-1.578-6.573-.658-8.282 2.234m48.509 24.057-18.799 51.663c-1.183 3.155.526 6.573 3.55 7.757 3.155 1.183 6.573-.526 7.756-3.55l18.798-51.663c1.184-3.155-.525-6.573-3.549-7.756-3.155-1.184-6.704.394-7.756 3.549m47.194 76.246c3.286.526 6.441-1.577 6.967-4.864l9.597-54.16c.526-3.287-1.578-6.442-4.864-6.968-3.287-.526-6.442 1.577-6.968 4.864l-9.596 54.161c-.657 3.286 1.577 6.441 4.864 6.967m64.415 5.916c3.286 0 6.047-2.63 6.047-6.047v-54.95c0-3.287-2.63-6.047-6.047-6.047a6.03 6.03 0 0 0-6.047 6.047v54.95c0 3.286 2.76 6.047 6.047 6.047m47.983-64.547 9.596 54.162c.526 3.286 3.68 5.521 6.967 4.864 3.287-.526 5.522-3.681 4.864-6.968l-9.596-54.16c-.526-3.287-3.681-5.522-6.968-4.865-3.286.526-5.39 3.681-4.863 6.967m52.583-12.751 18.799 51.663c1.183 3.155 4.601 4.733 7.756 3.55s4.733-4.601 3.55-7.756l-18.8-51.664c-1.182-3.155-4.6-4.732-7.755-3.55-3.155 1.184-4.733 4.602-3.55 7.757m49.56-21.69 27.475 47.587c1.71 2.893 5.39 3.813 8.282 2.235 2.892-1.709 3.813-5.39 2.235-8.282l-27.606-47.588c-1.71-2.892-5.39-3.812-8.282-2.235-2.892 1.71-3.813 5.39-2.104 8.282m44.96-30.105 35.362 42.067c2.103 2.498 5.916 2.892 8.413.789 2.498-2.104 2.892-5.916.79-8.414l-35.363-42.067c-2.104-2.497-5.916-2.892-8.414-.788-2.629 2.103-2.892 5.915-.789 8.413m39.043-37.334 42.067 35.362c2.498 2.103 6.31 1.84 8.413-.789 2.104-2.497 1.84-6.31-.789-8.413L752.57 707.61c-2.497-2.103-6.31-1.84-8.413.79-1.972 2.497-1.709 6.31.789 8.413m32.076-43.513 47.588 27.475c2.892 1.708 6.573.657 8.282-2.235a5.873 5.873 0 0 0-2.235-8.15l-47.588-27.476c-2.892-1.709-6.573-.657-8.282 2.235-1.577 2.76-.657 6.442 2.235 8.15m24.057-48.509 51.663 18.799c3.155 1.183 6.573-.526 7.757-3.55 1.183-3.155-.526-6.573-3.55-7.756l-51.663-18.798c-3.155-1.184-6.573.525-7.756 3.549-1.184 3.155.394 6.573 3.549 7.756m15.118-51.926 54.161 9.596c3.286.526 6.441-1.577 6.967-4.864s-1.577-6.441-4.864-6.967l-54.16-9.597c-3.287-.526-6.442 1.578-6.968 4.864-.526 3.287 1.577 6.442 4.864 6.968m0-59.683a6.03 6.03 0 0 0 6.047 6.047h54.95c3.286 0 6.047-2.629 6.047-6.047 0-3.286-2.63-6.047-6.047-6.047h-54.95c-3.418 0-6.047 2.63-6.047 6.047m2.497-47.983 54.162-9.596c3.286-.526 5.521-3.68 4.864-6.967-.526-3.287-3.681-5.522-6.968-4.864l-54.16 9.596c-3.287.526-5.522 3.681-4.865 6.968.526 3.286 3.681 5.39 6.967 4.863m-12.751-52.583 51.663-18.799c3.155-1.183 4.733-4.601 3.55-7.756s-4.601-4.733-7.756-3.55l-51.664 18.8c-3.155 1.182-4.732 4.6-3.55 7.755 1.184 3.024 4.602 4.733 7.757 3.55m-21.69-49.56 47.587-27.475c2.893-1.71 3.813-5.39 2.235-8.15-1.709-2.893-5.39-3.813-8.282-2.236l-47.588 27.475c-2.892 1.71-3.812 5.39-2.235 8.282 1.71 2.76 5.39 3.813 8.282 2.104m-30.105-44.96 42.067-35.362c2.498-2.103 2.892-5.916.789-8.413-2.104-2.498-5.916-2.892-8.414-.79l-42.067 35.363c-2.497 2.104-2.892 5.916-.788 8.414 2.103 2.629 5.915 2.892 8.413.789m-37.334-39.174 35.362-42.067c2.103-2.498 1.84-6.31-.789-8.414-2.497-2.103-6.31-1.84-8.413.79l-35.363 42.066c-2.103 2.498-1.84 6.31.79 8.413 2.497 2.104 6.31 1.84 8.413-.788M673.3 246.978l27.475-47.588a5.873 5.873 0 0 0-2.235-8.15c-2.892-1.71-6.573-.658-8.282 2.234l-27.475 47.588a5.873 5.873 0 0 0 2.235 8.15c2.892 1.578 6.573.658 8.282-2.234m-48.509-24.057 18.799-51.663c1.183-3.155-.526-6.573-3.55-7.757-3.155-1.183-6.573.526-7.756 3.55l-18.798 51.795c-1.184 3.155.525 6.573 3.549 7.756 3.155 1.052 6.573-.526 7.756-3.68m-58.894-10.254c3.287.526 6.442-1.577 6.968-4.864l9.596-54.161c.526-3.286-1.577-6.441-4.864-6.967s-6.441 1.577-6.967 4.864l-9.597 54.16c-.526 3.287 1.578 6.31 4.864 6.968m-290.656 67.044c2.498 2.498 6.704 2.498 9.202 0 2.498-2.497 2.498-6.704 0-9.202l-21.69-21.69c-2.499-2.498-6.705-2.498-9.203 0-2.498 2.497-2.498 6.704 0 9.202zm-36.677 44.565c3.023 2.104 7.099 1.315 9.07-1.577 2.104-3.024 1.315-7.1-1.577-9.071l-25.109-17.616c-3.023-2.103-7.099-1.314-9.07 1.578s-1.315 7.099 1.577 9.07zM182.3 361.611l27.87 13.014c3.286 1.578 7.23.132 8.676-3.155 1.577-3.286.131-7.23-3.155-8.676l-27.87-13.015c-3.286-1.577-7.23-.131-8.676 3.155-1.577 3.287-.131 7.23 3.155 8.677m11.963 54.95-29.71-7.888c-3.55-.92-7.099 1.183-8.019 4.601-.92 3.55 1.183 7.099 4.601 8.02l29.71 7.887c3.55.92 7.099-1.183 8.019-4.601.92-3.55-1.183-7.1-4.601-8.02m-11.831 56.527-30.63-2.63c-3.55-.262-6.836 2.367-7.1 5.917-.262 3.549 2.367 6.835 5.916 7.098l30.63 2.63c3.55.262 6.836-2.367 7.1-5.916.394-3.55-2.236-6.705-5.916-7.099m-1.71 57.842-30.63 2.63c-3.549.262-6.31 3.549-5.915 7.098.263 3.55 3.55 6.31 7.099 5.916l30.63-2.63c3.55-.262 6.31-3.549 5.915-7.098-.262-3.55-3.418-6.179-7.098-5.916m10.123 57.185-29.71 7.887c-3.55.92-5.521 4.47-4.6 8.02.92 3.549 4.469 5.52 8.018 4.6l29.71-7.887c3.55-.92 5.521-4.47 4.601-8.019-.92-3.418-4.47-5.521-8.019-4.601m16.3 54.95-27.868 13.014c-3.287 1.578-4.733 5.39-3.155 8.677s5.39 4.732 8.676 3.155l27.87-13.015c3.286-1.577 4.732-5.39 3.154-8.676-1.446-3.287-5.39-4.601-8.676-3.155m27.476 51.006-25.109 17.616c-3.023 2.103-3.68 6.178-1.577 9.07 2.103 3.024 6.178 3.681 9.07 1.578l25.11-17.616c3.023-2.103 3.68-6.178 1.577-9.07-2.104-3.024-6.179-3.681-9.071-1.578m79.007 83.871-17.616 25.109c-2.103 3.023-1.314 7.099 1.578 9.07 3.023 2.104 7.099 1.315 9.07-1.577l17.616-25.109c2.104-3.023 1.315-7.099-1.577-9.07-2.892-2.104-7.1-1.446-9.071 1.577m39.306 66.913c3.287 1.577 7.23.131 8.677-3.155l13.014-27.87c1.578-3.286.132-7.23-3.155-8.676-3.286-1.577-7.23-.131-8.676 3.155l-13.015 27.87c-1.446 3.286-.131 7.098 3.155 8.676m60.209 22.61c3.549.921 7.098-1.182 8.019-4.6l7.887-29.71c.92-3.55-1.183-7.099-4.6-8.019-3.55-.92-7.1 1.183-8.02 4.601l-7.887 29.71c-.92 3.418 1.183 7.099 4.6 8.019m63.232 11.7c3.549.264 6.835-2.366 7.098-5.915l2.63-30.63c.262-3.55-2.367-6.836-5.916-7.099s-6.836 2.367-7.099 5.916l-2.63 30.63c-.262 3.68 2.367 6.836 5.917 7.099m54.555-35.888 2.63 30.63c.262 3.55 3.549 6.31 7.098 5.916 3.55-.263 6.31-3.55 5.916-7.099l-2.63-30.63c-.262-3.55-3.549-6.31-7.098-5.915-3.55.262-6.179 3.418-5.916 7.098m57.185-8.413 7.887 29.71c.92 3.55 4.47 5.521 8.02 4.6 3.549-.92 5.52-4.469 4.6-8.018l-7.887-29.71c-.92-3.55-4.47-5.521-8.019-4.601-3.418.92-5.521 4.601-4.601 8.019m54.95-18.141 13.014 27.869c1.578 3.286 5.39 4.733 8.677 3.155s4.732-5.39 3.155-8.676l-13.015-27.87c-1.577-3.286-5.39-4.732-8.676-3.155s-4.601 5.39-3.155 8.677m51.006-27.344 17.616 25.109c2.103 3.023 6.178 3.68 9.07 1.577 3.024-2.103 3.681-6.178 1.578-9.07l-17.616-25.11c-2.103-3.023-6.178-3.68-9.07-1.577-3.024 1.972-3.681 6.048-1.578 9.071m45.354-35.888 21.69 21.69c2.498 2.498 6.705 2.498 9.202 0 2.498-2.497 2.498-6.704 0-9.202l-21.69-21.69c-2.498-2.498-6.705-2.498-9.202 0-2.498 2.497-2.498 6.704 0 9.202m38.517-43.119 25.109 17.616c3.023 2.103 7.099 1.314 9.07-1.578 2.104-3.023 1.315-7.099-1.577-9.07l-25.109-17.616c-3.023-2.104-7.099-1.315-9.07 1.577-2.104 2.892-1.446 6.968 1.577 9.071m30.367-49.166 27.87 13.015c3.286 1.577 7.23.131 8.676-3.155 1.577-3.287.131-7.23-3.155-8.677l-27.87-13.014c-3.286-1.578-7.23-.132-8.676 3.155-1.577 3.286-.131 7.099 3.155 8.676m21.428-53.767 29.71 7.888c3.55.92 7.099-1.183 8.019-4.601.92-3.55-1.183-7.099-4.601-8.02l-29.71-7.887c-3.55-.92-7.099 1.183-8.019 4.601-.92 3.55 1.052 7.1 4.601 8.02m11.7-56.659 30.63 2.63c3.55.263 6.836-2.367 7.099-5.916s-2.367-6.836-5.916-7.099l-30.63-2.629c-3.55-.263-6.836 2.366-7.099 5.916-.263 3.68 2.367 6.836 5.916 7.098m1.84-57.71 30.63-2.63c3.55-.262 6.31-3.549 5.916-7.098-.263-3.55-3.55-6.31-7.099-5.916l-30.63 2.63c-3.55.262-6.31 3.549-5.915 7.098.262 3.55 3.418 6.179 7.098 5.916m-8.413-57.316 29.71-7.888c3.55-.92 5.521-4.47 4.6-8.019-.92-3.55-4.469-5.521-8.018-4.601l-29.71 7.888c-3.55.92-5.521 4.47-4.601 8.019s4.601 5.52 8.019 4.6m-18.141-54.819 27.869-13.014c3.286-1.578 4.733-5.39 3.155-8.677s-5.39-4.732-8.676-3.155l-27.87 13.015c-3.286 1.577-4.732 5.39-3.155 8.676 1.578 3.155 5.39 4.601 8.677 3.155M789.38 329.93l25.109-17.616c3.023-2.103 3.68-6.178 1.577-9.07-2.103-3.024-6.178-3.681-9.07-1.578l-25.11 17.616c-3.023 2.103-3.68 6.178-1.577 9.07 1.972 2.892 6.048 3.681 9.071 1.578m-79.007-83.871 17.616-25.109c2.103-3.023 1.314-7.099-1.578-9.07-3.023-2.104-7.099-1.315-9.07 1.577l-17.616 25.109c-2.104 3.023-1.315 7.099 1.577 9.07 2.892 2.104 6.968 1.446 9.071-1.577m-39.306-66.913c-3.287-1.577-7.23-.131-8.677 3.155l-13.014 27.87c-1.578 3.286-.132 7.23 3.155 8.676 3.286 1.577 7.23.131 8.676-3.155l13.015-27.87c1.446-3.286 0-7.23-3.155-8.676m-60.34-22.61c-3.55-.921-7.099 1.182-8.02 4.6l-7.887 29.71c-.92 3.55 1.183 7.099 4.601 8.019 3.55.92 7.1-1.183 8.02-4.601l7.887-29.71c1.052-3.418-1.052-7.099-4.601-8.019m-67.044 31.944c3.55.263 6.836-2.367 7.098-5.916l2.63-30.63c.263-3.55-2.367-6.836-5.916-7.099s-6.836 2.367-7.099 5.916l-2.629 30.63c-.263 3.55 2.366 6.704 5.916 7.099m-60.472-44.302c-3.549.263-6.31 3.55-5.915 7.099l2.629 30.63c.263 3.55 3.55 6.31 7.099 5.915 3.55-.262 6.31-3.549 5.915-7.098l-2.629-30.63c-.263-3.55-3.418-6.179-7.099-5.916m-55.344 15.25c-.92-3.55-4.47-5.522-8.019-4.602s-5.521 4.47-4.601 8.02l7.888 29.709c.92 3.55 4.47 5.521 8.019 4.601s5.52-4.47 4.6-8.019zm-46.93 47.719-13.015-27.87c-1.578-3.286-5.39-4.732-8.677-3.154-3.286 1.577-4.732 5.39-3.155 8.676l12.883 28c1.578 3.287 5.39 4.733 8.677 3.156 3.286-1.578 4.732-5.522 3.286-8.808m-61.655 34.968c2.103 3.024 6.178 3.681 9.07 1.578 3.024-2.104 3.681-6.179 1.578-9.071l-17.616-25.109c-2.103-3.023-6.178-3.68-9.07-1.577-3.024 2.103-3.681 6.178-1.578 9.07z"/></svg>