<svg xmlns="http://www.w3.org/2000/svg" width="32" height="32" class="icon" viewBox="0 0 1024 1024"><path fill="#f4ca1c" d="M865.326 709.12a202.24 202.24 0 1 0-202.24 202.296 202.276 202.276 0 0 0 202.24-202.296"/><path fill="#595bb3" d="M755.343 443.791a191.488 191.488 0 1 0-188.815-157.47L397.276 357.33a179.738 179.738 0 1 0-34.253 267.94L513.961 731.5a159.1 159.1 0 0 0-11.873 60.236 161.321 161.321 0 1 0 56.832-122.199L416.527 569.303a178.82 178.82 0 0 0 18.432-144.799l159.985-67.128a192 192 0 0 0 160.4 86.415m-596.68 32.502a103.603 103.603 0 1 1 103.604 103.235 103.537 103.537 0 0 1-103.603-103.235M663.25 707.615a84.122 84.122 0 1 1-84.419 84.121 84.367 84.367 0 0 1 84.419-84.121m92.093-569.703A114.688 114.688 0 1 1 640.225 252.6a115.036 115.036 0 0 1 115.118-114.688"/></svg>