<svg xmlns="http://www.w3.org/2000/svg" width="32" height="32" class="icon" viewBox="0 0 1024 1024"><path fill="#fff" d="M240 112h544q128 0 128 128v544q0 128-128 128H240q-128 0-128-128V240q0-128 128-128"/><path fill="#a0f090" d="M272 160h512q112 0 112 112v512q0 112-112 112H272q-112 0-112-112V272q0-112 112-112"/><path fill="#333" d="M784 928H240c-79.4 0-144-64.6-144-144V240c0-79.4 64.6-144 144-144h544c79.4 0 144 64.6 144 144v544c0 79.4-64.6 144-144 144M240 128a112.12 112.12 0 0 0-112 112v544a112.12 112.12 0 0 0 112 112h544a112.12 112.12 0 0 0 112-112V240a112.12 112.12 0 0 0-112-112z"/><path fill="#fff" d="m256 448 480-160-176 496-130.29-144 115.05-161L384 592z"/><path fill="#82aafa" d="m368.63 467.23 304-119a16 16 0 0 1 21.06 19.79L560 784 429.71 640l115.05-161L384 576l-32.33-64.66a32 32 0 0 1 16.96-44.11"/><path fill="#333" d="M560 800a16 16 0 0 1-11.86-5.27l-130.29-144a16 16 0 0 1-1.15-20l60.47-84.63-84 59a16 16 0 0 1-21.17-2.47l-128-144a16 16 0 0 1 6.9-25.81l480-160a16 16 0 0 1 20.14 20.53l-176 496A16 16 0 0 1 560 800M450.22 638.82l103.66 114.57L710 313.55l-425.88 142L386.48 570.7l149.08-104.79a16 16 0 0 1 22.22 22.39z"/></svg>