<svg xmlns="http://www.w3.org/2000/svg" width="32" height="32" class="icon" viewBox="0 0 1024 1024"><path fill="#fff" d="M272 160h480q128 0 128 128v528q0 128-128 128H272q-128 0-128-128V288q0-128 128-128"/><path fill="#82dafa" d="M304 208h448q112 0 112 112v496q0 112-112 112H304q-112 0-112-112V320q0-112 112-112"/><path fill="#333" d="M752 960H272c-79.4 0-144-64.6-144-144V288c0-79.4 64.6-144 144-144h480c79.4 0 144 64.6 144 144v528c0 79.4-64.6 144-144 144M272 176a112.12 112.12 0 0 0-112 112v528a112.12 112.12 0 0 0 112 112h480a112.12 112.12 0 0 0 112-112V288a112.12 112.12 0 0 0-112-112z"/><path fill="#fff" d="M272 448a48 48 0 1 0 96 0 48 48 0 1 0-96 0M272 704a48 48 0 1 0 96 0 48 48 0 1 0-96 0"/><path fill="#ff9580" d="M304 720a32 32 0 1 0 64 0 32 32 0 1 0-64 0M304 464a32 32 0 1 0 64 0 32 32 0 1 0-64 0"/><path fill="#333" d="M320 512a64 64 0 1 1 64-64 64.07 64.07 0 0 1-64 64m0-96a32 32 0 1 0 32 32 32 32 0 0 0-32-32m0 352a64 64 0 1 1 64-64 64.07 64.07 0 0 1-64 64m0-96a32 32 0 1 0 32 32 32 32 0 0 0-32-32m432-208H496a16 16 0 0 1 0-32h256a16 16 0 0 1 0 32m-16 272H512a32 32 0 0 1 0-64h224a32 32 0 0 1 0 64"/><path fill="#fff" d="M336 80h352q48 0 48 48v64q0 48-48 48H336q-48 0-48-48v-64q0-48 48-48"/><path fill="#cc87fa" d="M368 128h320q32 0 32 32v32q0 32-32 32H368q-32 0-32-32v-32q0-32 32-32"/><path fill="#333" d="M688 256H336a64.07 64.07 0 0 1-64-64v-64a64.07 64.07 0 0 1 64-64h352a64.07 64.07 0 0 1 64 64v64a64.07 64.07 0 0 1-64 64M336 96a32 32 0 0 0-32 32v64a32 32 0 0 0 32 32h352a32 32 0 0 0 32-32v-64a32 32 0 0 0-32-32z"/></svg>