<svg xmlns="http://www.w3.org/2000/svg" width="32" height="32" class="icon" viewBox="0 0 1024 1024"><path fill="#f4ca1c" d="M939.904 721.06A218.844 218.844 0 1 0 721.06 939.904 218.844 218.844 0 0 0 939.904 721.06"/><path fill="#595bb3" d="M517.12 962.56a445.44 445.44 0 1 1 445.44-445.44 445.95 445.95 0 0 1-445.44 445.44m0-819.031A373.596 373.596 0 1 0 890.716 517.12 374.016 374.016 0 0 0 517.12 143.529m139.51 554.404a35.8 35.8 0 0 1-26.046-11.177L504.09 553.636a76.33 76.33 0 0 1-21.095-52.808V327.926a35.922 35.922 0 1 1 71.844 0v172.923a4.82 4.82 0 0 0 1.321 3.317l126.5 133.12a35.922 35.922 0 0 1-26.03 60.642z"/></svg>