<svg xmlns="http://www.w3.org/2000/svg" width="32" height="32" class="icon" viewBox="0 0 1024 1024"><path fill="#8cc400" d="M866.304 332.8c-32.256.512-58.368 26.624-57.856 58.88v230.4c-.512 31.744 24.576 58.368 56.32 58.88s58.368-24.576 58.88-56.32V391.68c1.024-32.256-25.088-58.88-57.344-58.88m-696.832 0c-32.256.512-58.368 26.624-57.856 58.88v230.4c-.512 31.744 24.576 58.368 56.32 58.88s58.368-24.576 58.88-56.32V391.68c.512-32.256-25.088-58.88-57.344-58.88m92.16 1.536v421.376c0 25.088 19.968 45.056 45.056 45.568H358.4v128.512c-.512 31.744 24.576 58.368 56.32 58.88s58.368-24.576 58.88-56.32V801.28h90.112v128.512c-.512 31.744 24.576 58.368 56.32 58.88s58.368-24.576 58.88-56.32V801.28h51.712c25.088 0 45.056-20.48 45.056-45.568V334.336zm377.856-218.112 47.616-69.12c3.072-3.584 2.048-9.216-1.536-12.288-4.096-2.56-9.216-1.024-11.776 3.072L624.64 110.08c-68.608-26.624-144.896-26.624-213.504 0l-49.152-72.192c-2.56-4.096-7.68-5.12-11.776-3.072-3.584 3.072-4.608 8.192-1.536 12.288l47.616 69.12c-75.776 35.328-128.512 102.4-135.168 180.736h514.048c-7.168-78.336-59.904-145.408-135.68-180.736m-230.4 109.056c-15.872 0-28.672-12.8-28.672-28.672s12.8-28.672 28.672-28.672 28.672 12.8 28.672 28.672-12.8 28.672-28.672 28.672m220.672 0c-15.872 0-28.672-12.8-28.672-28.672s12.8-28.672 28.672-28.672 28.672 12.8 28.672 28.672-12.8 28.672-28.672 28.672"/></svg>