<svg xmlns="http://www.w3.org/2000/svg" width="32" height="32" class="icon" viewBox="0 0 1024 1024"><path fill="#fff" d="M272 80h480q128 0 128 128v608q0 128-128 128H272q-128 0-128-128V208q0-128 128-128"/><path fill="#ff8591" d="M304 128h448q112 0 112 112v576q0 112-112 112H304q-112 0-112-112V240q0-112 112-112"/><path fill="#333" d="M752 960H272c-79.4 0-144-64.6-144-144V208c0-79.4 64.6-144 144-144h480c79.4 0 144 64.6 144 144v608c0 79.4-64.6 144-144 144M272 96a112.12 112.12 0 0 0-112 112v608a112.12 112.12 0 0 0 112 112h480a112.12 112.12 0 0 0 112-112V208A112.12 112.12 0 0 0 752 96z"/><path fill="#333" d="M416 704h192q32 0 32 32t-32 32H416q-32 0-32-32t32-32"/><path fill="#fff" d="m618.28 570-90.82-47.4a32 32 0 0 0-29.78.09l-90.54 47.94a16 16 0 0 1-23.26-16.8l17-101a32 32 0 0 0-9.29-28.3L318 353.23a16 16 0 0 1 8.79-27.32l101.33-15a32 32 0 0 0 24-17.57l45.07-92a16 16 0 0 1 28.7-.08L571.58 293a32 32 0 0 0 24.14 17.44l101.43 14.43a16 16 0 0 1 9 27.26L633 423.81a32 32 0 0 0-9.12 28.35l17.62 100.92A16 16 0 0 1 618.28 570"/><path fill="#ffbf80" d="m627.47 570.19-81.88-42.13c-8.42-4.33-24.46-4.3-32.85.08l-81.62 42.62c-10.57 5.51-17-3.31-15-14.93L431.49 466a28.18 28.18 0 0 0-8.37-25.15l-66.33-63.35a14.18 14.18 0 0 1 7.93-24.29l91.36-13.36a28.82 28.82 0 0 0 21.67-15.63l40.64-81.78a14.51 14.51 0 0 1 25.87-.08l41.11 56.54a28.82 28.82 0 0 0 21.77 15.5l91.44 15.82a14.17 14.17 0 0 1 8.06 24.24l-74.94 69.76c-6.78 6.56-9.86 32-8.23 41.21l24.88 89.71c2.06 11.61-10.28 20.51-20.88 15.05"/><path fill="#333" d="M399.63 588.53a32.06 32.06 0 0 1-31.53-37.35l17-101a16 16 0 0 0-4.62-14.18l-73.58-71.28a32 32 0 0 1 17.58-54.63l101.33-15a16 16 0 0 0 12-8.79l45.06-92a32 32 0 0 1 57.39-.17l45.61 91.73a16 16 0 0 0 12.13 8.68L699.4 309a32 32 0 0 1 17.9 54.52l-73.15 71.73a16 16 0 0 0-4.56 14.18l17.62 100.92a32 32 0 0 1-46.33 33.87l-90.82-47.41a16 16 0 0 0-14.89.05l-90.54 47.94a32 32 0 0 1-15 3.73m-70.46-246.79L402.74 413a48 48 0 0 1 13.94 42.45l-17 101 90.53-47.94a48 48 0 0 1 44.68-.14l90.81 47.41-17.63-100.87a48 48 0 0 1 13.67-42.53l73.15-71.72-101.42-14.43a48 48 0 0 1-36.22-26.16l-45.61-91.73-45.07 92a48 48 0 0 1-36.06 26.37l-101.34 15zm182.53-133.5"/></svg>