<svg xmlns="http://www.w3.org/2000/svg" width="32" height="32" class="icon" viewBox="0 0 1024 1024"><path fill="#fff" d="M0 512a512 512 0 1 0 1024 0A512 512 0 1 0 0 512"/><path fill="#3576ea" d="M512 51.852C258.28 51.852 51.852 258.28 51.852 512S258.28 972.148 512 972.148 972.148 765.72 972.148 512 765.72 51.852 512 51.852M113.205 512c0-96.17 34.23-184.494 91.135-253.44 5.956 6.647 10.839 15.467 13.114 27.175 4.78 25.104-12.782 107.496 9.587 125.595 34.102 27.609 86.916 4.397 114.065 21.09 27.507 16.872 96.043 95.583 122.809 79.58 44.992-26.842-32.134-132.983-35.457-161.69-4.909-42.513 21.933-92.363 70.913-74.264 30.728 11.376 37.12 52.33 65.827 54.017s15.313-88.451 15.185-102.971c-.307-40.672 39.777-69.61 82.443-84.182C808.131 202.5 910.795 345.452 910.795 512a396.24 396.24 0 0 1-45.76 185.158c-3.323-35.712-12.014-75.464-33.743-87.632-42.206-23.621-89.167-1.023-123.218-38.832-14.111-15.593 3.605-85.383-38.806-102.152-82.443-32.594-149.241 34.639-169.487 88.655-8.462 22.598-11.427 50.233-7.414 77.177.844 86.584-43.97 86.661-26.97 121.377 18.636 38.038 85.204 24.54 72.243 104.172a53.17 53.17 0 0 1-16.181 30.676 486 486 0 0 1-23.621 14.7 112 112 0 0 1-13.703 4.397C277.222 895.38 113.205 722.543 113.205 512" style="stroke-width:.898727"/></svg>