<svg xmlns="http://www.w3.org/2000/svg" width="32" height="32" class="icon" viewBox="0 0 1024 1024"><path fill="#59adf8" d="M59.085 510.72a450.816 450.816 0 1 0 901.632 0 450.816 450.816 0 1 0-901.632 0"/><path fill="#fff" d="M655.184 339.44c-11.52 0-20.832-9.312-20.832-20.832v-73.584c0-11.52 9.312-20.832 20.832-20.832s20.832 9.312 20.832 20.832v73.632c0 11.472-9.312 20.784-20.832 20.784"/><path fill="#fff" d="M703.376 262.112v56.496c0 23.952-24.288 43.44-48.192 43.44-23.952 0-48.192-19.488-48.192-43.44v-56.736H429.728v56.784c0 23.952-24.288 43.44-48.192 43.44-23.952 0-48.192-19.488-48.192-43.44V261.92c-45.408 1.824-81.648 39.216-81.648 85.056v66.72h530.208v-66.72c0-44.784-34.608-81.456-78.528-84.864"/><path fill="#fff" d="M381.536 339.44c-11.52 0-20.832-9.312-20.832-20.832v-73.584c0-11.52 9.312-20.832 20.832-20.832s20.832 9.312 20.832 20.832v73.632c0 11.472-9.312 20.784-20.832 20.784m-129.84 116.832v222.864c0 47.04 38.112 85.152 85.152 85.152H696.8c47.04 0 85.152-38.112 85.152-85.152V456.272zM400.976 705.2h-75.984v-75.984h75.984zm0-125.616h-75.984V503.6h75.984zM554.816 705.2h-75.984v-75.984h75.984zm0-125.616h-75.984V503.6h75.984zM708.608 705.2h-75.984v-75.984h75.984zm0-125.616h-75.984V503.6h75.984z"/></svg>