<svg xmlns="http://www.w3.org/2000/svg" width="32" height="32" class="icon" viewBox="0 0 1024 1024"><path fill="#fff" d="M80 368h864v384a128 128 0 0 1-128 128H208A128 128 0 0 1 80 752z"/><path fill="#7febd9" d="M240 416h576q112 0 112 112v224q0 112-112 112H240q-112 0-112-112V528q0-112 112-112"/><path fill="#333" d="M816 896H208c-79.4 0-144-64.6-144-144V352h896v400c0 79.4-64.6 144-144 144M96 384v368a112.12 112.12 0 0 0 112 112h608a112.12 112.12 0 0 0 112-112V384z"/><path fill="#fff" d="M208 144h608a128 128 0 0 1 128 128v96H80v-96a128 128 0 0 1 128-128"/><path fill="#82aafa" d="M240 193h576a112 112 0 0 1 112 112v47H175a47 47 0 0 1-47-47 112 112 0 0 1 112-112"/><path fill="#333" d="M960 384H64V272c0-79.4 64.6-144 144-144h608c79.4 0 144 64.6 144 144zM96 352h832v-80a112.12 112.12 0 0 0-112-112H208A112.12 112.12 0 0 0 96 272z"/><path fill="#fff" d="M336 80q64 0 64 64v32q0 64-64 64t-64-64v-32q0-64 64-64"/><path fill="#c4f08b" d="M344.5 113q40.5 0 40.5 40.5v31q0 40.5-40.5 40.5T304 184.5v-31q0-40.5 40.5-40.5"/><path fill="#333" d="M336 256a80.09 80.09 0 0 1-80-80v-32a80 80 0 0 1 160 0v32a80.09 80.09 0 0 1-80 80m0-160a48.05 48.05 0 0 0-48 48v32a48 48 0 0 0 96 0v-32a48.05 48.05 0 0 0-48-48"/><path fill="#fff" d="M688 80q64 0 64 64v32q0 64-64 64t-64-64v-32q0-64 64-64"/><path fill="#c4f08b" d="M696.5 113q40.5 0 40.5 40.5v31q0 40.5-40.5 40.5T656 184.5v-31q0-40.5 40.5-40.5"/><path fill="#333" d="M688 256a80.09 80.09 0 0 1-80-80v-32a80 80 0 0 1 160 0v32a80.09 80.09 0 0 1-80 80m0-160a48.05 48.05 0 0 0-48 48v32a48 48 0 0 0 96 0v-32a48.05 48.05 0 0 0-48-48M256 640h160q32 0 32 32t-32 32H256q-32 0-32-32t32-32"/></svg>