<svg xmlns="http://www.w3.org/2000/svg" width="32" height="32" class="icon" viewBox="0 0 1024 1024"><path fill="#0f5197" d="M890.841 741.749c-12.48 6.71-25.314 12.48-38.619 17.307a376.1 376.1 0 0 1-132.044 23.902c-173.96 0-325.55-119.506-325.55-273.274a115.39 115.39 0 0 1 60.4-100.431c-157.417 6.652-197.86 170.722-197.86 266.68 0 271.8 250.431 299.41 304.532 299.41 29.082 0 72.822-8.477 99.314-16.895l4.768-1.472a470.78 470.78 0 0 0 244.957-194.27 14.717 14.717 0 0 0-4.415-20.192 15.48 15.48 0 0 0-15.424-.765z"/><path fill="#0c88da" d="M429.95 929.013a292.4 292.4 0 0 1-83.477-78.355A296.88 296.88 0 0 1 454.97 409.253a121.86 121.86 0 0 1 56.986-14.718 119.86 119.86 0 0 1 94.544 47.861c14.894 19.898 23.077 43.917 23.548 68.76 0-.765 90.07-292.759-294.23-292.759-161.48 0-294.29 153.356-294.29 287.637a479.7 479.7 0 0 0 44.505 205.927A471.075 471.075 0 0 0 661.308 958.8a278.69 278.69 0 0 1-231.358-29.788"/><path fill="#2cc3d5" d="M601.379 588.746c-2.944 3.71-12.186 9.243-12.186 20.958 0 9.596 6.299 18.838 17.307 26.491 52.983 36.794 152.65 32.026 153.062 32.026a219.5 219.5 0 0 0 111.381-30.554 225.47 225.47 0 0 0 111.852-194.564c1.119-82.418-29.434-137.167-41.562-161.48a405.3 405.3 0 0 0-77.06-104.729 454 454 0 0 0-131.22-89.305 535.8 535.8 0 0 0-220.997-46.507A470.78 470.78 0 0 0 41.175 505.269c1.825-134.223 135.4-242.778 294.23-242.778 12.952 0 86.48 1.177 154.533 37.146 59.93 31.672 91.543 69.525 113.266 107.438 22.782 39.324 26.844 88.657 26.844 108.496 0 19.84-9.949 48.921-28.67 73.175"/><path fill="#49d668" d="M638.702 54.975q342.74 354.278-44.74 545.722-25.02 41.562 94.662 63.108 198.214 43.093 278.218-131.103c16.071-54.63 30.435-139.226-12.186-233.418a393.5 393.5 0 0 0-70.762-104.611 502.6 502.6 0 0 0-104.022-87.128q-62.991-32.142-141.229-52.57Z"/></svg>