<svg xmlns="http://www.w3.org/2000/svg" width="32" height="32" class="icon" viewBox="0 0 1024 1024"><path fill="#fff" d="M272 192h480a128 128 0 0 1 128 128v128H144V320a128 128 0 0 1 128-128"/><path fill="#333" d="M896 464H128V320c0-79.4 64.6-144 144-144h480c79.4 0 144 64.6 144 144zm-736-32h704V320a112.12 112.12 0 0 0-112-112H272a112.12 112.12 0 0 0-112 112z"/><path fill="#82dafa" d="M304 240h448a112 112 0 0 1 112 112v80H192v-80a112 112 0 0 1 112-112"/><path fill="#fff" d="M336 80h352q96 0 96 96v368q0 96-96 96H336q-96 0-96-96V176q0-96 96-96"/><path fill="#333" d="M688 656H336a112.12 112.12 0 0 1-112-112V176A112.12 112.12 0 0 1 336 64h352a112.12 112.12 0 0 1 112 112v368a112.12 112.12 0 0 1-112 112M336 96a80.09 80.09 0 0 0-80 80v368a80.09 80.09 0 0 0 80 80h352a80.09 80.09 0 0 0 80-80V176a80.09 80.09 0 0 0-80-80z"/><path fill="#ffbf80" d="M368 128h320q80 0 80 80v336q0 80-80 80H368q-80 0-80-80V208q0-80 80-80"/><path fill="#fff" d="M144 448h736v368a128 128 0 0 1-128 128H272a128 128 0 0 1-128-128z"/><path fill="#333" d="M752 960H272c-79.4 0-144-64.6-144-144V432h768v384c0 79.4-64.6 144-144 144M160 464v352a112.12 112.12 0 0 0 112 112h480a112.12 112.12 0 0 0 112-112V464z"/><path fill="#ff8591" d="M304 496h448q112 0 112 112v208q0 112-112 112H304q-112 0-112-112V608q0-112 112-112"/><path fill="#333" d="M597.24 652.07a71.56 71.56 0 0 0-32-33.07q-21.24-11-52.67-11-32 0-53.26 10.94a70.82 70.82 0 0 0-32 32.95q-10.71 22-10.95 55.2-.13 8.37-.13 16.72v16.72q0 30.62 10.64 50.9a67.94 67.94 0 0 0 32 30.43Q480.34 832 512.57 832h26.51a11 11 0 0 0 0-22h-26.51q-24.56 0-40.8-7.68a51.37 51.37 0 0 1-24.3-23.11q-8.06-15.44-8.05-38.67v-16.85q0-8.36.12-16.6.25-26.05 8.37-43.27A55 55 0 0 1 472.15 638q16.11-8.61 40.42-8.61 23.65 0 39.78 8.67a55.64 55.64 0 0 1 24.3 25.94q8.19 17.28 8.18 43.09v40.82q0 9.21-2.7 13.4t-8.63 4.18a9.27 9.27 0 0 1-8.43-4.43q-2.77-4.42-2.77-13.52v-36.76q0-27.78-12.47-41.49t-37.64-13.71q-25.19 0-37.71 13.71T462 710.66v21.14q0 27.54 11 41.31t33.17 13.77q16.5 0 25.88-7.31a29.25 29.25 0 0 0 8.07-10 28.5 28.5 0 0 0 5.15 7.67q9.12 9.59 27.38 9.59 17.25 0 26.31-10.08t9.04-31.3v-38.36q0-32.94-10.76-55.02m-70.88 108.75a22 22 0 0 1-2.82 1.41zM528 289H368a16 16 0 0 1 0-32h160a16 16 0 0 1 0 32"/></svg>