<svg xmlns="http://www.w3.org/2000/svg" width="32" height="32" class="icon" viewBox="0 0 1024 1024"><path fill="#fff" d="M272 80h480q128 0 128 128v384q0 128-128 128H272q-128 0-128-128V208q0-128 128-128"/><path fill="#ffe07a" d="M305 128h447q112 0 112 112v384q0 112-112 112H305q-112 0-112-112V240q0-112 112-112"/><path fill="#333" d="M752 768H272c-79.4 0-144-64.6-144-144V208c0-79.4 64.6-144 144-144h480c79.4 0 144 64.6 144 144v416c0 79.4-64.6 144-144 144M272 96a112.12 112.12 0 0 0-112 112v416a112.12 112.12 0 0 0 112 112h480a112.12 112.12 0 0 0 112-112V208A112.12 112.12 0 0 0 752 96z"/><path fill="#fff" d="M816 528h-77.88a64.11 64.11 0 0 0-60.27 43 176 176 0 0 1-331.7 0 64.11 64.11 0 0 0-60.27-43H208A128 128 0 0 0 80 656v160a128 128 0 0 0 128 128h608a128 128 0 0 0 128-128V656a128 128 0 0 0-128-128"/><path fill="#ff9580" d="M816 576h-46a64.06 64.06 0 0 0-57.35 35.62 224.07 224.07 0 0 1-401.34 0A64.06 64.06 0 0 0 254 576h-14a112 112 0 0 0-112 112v128a112 112 0 0 0 112 112h576a112 112 0 0 0 112-112V688a112 112 0 0 0-112-112"/><path fill="#333" d="M816 960H208c-79.4 0-144-64.6-144-144V656c0-79.4 64.6-144 144-144h77.88c33.65 0 63.93 21.55 75.34 53.64a160.06 160.06 0 0 0 301.56 0c11.41-32.09 41.69-53.64 75.34-53.64H816c79.4 0 144 64.6 144 144v160c0 79.4-64.6 144-144 144M208 544A112.12 112.12 0 0 0 96 656v160a112.12 112.12 0 0 0 112 112h608a112.12 112.12 0 0 0 112-112V656a112.12 112.12 0 0 0-112-112h-77.88a48.28 48.28 0 0 0-45.19 32.36 192.05 192.05 0 0 1-361.86 0A48.28 48.28 0 0 0 285.88 544zM288 256h192q32 0 32 32t-32 32H288q-32 0-32-32t32-32"/></svg>