<svg xmlns="http://www.w3.org/2000/svg" width="32" height="32" class="icon" viewBox="0 0 1024 1024"><path fill="#e50080" d="M955.968 345.6c-20.8-50.368-63.04-104.704-96.128-121.856 26.944 53.12 42.56 106.368 48.512 146.112v.96C953.6 493.952 928.96 619.136 893.44 695.68c-54.976 118.4-187.968 239.68-396.16 233.792C272.448 923.072 74.24 755.392 37.248 536c-6.72-34.624 0-52.224 3.392-80.32-4.096 21.696-5.696 27.904-7.744 66.432v2.432c0 265.856 214.656 481.344 479.488 481.344 237.12 0 434.048-172.8 472.576-399.872.832-6.144 1.472-12.352 2.176-18.56 9.472-82.56-1.088-169.344-31.168-241.92z"/><path fill="#ffb724" d="m723.84 405.76 3.008 2.24a261.4 261.4 0 0 0-44.608-58.304C532.8 200.064 643.072 25.216 661.632 16.384l.192-.256C541.12 86.912 500.16 217.92 496.384 283.52c5.568-.384 11.2-.896 16.896-.896a242.56 242.56 0 0 1 210.56 123.2z"/><path fill="#9755fc" d="M513.536 435.648c-.768 12.032-43.008 53.312-57.792 53.312q-136.704 0-158.848 82.816c6.016 69.76 54.528 127.104 113.216 157.504 2.688 1.408 5.376 2.624 8 3.84 4.672 2.048 9.408 4.032 14.08 5.824 20.16 7.104 41.28 11.136 62.592 12.032C734.336 762.24 780.8 464.128 607.872 377.536c44.288-7.68 90.24 10.176 115.84 28.16a242.56 242.56 0 0 0-210.56-123.136c-5.696 0-11.264.512-16.896.896a240.4 240.4 0 0 0-132.224 51.072c7.296 6.272 15.616 14.528 33.024 31.744 32.64 32.256 116.352 65.472 116.48 69.376"/><path fill="#ff9800" d="m341.696 318.528 9.984 6.592a223.36 223.36 0 0 1-1.344-117.632c-49.408 22.528-87.808 58.112-115.712 89.6 2.24-.128 72-1.344 107.072 21.44"/><path fill="#ef5350" d="M36.48 539.648C73.536 759.04 272.192 926.72 497.728 933.12c208.704 5.888 342.016-115.392 397.184-233.792 35.584-76.544 60.288-201.728 14.912-324.864v-.896l.128.768c17.024 111.488-39.616 219.52-128.128 292.544a11 11 0 0 0-.256.64c-172.48 140.672-337.536 84.864-371.008 62.08a281 281 0 0 1-6.976-3.456C303.04 678.08 261.504 586.24 270.4 507.52q-84.928 0-113.92-71.68 76.288-54.464 176.768-7.104c93.056 43.84 180.48 7.04 180.48 7.04-.192-3.84-83.84-37.184-116.48-69.376-17.408-17.216-25.664-25.472-33.024-31.744a142 142 0 0 0-12.416-9.408c-2.88-1.984-6.016-3.968-10.048-6.592-35.008-22.848-104.768-21.568-107.072-21.504h-.192c-19.072-24.192-17.728-103.872-16.64-120.512-.256-1.088-14.208 7.232-16 8.512a349.6 349.6 0 0 0-46.976 40.32 416 416 0 0 0-44.928 53.888 406.6 406.6 0 0 0-64.448 145.792c-.384.96-17.536 75.712-9.088 114.496z"/><path fill="#ffd83c" d="M682.24 349.696c17.536 17.28 32.576 36.864 44.608 58.304a95 95 0 0 1 7.232 6.016c108.928 100.48 51.968 242.688 47.616 252.928 88.512-73.088 145.152-181.12 128.064-292.544C855.424 238.592 763.264 183.872 688 64.768a514 514 0 0 1-11.328-18.432 139 139 0 0 1-5.248-9.984 87.7 87.7 0 0 1-7.232-19.008 1.28 1.28 0 0 0-1.024-1.28 1.73 1.73 0 0 0-.96 0 1 1 0 0 0-.192.128l-.384.192c-18.56 8.896-128.832 183.68 20.608 333.312"/><path fill="#ff9800" d="M734.08 413.952a93 93 0 0 0-7.232-6.016l-3.008-2.24c-25.664-18.048-71.68-35.84-115.904-28.16C780.8 464.064 734.4 762.176 494.848 750.912a213.5 213.5 0 0 1-62.528-12.032 262 262 0 0 1-22.144-9.6l.32.192c33.408 22.784 198.464 78.592 371.008-62.08l.256-.64c4.288-10.048 61.248-152.32-47.744-252.8z"/><path fill="#ffd83c" d="M296.896 571.776Q319.04 488.96 455.68 488.96c14.784 0 57.024-41.28 57.792-53.312.768-11.968-87.36 36.8-180.48-7.04q-100.48-47.36-176.64 7.04 28.928 71.744 113.792 71.744c-8.896 78.72 32.64 170.496 133.248 218.624 2.24 1.024 4.352 2.24 6.656 3.264-58.688-30.336-107.136-87.808-113.28-157.504z"/></svg>