<svg xmlns="http://www.w3.org/2000/svg" width="32" height="32" class="icon" viewBox="0 0 1024 1024"><path fill="#fff" d="M80 464h864v288a128 128 0 0 1-128 128H208A128 128 0 0 1 80 752z"/><path fill="#ff8591" d="M240 512h576q112 0 112 112v128q0 112-112 112H240q-112 0-112-112V624q0-112 112-112"/><path fill="#333" d="M816 896H208c-79.4 0-144-64.6-144-144V448h896v304c0 79.4-64.6 144-144 144M96 480v272a112.12 112.12 0 0 0 112 112h608a112.12 112.12 0 0 0 112-112V480z"/><path fill="#fff" d="M944 448H80V272a128 128 0 0 1 128-128h179a64 64 0 0 1 48.16 21.86l73.76 84.28A64 64 0 0 0 557 272h259a128 128 0 0 1 128 128z"/><path fill="#ffbf80" d="M928 448H128V304a112 112 0 0 1 112-112h117a64 64 0 0 1 48.16 21.86l73.76 84.28A64 64 0 0 0 527 320h289a112 112 0 0 1 112 112z"/><path fill="#333" d="M960 480H64V272a144 144 0 0 1 144-144h179a80 80 0 0 1 60.2 27.32l73.76 84.29A48 48 0 0 0 557 256h259a144 144 0 0 1 144 144zM208 160A112 112 0 0 0 96 272v176h832v-48a112 112 0 0 0-112-112H557a80 80 0 0 1-60.2-27.32l-73.76-84.29A48 48 0 0 0 387 160zM224 704h128q32 0 32 32t-32 32H224q-32 0-32-32t32-32"/></svg>