<svg xmlns="http://www.w3.org/2000/svg" width="32" height="32" class="icon" viewBox="0 0 1024 1024"><path fill="#f4ca1c" d="M736.42 556.344a185.298 185.298 0 1 0-185.298 185.298A185.3 185.3 0 0 0 736.42 556.344"/><path fill="#595bb3" d="M898.232 418.202 604.16 121.667A152.58 152.58 0 0 0 496.492 76.8h-.338l-267.459.604A151.96 151.96 0 0 0 77.389 228.71L76.8 496.19a152.6 152.6 0 0 0 44.882 108.031l296.55 294.032a151.946 151.946 0 0 0 214.016-.466l265.554-265.57a151.956 151.956 0 0 0 .43-214.015M849.08 583.49 583.526 849.065a82.91 82.91 0 0 1-116.736.256L170.214 555.279a83.24 83.24 0 0 1-24.483-58.941l.563-267.474a82.913 82.913 0 0 1 82.57-82.555l267.464-.604h.179a83.27 83.27 0 0 1 58.757 24.479l294.042 296.535a82.91 82.91 0 0 1-.241 116.772zM398.228 251.254A144.701 144.701 0 1 0 542.925 395.96a144.865 144.865 0 0 0-144.697-144.706m0 220.503a75.776 75.776 0 1 1 75.776-75.776 75.884 75.884 0 0 1-75.776 75.776"/></svg>