<svg xmlns="http://www.w3.org/2000/svg" width="32" height="32" class="icon" viewBox="0 0 1024 1024"><path fill="#ff5c64" d="M63.13 513.638a450.816 450.816 0 1 0 901.632 0 450.816 450.816 0 1 0-901.632 0"/><path fill="#fff" d="M819.824 406.496c-22.464-102.144-102.384-166.032-216-143.088-35.664 7.2-63.84 26.784-88.848 52.416-2.112-.912-2.976-1.104-3.552-1.584-1.584-1.344-3.12-2.736-4.56-4.224-32.592-33.744-72.912-49.248-119.232-51.12-55.392-2.208-102.432 15.936-137.664 59.04-61.872 75.648-63.504 189.072-5.664 270.192 29.424 41.28 65.04 76.608 104.304 108.144 40.416 32.496 81.744 63.936 123.312 94.944 26.064 19.44 54.384 20.832 78.768 3.216 70.944-51.36 142.32-102.288 201.6-167.76 56.88-62.976 86.4-134.352 67.536-220.176m-470.64 140.976a28.7 28.7 0 0 1-16.896 5.472c-8.928 0-17.712-4.128-23.328-11.904-55.296-76.272-15.36-144.672-13.68-147.552a28.77 28.77 0 0 1 39.504-9.84 28.834 28.834 0 0 1 10.032 39.264c-2.352 4.224-21.024 40.512 10.752 84.336 9.36 12.864 6.48 30.864-6.384 40.224"/></svg>