<svg xmlns="http://www.w3.org/2000/svg" width="32" height="32" class="icon" viewBox="0 0 1024 1024"><path fill="#fff" d="M208 144h608q128 0 128 128v352q0 128-128 128H208Q80 752 80 624V272q0-128 128-128"/><path fill="#a89bfa" d="M240 192h576q112 0 112 112v320q0 112-112 112H240q-112 0-112-112V304q0-112 112-112"/><path fill="#333" d="M816 768H208c-79.4 0-144-64.6-144-144V272c0-79.4 64.6-144 144-144h608c79.4 0 144 64.6 144 144v352c0 79.4-64.6 144-144 144M208 160A112.12 112.12 0 0 0 96 272v352a112.12 112.12 0 0 0 112 112h608a112.12 112.12 0 0 0 112-112V272a112.12 112.12 0 0 0-112-112z"/><path fill="#fff" d="M554.81 857.47 672 752H352l117.19 105.47a64 64 0 0 0 85.62 0"/><path fill="#ff9580" d="M533.24 855.08 595 800h-95.44a16 16 0 0 0-12.2 26.35l23 27.14a16 16 0 0 0 22.88 1.59"/><path fill="#333" d="M512 890a79.8 79.8 0 0 1-53.52-20.59L341.3 763.89A16 16 0 0 1 352 736h320a16 16 0 0 1 10.7 27.89L565.52 869.36A79.8 79.8 0 0 1 512 890M393.7 768l86.19 77.58a47.91 47.91 0 0 0 64.22 0L630.3 768zM304 352h240q32 0 32 32t-32 32H304q-32 0-32-32t32-32M304 512h112q32 0 32 32t-32 32H304q-32 0-32-32t32-32"/></svg>