<svg xmlns="http://www.w3.org/2000/svg" width="32" height="32" class="icon" viewBox="0 0 1024 1024"><path fill="#ff9552" d="M59.238 513.126a450.816 450.816 0 1 0 901.632 0 450.816 450.816 0 1 0-901.632 0"/><path fill="#fff" d="M744.992 289.472H275.36c-30.336 0-54.912 24.576-54.912 54.912v329.424c0 30.336 24.576 54.912 54.912 54.912h65.76l.624 72.576c.096 10.704 11.52 17.52 20.976 12.48l159.984-85.056H745.04c30.336 0 54.912-24.576 54.912-54.912V344.384c-.048-30.336-24.624-54.912-54.96-54.912M547.424 601.424H363.152a29.808 29.808 0 1 1 0-59.616h184.272a29.808 29.808 0 1 1 0 59.616M663.2 480.704H363.152a29.808 29.808 0 1 1 0-59.616H663.2a29.808 29.808 0 1 1 0 59.616"/></svg>