<svg xmlns="http://www.w3.org/2000/svg" width="32" height="32" class="icon" viewBox="0 0 1024 1024"><path fill="#39f" d="M174.5 99.5h225c41.25 0 75 33.75 75 75v225c0 41.25-33.75 75-75 75h-225c-41.25 0-75-33.75-75-75v-225c0-41.25 33.75-75 75-75"/><path d="M399.5 493.25h-225c-52.5 0-93.75-41.25-93.75-93.75v-225c0-52.5 41.25-93.75 93.75-93.75h225c52.5 0 93.75 41.25 93.75 93.75v225c0 52.5-41.25 93.75-93.75 93.75m-225-375c-31.875 0-56.25 24.375-56.25 56.25v225c0 31.875 24.375 56.25 56.25 56.25h225c31.875 0 56.25-24.375 56.25-56.25v-225c0-31.875-24.375-56.25-56.25-56.25z"/><path fill="#fff" d="M624.5 99.5h225c41.25 0 75 33.75 75 75v225c0 41.25-33.75 75-75 75h-225c-41.25 0-75-33.75-75-75v-225c0-41.25 33.75-75 75-75"/><path d="M849.5 493.25h-225c-52.5 0-93.75-41.25-93.75-93.75v-225c0-52.5 41.25-93.75 93.75-93.75h225c52.5 0 93.75 41.25 93.75 93.75v225c0 52.5-41.25 93.75-93.75 93.75m-225-375c-31.875 0-56.25 24.375-56.25 56.25v225c0 31.875 24.375 56.25 56.25 56.25h225c31.875 0 56.25-24.375 56.25-56.25v-225c0-31.875-24.375-56.25-56.25-56.25z"/><path fill="#fff" d="M174.5 549.5h225c41.25 0 75 33.75 75 75v225c0 41.25-33.75 75-75 75h-225c-41.25 0-75-33.75-75-75v-225c0-41.25 33.75-75 75-75"/><path d="M399.5 943.25h-225c-52.5 0-93.75-41.25-93.75-93.75v-225c0-52.5 41.25-93.75 93.75-93.75h225c52.5 0 93.75 41.25 93.75 93.75v225c0 52.5-41.25 93.75-93.75 93.75m-225-375c-31.875 0-56.25 24.375-56.25 56.25v225c0 31.875 24.375 56.25 56.25 56.25h225c31.875 0 56.25-24.375 56.25-56.25v-225c0-31.875-24.375-56.25-56.25-56.25z"/><path fill="#ffbf80" d="M624.5 549.5h225c41.25 0 75 33.75 75 75v225c0 41.25-33.75 75-75 75h-225c-41.25 0-75-33.75-75-75v-225c0-41.25 33.75-75 75-75"/><path d="M849.5 943.25h-225c-52.5 0-93.75-41.25-93.75-93.75v-225c0-52.5 41.25-93.75 93.75-93.75h225c52.5 0 93.75 41.25 93.75 93.75v225c0 52.5-41.25 93.75-93.75 93.75m-225-375c-31.875 0-56.25 24.375-56.25 56.25v225c0 31.875 24.375 56.25 56.25 56.25h225c31.875 0 56.25-24.375 56.25-56.25v-225c0-31.875-24.375-56.25-56.25-56.25z"/></svg>