<svg xmlns="http://www.w3.org/2000/svg" width="32" height="32" class="icon" viewBox="0 0 1024 1024"><path fill="#66c1ff" d="M818.176 51.2c-10.24 0-18.432 9.216-18.432 20.48l-2.048 720.896 75.776 79.872c7.168 7.168 18.432 7.168 25.6 0l70.656-73.728c4.096-4.096 6.144-9.216 6.144-14.336L977.92 71.68c0-11.264-8.192-20.48-18.432-20.48z"/><path fill="#ffe08a" d="M966.656 150.528V80.896c0-8.192-6.144-14.336-12.288-14.336H822.272c-7.168 0-12.288 6.144-12.288 14.336v69.632z"/><path fill="#330867" d="M982.016 165.888 793.6 164.864V79.872c0-16.384 12.288-29.696 27.648-29.696h132.096c16.384 1.024 29.696 14.336 29.696 30.72zM824.32 134.144h126.976l1.024-52.224H825.344z"/><path fill="#330867" d="M830.464 81.92H947.2l-2.048 698.368-58.368 60.416-58.368-60.416zM812.032 51.2c-6.144 0-12.288 6.144-12.288 13.312l-2.048 728.064 80.896 83.968c2.048 2.048 5.12 4.096 8.192 4.096s6.144-1.024 8.192-4.096l76.8-79.872c2.048-2.048 4.096-6.144 4.096-9.216l2.048-721.92c0-7.168-5.12-13.312-12.288-13.312z"/><path fill="#fc6b79" d="m893.952 910.336 67.584-112.64c4.096-6.144-1.024-14.336-8.192-14.336H819.2c-7.168 0-12.288 8.192-8.192 14.336l66.56 112.64c4.096 6.144 13.312 6.144 16.384 0"/><path fill="#330867" d="M885.76 930.816c-9.216 0-17.408-5.12-21.504-12.288l-66.56-112.64c-4.096-8.192-5.12-17.408 0-25.6C801.792 772.096 809.984 768 819.2 768h134.144c9.216 0 17.408 5.12 21.504 12.288 4.096 8.192 4.096 17.408 0 25.6l-67.584 112.64c-4.096 7.168-12.288 12.288-21.504 12.288m-56.32-133.12 56.32 96.256 57.344-95.232z"/><path fill="#fc6b79" d="M686.08 848.896H112.64c-33.792 0-61.44-27.648-61.44-61.44v-665.6c0-33.792 27.648-61.44 61.44-61.44h573.44c33.792 0 61.44 27.648 61.44 61.44v665.6c0 33.792-27.648 61.44-61.44 61.44"/><path fill="#330867" d="M686.08 864.256H112.64c-41.984 0-76.8-34.816-76.8-76.8v-665.6c0-41.984 34.816-76.8 76.8-76.8h573.44c41.984 0 76.8 34.816 76.8 76.8v665.6c0 41.984-34.816 76.8-76.8 76.8M112.64 74.752c-25.6 0-46.08 20.48-46.08 46.08v665.6c0 25.6 20.48 46.08 46.08 46.08h573.44c25.6 0 46.08-20.48 46.08-46.08v-665.6c0-25.6-20.48-46.08-46.08-46.08z"/><path fill="#dd365e" d="M744.448 788.48H96.256c-24.576 0-44.032 19.456-44.032 44.032v44.032c0 25.6 19.456 45.056 44.032 45.056h650.24"/><path fill="#330867" d="M746.496 936.96H96.256c-32.768 0-59.392-26.624-59.392-59.392v-44.032c0-32.768 26.624-59.392 59.392-59.392h648.192v30.72H96.256c-16.384 0-28.672 13.312-28.672 28.672v44.032c0 16.384 13.312 28.672 28.672 28.672h650.24z"/><path fill="#99caff" d="M156.672 65.536h142.336V194.56l-59.392-54.272c-3.072-3.072-7.168-5.12-12.288-5.12-4.096 0-9.216 2.048-12.288 5.12l-58.368 54.272z"/><path fill="#330867" d="M288.768 75.776v96.256l-41.984-38.912c-5.12-5.12-12.288-7.168-18.432-7.168s-13.312 3.072-18.432 7.168l-41.984 37.888V75.776zm13.312-20.48H154.624c-4.096 0-7.168 3.072-7.168 7.168v138.24c0 4.096 4.096 7.168 7.168 7.168 2.048 0 3.072-1.024 5.12-2.048l63.488-57.344c1.024-1.024 3.072-2.048 5.12-2.048s4.096 1.024 5.12 2.048l63.488 57.344c1.024 1.024 3.072 2.048 5.12 2.048 4.096 0 7.168-3.072 7.168-7.168V62.464c0-4.096-3.072-7.168-7.168-7.168"/><path fill="#ffe08a" d="M279.198 566.44a166.912 166.912 0 1 0 236.045-236.053 166.912 166.912 0 1 0-236.045 236.054"/><path fill="#330867" d="M397.312 630.784c-100.352 0-182.272-81.92-182.272-182.272S296.96 266.24 397.312 266.24s182.272 81.92 182.272 182.272-81.92 182.272-182.272 182.272m0-333.824c-83.968 0-151.552 68.608-151.552 151.552s67.584 151.552 151.552 151.552 151.552-67.584 151.552-151.552S480.256 296.96 397.312 296.96"/><path fill="#9555b5" d="m412.672 364.544 17.408 34.816c2.048 5.12 7.168 8.192 12.288 9.216l37.888 5.12c14.336 2.048 19.456 19.456 9.216 28.672l-27.648 26.624c-4.096 4.096-6.144 9.216-5.12 15.36l6.144 37.888c2.048 14.336-12.288 24.576-24.576 17.408l-32.768-17.408c-5.12-3.072-11.264-3.072-15.36 0l-33.792 17.408c-12.288 6.144-26.624-4.096-24.576-17.408l6.144-37.888c1.024-5.12-1.024-11.264-5.12-15.36l-27.648-26.624c-10.24-10.24-4.096-26.624 9.216-28.672l37.888-5.12c5.12-1.024 10.24-4.096 12.288-9.216l17.408-34.816c6.144-12.288 24.576-12.288 30.72 0"/><path fill="#330867" d="M347.136 557.056c-7.168 0-13.312-2.048-19.456-6.144-10.24-7.168-15.36-19.456-13.312-31.744l6.144-37.888v-1.024l-27.648-26.624c-9.216-8.192-12.288-21.504-8.192-32.768 4.096-12.288 13.312-20.48 25.6-21.504l37.888-5.12s1.024 0 1.024-1.024l17.408-34.816a31.508 31.508 0 0 1 57.344 0l17.408 34.816 1.024 1.024 37.888 5.12c12.288 2.048 22.528 10.24 25.6 21.504s1.024 24.576-8.192 32.768l-27.648 26.624s-1.024 1.024 0 1.024l6.144 37.888c2.048 12.288-3.072 24.576-13.312 31.744s-23.552 8.192-33.792 2.048l-33.792-17.408h-1.024l-33.792 17.408c-3.072 3.072-8.192 4.096-13.312 4.096m50.176-186.368c-1.024 0-1.024 1.024-1.024 1.024l-17.408 33.792c-5.12 9.216-13.312 16.384-24.576 17.408l-37.888 5.12s-1.024 0-1.024 1.024v2.048l27.648 26.624c7.168 7.168 11.264 18.432 9.216 28.672l-6.144 37.888s0 1.024 1.024 2.048 1.024 0 2.048 0l33.792-17.408a30.63 30.63 0 0 1 29.696 0l33.792 17.408h2.048c1.024-1.024 1.024-1.024 1.024-2.048l-6.144-37.888c-2.048-10.24 2.048-21.504 9.216-28.672l27.648-26.624s1.024-1.024 0-2.048c0-1.024-1.024-1.024-1.024-1.024l-38.912-5.12c-10.24-1.024-19.456-8.192-24.576-17.408l-17.408-34.816z"/></svg>