<svg xmlns="http://www.w3.org/2000/svg" width="32" height="32" class="icon" viewBox="0 0 1024 1024"><path fill="#fff" d="M400 832a112 112 0 1 0 224 0 112 112 0 1 0-224 0"/><path fill="#82dafa" d="M448 848a80 80 0 1 0 160 0 80 80 0 1 0-160 0"/><path fill="#333" d="M512 960a128 128 0 1 1 128-128 128.14 128.14 0 0 1-128 128m0-224a96 96 0 1 0 96 96 96.11 96.11 0 0 0-96-96"/><path fill="#fff" d="M512 80a304 304 0 0 1 304 304v272H208V384A304 304 0 0 1 512 80"/><path fill="#ff8591" d="M528 128a272 272 0 0 1 272 272v240H320a64 64 0 0 1-64-64V400a272 272 0 0 1 272-272"/><path fill="#333" d="M832 672H192V384a320 320 0 0 1 640 0zm-608-32h576V384c0-158.8-129.2-288-288-288S224 225.2 224 384z"/><path fill="#fff" d="M176 656h672q96 0 96 96t-96 96H176q-96 0-96-96t96-96"/><path fill="#ffbf80" d="M192 704h672q64 0 64 64t-64 64H192q-64 0-64-64t64-64"/><path fill="#333" d="M848 864H176a112 112 0 0 1 0-224h672a112 112 0 0 1 0 224M176 672a80 80 0 0 0 0 160h672a80 80 0 0 0 0-160z"/></svg>