<svg xmlns="http://www.w3.org/2000/svg" width="32" height="32" class="icon" viewBox="0 0 1024 1024"><path fill="#fff" d="M256 416h512q112 0 112 112v304q0 112-112 112H256q-112 0-112-112V528q0-112 112-112"/><path fill="#a89bfa" d="M304 464h448q112 0 112 112v240q0 112-112 112H304q-112 0-112-112V576q0-112 112-112"/><path fill="#333" d="M512 768a32 32 0 0 1-32-32V608a32 32 0 0 1 64 0v128a32 32 0 0 1-32 32"/><path fill="#fff" d="M256 336c0-141.38 114.62-256 256-256s256 114.62 256 256v80H256z"/><path fill="#82dafa" d="M304.76 343.62C304.76 215.7 408.46 112 536.38 112S768 215.7 768 343.62V416H304.76z"/><path fill="#333" d="M784 403.59V336a272 272 0 0 0-544 0v67.59c-64 14.59-112 72-112 140.41v272c0 79.4 64.6 144 144 144h480c79.4 0 144-64.6 144-144V544c0-68.41-47.95-125.82-112-140.41M272 336c0-132.34 107.66-240 240-240s240 107.66 240 240v64H272zm592 480a112.12 112.12 0 0 1-112 112H272a112.12 112.12 0 0 1-112-112V544a112.12 112.12 0 0 1 112-112h480a112.12 112.12 0 0 1 112 112z"/></svg>