<svg xmlns="http://www.w3.org/2000/svg" width="32" height="32" class="icon" viewBox="0 0 1024 1024"><path fill="#fff" d="M272 80h480q128 0 128 128v608q0 128-128 128H272q-128 0-128-128V208q0-128 128-128"/><path fill="#7febd9" d="M305 129h447q112 0 112 112v575q0 112-112 112H305q-112 0-112-112V241q0-112 112-112"/><path fill="#fff" d="M560 80v224l-112-48-112 48V80z"/><path fill="#ffe07a" d="M544 160v128l-96-48-40.84 20.42A16 16 0 0 1 384 246.11V192a64 64 0 0 1 64-64h64a32 32 0 0 1 32 32"/><path fill="#333" d="M752 64H272c-79.4 0-144 64.6-144 144v608c0 79.4 64.6 144 144 144h480c79.4 0 144-64.6 144-144V208c0-79.4-64.6-144-144-144M544 96v183.74l-89.7-38.45a16 16 0 0 0-12.6 0L352 279.74V96zm320 720a112.12 112.12 0 0 1-112 112H272a112.12 112.12 0 0 1-112-112V208A112.12 112.12 0 0 1 272 96h48v208a16 16 0 0 0 22.3 14.71l105.7-45.3 105.7 45.3A16 16 0 0 0 576 304V96h176a112.12 112.12 0 0 1 112 112z"/><path fill="#333" d="M336 448h352q16 0 16 16t-16 16H336q-16 0-16-16t16-16M352 640h128q32 0 32 32t-32 32H352q-32 0-32-32t32-32"/></svg>