<svg xmlns="http://www.w3.org/2000/svg" width="32" height="32" class="icon" viewBox="0 0 1024 1024"><path fill="#fff" d="M880 944 558.64 818.25a128 128 0 0 0-93.28 0L144 944V208A128 128 0 0 1 272 80h480a128 128 0 0 1 128 128z"/><path fill="#ffe07a" d="M864 928 559.93 803.61a128 128 0 0 0-96-.38l-228 91.22A32 32 0 0 1 192 864.73V224a96 96 0 0 1 96-96h480a96 96 0 0 1 96 96z"/><path fill="#fff" d="M630.66 640 512 577.14 393.33 640 416 506.86l-96-94.29 132.67-19.43L512 272l59.33 121.14L704 412.56l-96 94.29z"/><path fill="#ff9580" d="M630.66 640 512 577.14l-40.08 8.68A16 16 0 0 1 452.85 567L465 506.86l-34.9-41.21a16 16 0 0 1 6-25.09l60.55-25.42L517.59 363a16 16 0 0 1 27.51-3.83l26.23 34L704 412.56l-96 94.29z"/><path fill="#333" d="M880 960a15.9 15.9 0 0 1-5.83-1.1L552.81 833.15a111.66 111.66 0 0 0-81.62 0L149.83 958.9A16 16 0 0 1 128 944V208c0-79.4 64.6-144 144-144h480c79.4 0 144 64.6 144 144v736a16 16 0 0 1-16 16M272 96a112.12 112.12 0 0 0-112 112v712.56l299.53-117.21a143.6 143.6 0 0 1 104.94 0L864 920.56V208A112.12 112.12 0 0 0 752 96z"/><path fill="#333" d="M393.33 656a16 16 0 0 1-15.77-18.69l21.26-124.9-90-88.43a16 16 0 0 1 8.89-27.24L442 378.53 497.63 265a16 16 0 0 1 14.37-9 16 16 0 0 1 14.37 9L582 378.53l124.33 18.2a16 16 0 0 1 8.88 27.27l-90 88.44 21.26 124.9a16 16 0 0 1-23.26 16.82L512 595.24l-111.18 58.9a16 16 0 0 1-7.49 1.86M354.2 423.73l73 71.71a16 16 0 0 1 4.56 14.1l-17.2 101.11L504.51 563a16 16 0 0 1 15 0l89.94 47.64-17.21-101.1a16 16 0 0 1 4.57-14.1l73-71.72L569 409a16 16 0 0 1-12-8.8l-45-91.79-45 91.8a16 16 0 0 1-12 8.79z"/></svg>