<svg xmlns="http://www.w3.org/2000/svg" xml:space="preserve" width="32" height="32" class="icon" viewBox="0 0 1024 1024"><g style="fill:none"><path fill="#e95420" d="M979.178 512c0 257.882-209.062 467.178-467.178 467.178S44.822 769.882 44.822 512C44.822 253.884 253.884 44.822 512 44.822S979.178 253.884 979.178 512"/><path fill="#fff" d="M205.716 450.476c-33.693 0-60.785 27.704-60.785 61.64 0 33.938 27.32 61.642 60.785 61.642 33.466 0 60.785-27.704 60.785-61.641 0-34.171-27.32-61.641-60.785-61.641M639.86 730.513c-29.142 17.085-38.93 54.716-22.311 84.265 16.848 29.553 53.956 39.71 83.094 22.625 29.142-17.082 38.93-54.713 22.311-84.266-17.072-29.318-54.182-39.476-83.094-22.624m-302.1-218.396c0-60.95 29.822-114.743 75.579-147.292l-44.392-75.494c-53.272 36.015-92.657 91.192-109.276 155.602a87.38 87.38 0 0 1 31.417 67.184 87.38 87.38 0 0 1-31.417 67.18c16.391 64.41 56.004 119.588 109.276 155.604l44.392-75.493c-45.757-32.552-75.58-86.344-75.58-147.291M515.33 332.04c92.885 0 168.922 72.032 176.89 164.146l86.74-1.385c-4.326-67.874-33.468-128.824-78.544-173.61-23.222 8.773-49.858 7.388-72.85-6.003-23.222-13.62-37.564-36.246-41.662-61.179-22.538-6.233-46.214-9.697-70.574-9.697-42.116 0-81.73 9.928-117.015 27.704l42.344 76.648c22.538-10.621 48.035-16.624 74.671-16.624m0 360.15a177.2 177.2 0 0 1-74.898-16.62l-42.343 76.643c35.285 17.78 75.125 27.704 117.014 27.704 24.36 0 48.036-3.46 70.574-9.694 3.871-24.704 18.44-47.559 41.663-61.18 22.992-13.622 49.854-14.777 72.85-6.004 44.849-44.785 74.217-105.736 78.542-173.61l-86.738-1.385c-7.742 91.884-83.779 164.147-176.664 164.147m124.303-398.703c29.139 17.084 66.25 6.926 83.094-22.625 16.846-29.55 6.831-67.182-22.31-84.265-29.14-17.084-66.25-6.926-83.095 22.624-16.618 29.55-6.604 67.182 22.311 84.266"/></g></svg>