<svg xmlns="http://www.w3.org/2000/svg" width="32" height="32" class="icon" viewBox="0 0 1024 1024"><path fill="#fff" d="M80 752.33V271.72a128 128 0 0 1 128.05-128l608.47.23a128 128 0 0 1 128 128.1l-.37 480.38a128 128 0 0 1-128 127.9H208a128 128 0 0 1-128-128"/><path fill="#a89bfa" d="M129 751.33V304.71a112 112 0 0 1 112.05-112l575.47.24a112 112 0 0 1 112 112.1l-.38 446.38a112 112 0 0 1-112 111.9H241a112 112 0 0 1-112-112"/><path fill="#333" d="M816.1 896.33H208c-79.4 0-144-64.59-144-144V271.72a144 144 0 0 1 144-144h.06l608.46.23a144 144 0 0 1 144 144.11l-.37 480.38c-.15 79.35-64.71 143.89-144.05 143.89M208 159.72a112 112 0 0 0-112 112v480.61a112.12 112.12 0 0 0 112 112h608.1a112.14 112.14 0 0 0 112-111.91l.37-480.42a112 112 0 0 0-111.96-112z"/><path fill="#fff" d="M304 352h224q64 0 64 64v192q0 64-64 64H304q-64 0-64-64V416q0-64 64-64"/><path fill="#ff9580" d="M336 400h192q48 0 48 48v160q0 48-48 48H336q-48 0-48-48V448q0-48 48-48"/><path fill="#333" d="M528 688H304a80.09 80.09 0 0 1-80-80V416a80.09 80.09 0 0 1 80-80h224a80.09 80.09 0 0 1 80 80v192a80.09 80.09 0 0 1-80 80M304 368a48.05 48.05 0 0 0-48 48v192a48.05 48.05 0 0 0 48 48h224a48.05 48.05 0 0 0 48-48V416a48.05 48.05 0 0 0-48-48z"/><path fill="#fff" d="M680.1 546a48 48 0 0 1-.09-68.15L800 358.49v306.17z"/><path fill="#ffe07a" d="m723.88 492.85 46.45-46.64a8 8 0 0 1 13.67 5.65v171.8l-63.56-89.73a32 32 0 0 1 3.44-41.08"/><path fill="#333" d="M784 397v229.31l-92.64-91.68a32 32 0 0 1-.06-45.43zm15.89-54.52a15.66 15.66 0 0 0-11.17 4.69l-120 119.37a64 64 0 0 0 .12 90.86L788.75 676a15.65 15.65 0 0 0 11.14 4.66 16 16 0 0 0 16.11-16V358.49a16 16 0 0 0-16.11-16z"/></svg>