<svg xmlns="http://www.w3.org/2000/svg" width="32" height="32" class="icon" viewBox="0 0 1161 1024"><path fill="#91c300" d="M1110.036 173.584c-205.255 84.862-303.945 37.156-392.894-22.705l-101.26 351.229c88.862 60.203 196.143 109.7 393.07 21.542z"/><path fill="#00b4f1" d="M442.763 879.656c-89.148-59.998-186.059-109.346-391.8-24.273l100.744-351.888c205.784-85.086 304.642-36.938 393.703 23.427L442.763 879.649z"/><path fill="#f8682c" d="M562.516 463.403c-53.671-36.142-111.392-69.876-193.368-70.498-54.088-.417-118.471 14.948-200.204 48.744l101.29-350.98C475.882 5.64 574.66 53.764 663.657 114.085z"/><path fill="#ffc300" d="M598.807 560.78c89.036 59.949 187.938 107.698 393.41 22.768L890.94 933.358c-205.51 84.999-304.207 36.864-393.15-23.452Z"/></svg>